G04 #@! TF.GenerationSoftware,KiCad,Pcbnew,(5.1.9)-1*
G04 #@! TF.CreationDate,2022-06-27T08:21:43+02:00*
G04 #@! TF.ProjectId,green_detect_3,67726565-6e5f-4646-9574-6563745f332e,0.00*
G04 #@! TF.SameCoordinates,Original*
G04 #@! TF.FileFunction,Soldermask,Bot*
G04 #@! TF.FilePolarity,Negative*
%FSLAX46Y46*%
G04 Gerber Fmt 4.6, Leading zero omitted, Abs format (unit mm)*
G04 Created by KiCad (PCBNEW (5.1.9)-1) date 2022-06-27 08:21:43*
%MOMM*%
%LPD*%
G01*
G04 APERTURE LIST*
%ADD10C,3.100000*%
%ADD11C,1.800000*%
%ADD12O,3.700000X1.900000*%
%ADD13C,1.540000*%
%ADD14O,1.700000X2.100000*%
%ADD15C,4.400000*%
%ADD16O,1.200000X2.300000*%
%ADD17C,3.300000*%
%ADD18O,1.900000X3.700000*%
G04 APERTURE END LIST*
D10*
X163500000Y-53000000D03*
X163500000Y-78000000D03*
X183500000Y-78000000D03*
X183500000Y-53000000D03*
D11*
X172000000Y-78000000D03*
X174500000Y-78000000D03*
X172000000Y-53000000D03*
X174500000Y-53000000D03*
D12*
X86500000Y-74500000D03*
G36*
G01*
X88086112Y-78950000D02*
X84913888Y-78950000D01*
G75*
G02*
X84650000Y-78686112I0J263888D01*
G01*
X84650000Y-77313888D01*
G75*
G02*
X84913888Y-77050000I263888J0D01*
G01*
X88086112Y-77050000D01*
G75*
G02*
X88350000Y-77313888I0J-263888D01*
G01*
X88350000Y-78686112D01*
G75*
G02*
X88086112Y-78950000I-263888J0D01*
G01*
G37*
D13*
X108580000Y-100000000D03*
X106040000Y-100000000D03*
X103500000Y-100000000D03*
D14*
X197500000Y-118110000D03*
X194960000Y-118110000D03*
X192420000Y-118110000D03*
X189880000Y-118110000D03*
X187340000Y-118110000D03*
X184800000Y-118110000D03*
X182260000Y-118110000D03*
X179720000Y-118110000D03*
X179720000Y-95250000D03*
X182260000Y-95250000D03*
X184800000Y-95250000D03*
X187340000Y-95250000D03*
X189880000Y-95250000D03*
X192420000Y-95250000D03*
G36*
G01*
X196500000Y-94200000D02*
X198500000Y-94200000D01*
G75*
G02*
X198550000Y-94250000I0J-50000D01*
G01*
X198550000Y-96250000D01*
G75*
G02*
X198500000Y-96300000I-50000J0D01*
G01*
X196500000Y-96300000D01*
G75*
G02*
X196450000Y-96250000I0J50000D01*
G01*
X196450000Y-94250000D01*
G75*
G02*
X196500000Y-94200000I50000J0D01*
G01*
G37*
X194960000Y-95250000D03*
D15*
X136200000Y-76000000D03*
D16*
X111850000Y-131000000D03*
X114000000Y-128200000D03*
X114000000Y-133800000D03*
D17*
X75500000Y-95000000D03*
X165500000Y-143500000D03*
X122500000Y-143500000D03*
X212500000Y-95000000D03*
X165500000Y-46500000D03*
X122500000Y-46500000D03*
D18*
X188600000Y-132100000D03*
X185100000Y-132100000D03*
X181600000Y-132100000D03*
X178100000Y-132100000D03*
X174600000Y-132100000D03*
X171100000Y-132100000D03*
X167600000Y-132100000D03*
G36*
G01*
X163150000Y-133686112D02*
X163150000Y-130513888D01*
G75*
G02*
X163413888Y-130250000I263888J0D01*
G01*
X164786112Y-130250000D01*
G75*
G02*
X165050000Y-130513888I0J-263888D01*
G01*
X165050000Y-133686112D01*
G75*
G02*
X164786112Y-133950000I-263888J0D01*
G01*
X163413888Y-133950000D01*
G75*
G02*
X163150000Y-133686112I0J263888D01*
G01*
G37*
X149500000Y-132000000D03*
X146000000Y-132000000D03*
X142500000Y-132000000D03*
X139000000Y-132000000D03*
X135500000Y-132000000D03*
X132000000Y-132000000D03*
X128500000Y-132000000D03*
G36*
G01*
X124050000Y-133586112D02*
X124050000Y-130413888D01*
G75*
G02*
X124313888Y-130150000I263888J0D01*
G01*
X125686112Y-130150000D01*
G75*
G02*
X125950000Y-130413888I0J-263888D01*
G01*
X125950000Y-133586112D01*
G75*
G02*
X125686112Y-133850000I-263888J0D01*
G01*
X124313888Y-133850000D01*
G75*
G02*
X124050000Y-133586112I0J263888D01*
G01*
G37*
X102500000Y-132000000D03*
G36*
G01*
X98050000Y-133586112D02*
X98050000Y-130413888D01*
G75*
G02*
X98313888Y-130150000I263888J0D01*
G01*
X99686112Y-130150000D01*
G75*
G02*
X99950000Y-130413888I0J-263888D01*
G01*
X99950000Y-133586112D01*
G75*
G02*
X99686112Y-133850000I-263888J0D01*
G01*
X98313888Y-133850000D01*
G75*
G02*
X98050000Y-133586112I0J263888D01*
G01*
G37*
M02*
