G04 #@! TF.GenerationSoftware,KiCad,Pcbnew,(5.1.9)-1*
G04 #@! TF.CreationDate,2022-06-27T08:21:43+02:00*
G04 #@! TF.ProjectId,green_detect_3,67726565-6e5f-4646-9574-6563745f332e,0.00*
G04 #@! TF.SameCoordinates,Original*
G04 #@! TF.FileFunction,Profile,NP*
%FSLAX46Y46*%
G04 Gerber Fmt 4.6, Leading zero omitted, Abs format (unit mm)*
G04 Created by KiCad (PCBNEW (5.1.9)-1) date 2022-06-27 08:21:43*
%MOMM*%
%LPD*%
G01*
G04 APERTURE LIST*
G04 #@! TA.AperFunction,Profile*
%ADD10C,0.050000*%
G04 #@! TD*
G04 APERTURE END LIST*
D10*
X78000000Y-65000000D02*
X78000000Y-90000000D01*
X94000000Y-65000000D02*
X78000000Y-65000000D01*
X94000000Y-49000000D02*
X94000000Y-65000000D01*
X117500000Y-49000000D02*
X94000000Y-49000000D01*
X117500000Y-42500000D02*
X117500000Y-49000000D01*
X127500000Y-42500000D02*
X117500000Y-42500000D01*
X127500000Y-49000000D02*
X127500000Y-42500000D01*
X160500000Y-49000000D02*
X127500000Y-49000000D01*
X160500000Y-42500000D02*
X160500000Y-49000000D01*
X170500000Y-42500000D02*
X160500000Y-42500000D01*
X170500000Y-49000000D02*
X170500000Y-42500000D01*
X194000000Y-49000000D02*
X170500000Y-49000000D01*
X194000000Y-65000000D02*
X194000000Y-49000000D01*
X210000000Y-65000000D02*
X194000000Y-65000000D01*
X210000000Y-90000000D02*
X210000000Y-65000000D01*
X216500000Y-90000000D02*
X210000000Y-90000000D01*
X216500000Y-100000000D02*
X216500000Y-90000000D01*
X210000000Y-100000000D02*
X216500000Y-100000000D01*
X210000000Y-125000000D02*
X210000000Y-100000000D01*
X194000000Y-125000000D02*
X210000000Y-125000000D01*
X194000000Y-141000000D02*
X194000000Y-125000000D01*
X170500000Y-141000000D02*
X194000000Y-141000000D01*
X170500000Y-147500000D02*
X170500000Y-141000000D01*
X160500000Y-147500000D02*
X170500000Y-147500000D01*
X160500000Y-141000000D02*
X160500000Y-147500000D01*
X127500000Y-141000000D02*
X160500000Y-141000000D01*
X127500000Y-147500000D02*
X127500000Y-141000000D01*
X117500000Y-147500000D02*
X127500000Y-147500000D01*
X117500000Y-141000000D02*
X117500000Y-147500000D01*
X94000000Y-141000000D02*
X117500000Y-141000000D01*
X94000000Y-125000000D02*
X94000000Y-141000000D01*
X78000000Y-125000000D02*
X94000000Y-125000000D01*
X78000000Y-100000000D02*
X78000000Y-125000000D01*
X71500000Y-100000000D02*
X78000000Y-100000000D01*
X71500000Y-90000000D02*
X71500000Y-100000000D01*
X78000000Y-90000000D02*
X71500000Y-90000000D01*
M02*
