M48
; DRILL file {KiCad (5.1.9)-1} date 06/27/22 08:22:05
; FORMAT={3:3/ absolute / metric / suppress leading zeros}
; #@! TF.CreationDate,2022-06-27T08:22:05+02:00
; #@! TF.GenerationSoftware,Kicad,Pcbnew,(5.1.9)-1
; #@! TF.FileFunction,Plated,1,2,PTH
FMAT,2
METRIC,TZ
T1C0.400
T2C0.500
T3C0.800
T4C1.000
T5C1.200
T6C3.000
%
G90
G05
T1
X95000Y-86000
X99000Y-111000
X117000Y-103500
X146550Y-97850
X150100Y-115000
X155400Y-120600
X156550Y-130250
X159950Y-133600
X160250Y-123100
X160350Y-113950
X162600Y-107300
X168900Y-108750
X169550Y-104300
X175300Y-117450
X175400Y-84050
X177950Y-108800
X183300Y-123100
X186350Y-85300
X193400Y-76550
X201650Y-121200
T3
X103500Y-100000
X106040Y-100000
X108580Y-100000
T4
X81000Y-92000
X81000Y-94500
X81000Y-101000
X81000Y-104000
X81000Y-107000
X81000Y-110000
X81000Y-116500
X81000Y-119500
X81000Y-122500
X85000Y-92000
X85000Y-94500
X85000Y-101000
X85000Y-104000
X85000Y-107000
X85000Y-110000
X85000Y-116500
X85000Y-119500
X85000Y-122500
X90000Y-92000
X90000Y-94500
X90000Y-101000
X90000Y-110000
X90000Y-116500
X90000Y-119500
X90000Y-122500
X94500Y-92000
X94500Y-94500
X94500Y-101000
X94500Y-110000
X94500Y-116500
X94500Y-119500
X94500Y-122500
X168900Y-97850
X172000Y-53000
X172000Y-78000
X174500Y-53000
X174500Y-78000
X179720Y-95250
X179720Y-118110
X182260Y-95250
X182260Y-118110
X184800Y-95250
X184800Y-118110
X187340Y-95250
X187340Y-118110
X187400Y-67050
X189880Y-95250
X189880Y-118110
X192420Y-95250
X192420Y-118110
X194960Y-95250
X194960Y-118110
X197500Y-95250
X197500Y-118110
T5
X86500Y-74500
X86500Y-78000
X99000Y-132000
X102500Y-132000
X125000Y-132000
X128500Y-132000
X132000Y-132000
X135500Y-132000
X139000Y-132000
X142500Y-132000
X146000Y-132000
X149500Y-132000
X164100Y-132100
X167600Y-132100
X171100Y-132100
X174600Y-132100
X178100Y-132100
X181600Y-132100
X185100Y-132100
X188600Y-132100
T6
X163500Y-53000
X163500Y-78000
X183500Y-53000
X183500Y-78000
T2
G00X111850Y-130450
M15
G01X111850Y-131550
M16
G05
G00X114000Y-127850
M15
G01X114000Y-128550
M16
G05
G00X114000Y-133450
M15
G01X114000Y-134150
M16
G05
T0
M30
