G04 #@! TF.GenerationSoftware,KiCad,Pcbnew,(5.1.9)-1*
G04 #@! TF.CreationDate,2022-06-27T08:21:43+02:00*
G04 #@! TF.ProjectId,green_detect_3,67726565-6e5f-4646-9574-6563745f332e,0.00*
G04 #@! TF.SameCoordinates,Original*
G04 #@! TF.FileFunction,Copper,L2,Bot*
G04 #@! TF.FilePolarity,Positive*
%FSLAX46Y46*%
G04 Gerber Fmt 4.6, Leading zero omitted, Abs format (unit mm)*
G04 Created by KiCad (PCBNEW (5.1.9)-1) date 2022-06-27 08:21:43*
%MOMM*%
%LPD*%
G01*
G04 APERTURE LIST*
G04 #@! TA.AperFunction,ComponentPad*
%ADD10C,3.000000*%
G04 #@! TD*
G04 #@! TA.AperFunction,ComponentPad*
%ADD11C,1.700000*%
G04 #@! TD*
G04 #@! TA.AperFunction,ComponentPad*
%ADD12O,3.600000X1.800000*%
G04 #@! TD*
G04 #@! TA.AperFunction,ComponentPad*
%ADD13C,1.440000*%
G04 #@! TD*
G04 #@! TA.AperFunction,ComponentPad*
%ADD14O,1.600000X2.000000*%
G04 #@! TD*
G04 #@! TA.AperFunction,ComponentPad*
%ADD15R,2.000000X2.000000*%
G04 #@! TD*
G04 #@! TA.AperFunction,ComponentPad*
%ADD16O,1.100000X2.200000*%
G04 #@! TD*
G04 #@! TA.AperFunction,ComponentPad*
%ADD17O,1.800000X3.600000*%
G04 #@! TD*
G04 #@! TA.AperFunction,ViaPad*
%ADD18C,0.800000*%
G04 #@! TD*
G04 #@! TA.AperFunction,ViaPad*
%ADD19C,2.000000*%
G04 #@! TD*
G04 #@! TA.AperFunction,Conductor*
%ADD20C,1.270000*%
G04 #@! TD*
G04 #@! TA.AperFunction,Conductor*
%ADD21C,0.406400*%
G04 #@! TD*
G04 #@! TA.AperFunction,Conductor*
%ADD22C,0.254000*%
G04 #@! TD*
G04 #@! TA.AperFunction,Conductor*
%ADD23C,0.100000*%
G04 #@! TD*
G04 APERTURE END LIST*
D10*
X163500000Y-53000000D03*
X163500000Y-78000000D03*
X183500000Y-78000000D03*
X183500000Y-53000000D03*
D11*
X172000000Y-78000000D03*
X174500000Y-78000000D03*
X172000000Y-53000000D03*
X174500000Y-53000000D03*
D12*
X86500000Y-74500000D03*
G04 #@! TA.AperFunction,ComponentPad*
G36*
G01*
X88050000Y-78900000D02*
X84950000Y-78900000D01*
G75*
G02*
X84700000Y-78650000I0J250000D01*
G01*
X84700000Y-77350000D01*
G75*
G02*
X84950000Y-77100000I250000J0D01*
G01*
X88050000Y-77100000D01*
G75*
G02*
X88300000Y-77350000I0J-250000D01*
G01*
X88300000Y-78650000D01*
G75*
G02*
X88050000Y-78900000I-250000J0D01*
G01*
G37*
G04 #@! TD.AperFunction*
D13*
X108580000Y-100000000D03*
X106040000Y-100000000D03*
X103500000Y-100000000D03*
D14*
X197500000Y-118110000D03*
X194960000Y-118110000D03*
X192420000Y-118110000D03*
X189880000Y-118110000D03*
X187340000Y-118110000D03*
X184800000Y-118110000D03*
X182260000Y-118110000D03*
X179720000Y-118110000D03*
X179720000Y-95250000D03*
X182260000Y-95250000D03*
X184800000Y-95250000D03*
X187340000Y-95250000D03*
X189880000Y-95250000D03*
X192420000Y-95250000D03*
D15*
X197500000Y-95250000D03*
D14*
X194960000Y-95250000D03*
D16*
X111850000Y-131000000D03*
X114000000Y-128200000D03*
X114000000Y-133800000D03*
D17*
X188600000Y-132100000D03*
X185100000Y-132100000D03*
X181600000Y-132100000D03*
X178100000Y-132100000D03*
X174600000Y-132100000D03*
X171100000Y-132100000D03*
X167600000Y-132100000D03*
G04 #@! TA.AperFunction,ComponentPad*
G36*
G01*
X163200000Y-133650000D02*
X163200000Y-130550000D01*
G75*
G02*
X163450000Y-130300000I250000J0D01*
G01*
X164750000Y-130300000D01*
G75*
G02*
X165000000Y-130550000I0J-250000D01*
G01*
X165000000Y-133650000D01*
G75*
G02*
X164750000Y-133900000I-250000J0D01*
G01*
X163450000Y-133900000D01*
G75*
G02*
X163200000Y-133650000I0J250000D01*
G01*
G37*
G04 #@! TD.AperFunction*
X149500000Y-132000000D03*
X146000000Y-132000000D03*
X142500000Y-132000000D03*
X139000000Y-132000000D03*
X135500000Y-132000000D03*
X132000000Y-132000000D03*
X128500000Y-132000000D03*
G04 #@! TA.AperFunction,ComponentPad*
G36*
G01*
X124100000Y-133550000D02*
X124100000Y-130450000D01*
G75*
G02*
X124350000Y-130200000I250000J0D01*
G01*
X125650000Y-130200000D01*
G75*
G02*
X125900000Y-130450000I0J-250000D01*
G01*
X125900000Y-133550000D01*
G75*
G02*
X125650000Y-133800000I-250000J0D01*
G01*
X124350000Y-133800000D01*
G75*
G02*
X124100000Y-133550000I0J250000D01*
G01*
G37*
G04 #@! TD.AperFunction*
X102500000Y-132000000D03*
G04 #@! TA.AperFunction,ComponentPad*
G36*
G01*
X98100000Y-133550000D02*
X98100000Y-130450000D01*
G75*
G02*
X98350000Y-130200000I250000J0D01*
G01*
X99650000Y-130200000D01*
G75*
G02*
X99900000Y-130450000I0J-250000D01*
G01*
X99900000Y-133550000D01*
G75*
G02*
X99650000Y-133800000I-250000J0D01*
G01*
X98350000Y-133800000D01*
G75*
G02*
X98100000Y-133550000I0J250000D01*
G01*
G37*
G04 #@! TD.AperFunction*
D18*
X175400000Y-84050000D03*
X162600000Y-107300000D03*
D19*
X168900000Y-97850000D03*
D18*
X160250000Y-123100000D03*
X146550000Y-97850000D03*
D19*
X85000000Y-94500000D03*
X81000000Y-94500000D03*
X94500000Y-94500000D03*
X90000000Y-94500000D03*
X85000000Y-101000000D03*
X81000000Y-101000000D03*
X94500000Y-101000000D03*
X90000000Y-101000000D03*
X85000000Y-110000000D03*
X81000000Y-110000000D03*
X94500000Y-110000000D03*
X90000000Y-110000000D03*
X85000000Y-116500000D03*
X81000000Y-116500000D03*
X94500000Y-116500000D03*
X90000000Y-116500000D03*
X85000000Y-119500000D03*
X81000000Y-119500000D03*
X94500000Y-119500000D03*
X90000000Y-119500000D03*
X85000000Y-122500000D03*
X81000000Y-122500000D03*
X94500000Y-122500000D03*
X90000000Y-122500000D03*
X85000000Y-104000000D03*
X85000000Y-107000000D03*
X81000000Y-107000000D03*
X81000000Y-104000000D03*
X81000000Y-92000000D03*
X85000000Y-92000000D03*
X90000000Y-92000000D03*
X94500000Y-92000000D03*
X187400000Y-67050000D03*
D18*
X186350000Y-85300000D03*
X156550000Y-130250000D03*
X159950000Y-133600000D03*
X193400000Y-76550000D03*
X175300000Y-117450000D03*
X183300000Y-123100000D03*
X201650000Y-121200000D03*
X150100000Y-115000000D03*
X160350000Y-113950000D03*
X168900000Y-108750000D03*
X177950000Y-108800000D03*
X169550000Y-104300000D03*
X155400000Y-120600000D03*
X99000000Y-111000000D03*
X117000000Y-103500000D03*
X95000000Y-86000000D03*
D20*
X149500000Y-132000000D02*
X146000000Y-132000000D01*
D21*
X175400000Y-84050000D02*
X167550000Y-84050000D01*
X162600000Y-89000000D02*
X162600000Y-107300000D01*
X167550000Y-84050000D02*
X162600000Y-89000000D01*
D20*
X177120000Y-97850000D02*
X179720000Y-95250000D01*
X168900000Y-97850000D02*
X177120000Y-97850000D01*
D21*
X160250000Y-123100000D02*
X151300000Y-123100000D01*
X151300000Y-123100000D02*
X146550000Y-118350000D01*
X146550000Y-110100000D02*
X146550000Y-97850000D01*
X146550000Y-118350000D02*
X146550000Y-110100000D01*
D20*
X80000000Y-88000000D02*
X80000000Y-74000000D01*
X94000000Y-121000000D02*
X81000000Y-121000000D01*
X96000000Y-123000000D02*
X94000000Y-121000000D01*
X96000000Y-138000000D02*
X96000000Y-123000000D01*
X81000000Y-89000000D02*
X80000000Y-88000000D01*
X81000000Y-121000000D02*
X81000000Y-92000000D01*
X102500000Y-137500000D02*
X102000000Y-138000000D01*
X102500000Y-132000000D02*
X102500000Y-137500000D01*
X80000000Y-74000000D02*
X86000000Y-74000000D01*
X102000000Y-138000000D02*
X101200000Y-138000000D01*
X101200000Y-138000000D02*
X96000000Y-138000000D01*
X102000000Y-138000000D02*
X138900000Y-138000000D01*
X138900000Y-132100000D02*
X139000000Y-132000000D01*
X138900000Y-138000000D02*
X138900000Y-132100000D01*
X81000000Y-92000000D02*
X81000000Y-89000000D01*
X168850000Y-56150000D02*
X172000000Y-53000000D01*
X103500000Y-56150000D02*
X168850000Y-56150000D01*
X102800000Y-56850000D02*
X103500000Y-56150000D01*
X102800000Y-67800000D02*
X102800000Y-56850000D01*
X82600000Y-67800000D02*
X102800000Y-67800000D01*
X80000000Y-70400000D02*
X82600000Y-67800000D01*
X80000000Y-74000000D02*
X80000000Y-70400000D01*
X168850000Y-56150000D02*
X168850000Y-69850000D01*
X172000000Y-73000000D02*
X172000000Y-78000000D01*
X168850000Y-69850000D02*
X172000000Y-73000000D01*
X179720000Y-118110000D02*
X179720000Y-116380000D01*
X179720000Y-116380000D02*
X184000000Y-112100000D01*
X184000000Y-112100000D02*
X201050000Y-112100000D01*
X201050000Y-112100000D02*
X202350000Y-112100000D01*
X202350000Y-112100000D02*
X205350000Y-109100000D01*
X205350000Y-109100000D02*
X205350000Y-71250000D01*
X205350000Y-71250000D02*
X201350000Y-67250000D01*
X187600000Y-67250000D02*
X187400000Y-67050000D01*
X201350000Y-67250000D02*
X187600000Y-67250000D01*
D21*
X194900000Y-95190000D02*
X194960000Y-95250000D01*
X194900000Y-92600000D02*
X194900000Y-95190000D01*
X195950000Y-91550000D02*
X194900000Y-92600000D01*
X187600000Y-74450000D02*
X195950000Y-74450000D01*
X195950000Y-74450000D02*
X195950000Y-91550000D01*
X180000000Y-69000000D02*
X187600000Y-74450000D01*
X180000000Y-58500000D02*
X174500000Y-53000000D01*
X180000000Y-69000000D02*
X180000000Y-58500000D01*
X182100000Y-82000000D02*
X149500000Y-82000000D01*
X156550000Y-126350000D02*
X156550000Y-130250000D01*
X156050000Y-125850000D02*
X156550000Y-126350000D01*
X148550000Y-125850000D02*
X156050000Y-125850000D01*
X143450000Y-86900000D02*
X143450000Y-120750000D01*
X143450000Y-120750000D02*
X148550000Y-125850000D01*
X149500000Y-82000000D02*
X143450000Y-86900000D01*
X186350000Y-85300000D02*
X182000000Y-82000000D01*
X140250000Y-122550000D02*
X140250000Y-83450000D01*
X145850000Y-128150000D02*
X140250000Y-122550000D01*
X153950000Y-128500000D02*
X153600000Y-128150000D01*
X153950000Y-132100000D02*
X153950000Y-128500000D01*
X140250000Y-83450000D02*
X144000000Y-80500000D01*
X153600000Y-128150000D02*
X145850000Y-128150000D01*
X155450000Y-133600000D02*
X153950000Y-132100000D01*
X159950000Y-133600000D02*
X155450000Y-133600000D01*
X144000000Y-80500000D02*
X186500000Y-80500000D01*
X190450000Y-76550000D02*
X193400000Y-76550000D01*
X186500000Y-80500000D02*
X190450000Y-76550000D01*
X175300000Y-117450000D02*
X175300000Y-121450000D01*
X175300000Y-121450000D02*
X175650000Y-121800000D01*
X175650000Y-121800000D02*
X182650000Y-121800000D01*
X183300000Y-122450000D02*
X183300000Y-123100000D01*
X182650000Y-121800000D02*
X183300000Y-122450000D01*
X174600000Y-132100000D02*
X174600000Y-135700000D01*
X174600000Y-135700000D02*
X174700000Y-135800000D01*
X174700000Y-135800000D02*
X191100000Y-135800000D01*
X191100000Y-135800000D02*
X191100000Y-127400000D01*
X191100000Y-127400000D02*
X189880000Y-126180000D01*
X189880000Y-126180000D02*
X189880000Y-118110000D01*
X201650000Y-121200000D02*
X201650000Y-115900000D01*
X201650000Y-115900000D02*
X200600000Y-114850000D01*
X200600000Y-114850000D02*
X190750000Y-114850000D01*
X189880000Y-115720000D02*
X189880000Y-118110000D01*
X190750000Y-114850000D02*
X189880000Y-115720000D01*
X167600000Y-132100000D02*
X167600000Y-134300000D01*
X167600000Y-134300000D02*
X171500000Y-138200000D01*
X171500000Y-138200000D02*
X191400000Y-138200000D01*
X191400000Y-138200000D02*
X192600000Y-137000000D01*
X192600000Y-118290000D02*
X192420000Y-118110000D01*
X192600000Y-137000000D02*
X192600000Y-118290000D01*
X150100000Y-115000000D02*
X159550000Y-115000000D01*
X160350000Y-114200000D02*
X160350000Y-113950000D01*
X159550000Y-115000000D02*
X160350000Y-114200000D01*
X177900000Y-108750000D02*
X177950000Y-108800000D01*
X168900000Y-108750000D02*
X177900000Y-108750000D01*
X169550000Y-104300000D02*
X182950000Y-104300000D01*
X184800000Y-102450000D02*
X184800000Y-95250000D01*
X182950000Y-104300000D02*
X184800000Y-102450000D01*
X155400000Y-120600000D02*
X157800000Y-118200000D01*
X157800000Y-118200000D02*
X169900000Y-118200000D01*
X169900000Y-118200000D02*
X176650000Y-111450000D01*
X176650000Y-111450000D02*
X179900000Y-111450000D01*
X189880000Y-101470000D02*
X189880000Y-95250000D01*
X179900000Y-111450000D02*
X189880000Y-101470000D01*
X197500000Y-95250000D02*
X197500000Y-97450000D01*
X197500000Y-97450000D02*
X192550000Y-97450000D01*
X192550000Y-97450000D02*
X192400000Y-97300000D01*
X192420000Y-97280000D02*
X192420000Y-95250000D01*
X192400000Y-97300000D02*
X192420000Y-97280000D01*
X114000000Y-128200000D02*
X113300000Y-128200000D01*
X111850000Y-129650000D02*
X111850000Y-131000000D01*
X113300000Y-128200000D02*
X111850000Y-129650000D01*
X111850000Y-131000000D02*
X111850000Y-132350000D01*
X113300000Y-133800000D02*
X114000000Y-133800000D01*
X111850000Y-132350000D02*
X113300000Y-133800000D01*
X99000000Y-111000000D02*
X112500000Y-111000000D01*
X112500000Y-111000000D02*
X114000000Y-109500000D01*
X114000000Y-106500000D02*
X117000000Y-103500000D01*
X114000000Y-109500000D02*
X114000000Y-106500000D01*
X99000000Y-111000000D02*
X100500000Y-109500000D01*
X100500000Y-109500000D02*
X100500000Y-103000000D01*
X100500000Y-103000000D02*
X100500000Y-102500000D01*
X100500000Y-102500000D02*
X98000000Y-100000000D01*
X98000000Y-89000000D02*
X95000000Y-86000000D01*
X98000000Y-100000000D02*
X98000000Y-89000000D01*
D22*
X127348000Y-48992538D02*
X127347265Y-49000000D01*
X127350200Y-49029797D01*
X127358891Y-49058449D01*
X127373005Y-49084855D01*
X127392000Y-49108000D01*
X127415145Y-49126995D01*
X127441551Y-49141109D01*
X127470203Y-49149800D01*
X127500000Y-49152735D01*
X127507462Y-49152000D01*
X160492538Y-49152000D01*
X160500000Y-49152735D01*
X160529797Y-49149800D01*
X160558449Y-49141109D01*
X160584855Y-49126995D01*
X160608000Y-49108000D01*
X160626995Y-49084855D01*
X160641109Y-49058449D01*
X160649800Y-49029797D01*
X160652000Y-49007462D01*
X160652000Y-49007461D01*
X160652735Y-49000000D01*
X160652000Y-48992538D01*
X160652000Y-46310207D01*
X163573000Y-46310207D01*
X163573000Y-46689793D01*
X163647053Y-47062085D01*
X163792315Y-47412777D01*
X164003201Y-47728391D01*
X164271609Y-47996799D01*
X164587223Y-48207685D01*
X164937915Y-48352947D01*
X165310207Y-48427000D01*
X165689793Y-48427000D01*
X166062085Y-48352947D01*
X166412777Y-48207685D01*
X166728391Y-47996799D01*
X166996799Y-47728391D01*
X167207685Y-47412777D01*
X167352947Y-47062085D01*
X167427000Y-46689793D01*
X167427000Y-46310207D01*
X167352947Y-45937915D01*
X167207685Y-45587223D01*
X166996799Y-45271609D01*
X166728391Y-45003201D01*
X166412777Y-44792315D01*
X166062085Y-44647053D01*
X165689793Y-44573000D01*
X165310207Y-44573000D01*
X164937915Y-44647053D01*
X164587223Y-44792315D01*
X164271609Y-45003201D01*
X164003201Y-45271609D01*
X163792315Y-45587223D01*
X163647053Y-45937915D01*
X163573000Y-46310207D01*
X160652000Y-46310207D01*
X160652000Y-42652000D01*
X170348001Y-42652000D01*
X170348000Y-48992538D01*
X170347265Y-49000000D01*
X170350200Y-49029797D01*
X170358891Y-49058449D01*
X170373005Y-49084855D01*
X170392000Y-49108000D01*
X170415145Y-49126995D01*
X170441551Y-49141109D01*
X170470203Y-49149800D01*
X170500000Y-49152735D01*
X170507462Y-49152000D01*
X193848001Y-49152000D01*
X193848000Y-64992538D01*
X193847265Y-65000000D01*
X193850200Y-65029797D01*
X193858891Y-65058449D01*
X193873005Y-65084855D01*
X193892000Y-65108000D01*
X193915145Y-65126995D01*
X193941551Y-65141109D01*
X193970203Y-65149800D01*
X194000000Y-65152735D01*
X194007462Y-65152000D01*
X209848001Y-65152000D01*
X209848000Y-89992538D01*
X209847265Y-90000000D01*
X209850200Y-90029797D01*
X209858891Y-90058449D01*
X209873005Y-90084855D01*
X209892000Y-90108000D01*
X209915145Y-90126995D01*
X209941551Y-90141109D01*
X209970203Y-90149800D01*
X210000000Y-90152735D01*
X210007462Y-90152000D01*
X216348001Y-90152000D01*
X216348000Y-99848000D01*
X210007462Y-99848000D01*
X210000000Y-99847265D01*
X209992538Y-99848000D01*
X209970203Y-99850200D01*
X209941551Y-99858891D01*
X209915145Y-99873005D01*
X209892000Y-99892000D01*
X209873005Y-99915145D01*
X209858891Y-99941551D01*
X209850200Y-99970203D01*
X209847265Y-100000000D01*
X209848001Y-100007472D01*
X209848000Y-124848000D01*
X194007462Y-124848000D01*
X194000000Y-124847265D01*
X193992538Y-124848000D01*
X193970203Y-124850200D01*
X193941551Y-124858891D01*
X193915145Y-124873005D01*
X193892000Y-124892000D01*
X193873005Y-124915145D01*
X193858891Y-124941551D01*
X193850200Y-124970203D01*
X193847265Y-125000000D01*
X193848001Y-125007472D01*
X193848000Y-140848000D01*
X170507462Y-140848000D01*
X170500000Y-140847265D01*
X170492538Y-140848000D01*
X170470203Y-140850200D01*
X170441551Y-140858891D01*
X170415145Y-140873005D01*
X170392000Y-140892000D01*
X170373005Y-140915145D01*
X170358891Y-140941551D01*
X170350200Y-140970203D01*
X170347265Y-141000000D01*
X170348001Y-141007472D01*
X170348000Y-147348000D01*
X160652000Y-147348000D01*
X160652000Y-143310207D01*
X163573000Y-143310207D01*
X163573000Y-143689793D01*
X163647053Y-144062085D01*
X163792315Y-144412777D01*
X164003201Y-144728391D01*
X164271609Y-144996799D01*
X164587223Y-145207685D01*
X164937915Y-145352947D01*
X165310207Y-145427000D01*
X165689793Y-145427000D01*
X166062085Y-145352947D01*
X166412777Y-145207685D01*
X166728391Y-144996799D01*
X166996799Y-144728391D01*
X167207685Y-144412777D01*
X167352947Y-144062085D01*
X167427000Y-143689793D01*
X167427000Y-143310207D01*
X167352947Y-142937915D01*
X167207685Y-142587223D01*
X166996799Y-142271609D01*
X166728391Y-142003201D01*
X166412777Y-141792315D01*
X166062085Y-141647053D01*
X165689793Y-141573000D01*
X165310207Y-141573000D01*
X164937915Y-141647053D01*
X164587223Y-141792315D01*
X164271609Y-142003201D01*
X164003201Y-142271609D01*
X163792315Y-142587223D01*
X163647053Y-142937915D01*
X163573000Y-143310207D01*
X160652000Y-143310207D01*
X160652000Y-141007461D01*
X160652735Y-141000000D01*
X160649800Y-140970203D01*
X160641109Y-140941551D01*
X160626995Y-140915145D01*
X160608000Y-140892000D01*
X160584855Y-140873005D01*
X160558449Y-140858891D01*
X160529797Y-140850200D01*
X160507462Y-140848000D01*
X160500000Y-140847265D01*
X160492538Y-140848000D01*
X127507462Y-140848000D01*
X127500000Y-140847265D01*
X127492538Y-140848000D01*
X127470203Y-140850200D01*
X127441551Y-140858891D01*
X127415145Y-140873005D01*
X127392000Y-140892000D01*
X127373005Y-140915145D01*
X127358891Y-140941551D01*
X127350200Y-140970203D01*
X127347265Y-141000000D01*
X127348001Y-141007472D01*
X127348000Y-147348000D01*
X117652000Y-147348000D01*
X117652000Y-143310207D01*
X120573000Y-143310207D01*
X120573000Y-143689793D01*
X120647053Y-144062085D01*
X120792315Y-144412777D01*
X121003201Y-144728391D01*
X121271609Y-144996799D01*
X121587223Y-145207685D01*
X121937915Y-145352947D01*
X122310207Y-145427000D01*
X122689793Y-145427000D01*
X123062085Y-145352947D01*
X123412777Y-145207685D01*
X123728391Y-144996799D01*
X123996799Y-144728391D01*
X124207685Y-144412777D01*
X124352947Y-144062085D01*
X124427000Y-143689793D01*
X124427000Y-143310207D01*
X124352947Y-142937915D01*
X124207685Y-142587223D01*
X123996799Y-142271609D01*
X123728391Y-142003201D01*
X123412777Y-141792315D01*
X123062085Y-141647053D01*
X122689793Y-141573000D01*
X122310207Y-141573000D01*
X121937915Y-141647053D01*
X121587223Y-141792315D01*
X121271609Y-142003201D01*
X121003201Y-142271609D01*
X120792315Y-142587223D01*
X120647053Y-142937915D01*
X120573000Y-143310207D01*
X117652000Y-143310207D01*
X117652000Y-141007461D01*
X117652735Y-141000000D01*
X117649800Y-140970203D01*
X117641109Y-140941551D01*
X117626995Y-140915145D01*
X117608000Y-140892000D01*
X117584855Y-140873005D01*
X117558449Y-140858891D01*
X117529797Y-140850200D01*
X117507462Y-140848000D01*
X117500000Y-140847265D01*
X117492538Y-140848000D01*
X94152000Y-140848000D01*
X94152000Y-130450000D01*
X97771418Y-130450000D01*
X97771418Y-133550000D01*
X97782535Y-133662876D01*
X97815460Y-133771414D01*
X97868927Y-133871443D01*
X97940881Y-133959119D01*
X98028557Y-134031073D01*
X98128586Y-134084540D01*
X98237124Y-134117465D01*
X98350000Y-134128582D01*
X99650000Y-134128582D01*
X99762876Y-134117465D01*
X99871414Y-134084540D01*
X99971443Y-134031073D01*
X100059119Y-133959119D01*
X100131073Y-133871443D01*
X100184540Y-133771414D01*
X100217465Y-133662876D01*
X100228582Y-133550000D01*
X100228582Y-132127000D01*
X100965000Y-132127000D01*
X100965000Y-133027000D01*
X101019271Y-133324023D01*
X101130446Y-133604751D01*
X101294252Y-133858396D01*
X101504394Y-134075210D01*
X101752796Y-134246862D01*
X102029913Y-134366755D01*
X102135260Y-134391036D01*
X102373000Y-134270378D01*
X102373000Y-132127000D01*
X102627000Y-132127000D01*
X102627000Y-134270378D01*
X102864740Y-134391036D01*
X102970087Y-134366755D01*
X103247204Y-134246862D01*
X103495606Y-134075210D01*
X103705748Y-133858396D01*
X103869554Y-133604751D01*
X103980729Y-133324023D01*
X104035000Y-133027000D01*
X104035000Y-132127000D01*
X102627000Y-132127000D01*
X102373000Y-132127000D01*
X100965000Y-132127000D01*
X100228582Y-132127000D01*
X100228582Y-130973000D01*
X100965000Y-130973000D01*
X100965000Y-131873000D01*
X102373000Y-131873000D01*
X102373000Y-129729622D01*
X102627000Y-129729622D01*
X102627000Y-131873000D01*
X104035000Y-131873000D01*
X104035000Y-131593078D01*
X110973000Y-131593078D01*
X110985690Y-131721921D01*
X111035838Y-131887236D01*
X111117273Y-132039591D01*
X111226867Y-132173133D01*
X111319801Y-132249402D01*
X111319801Y-132323950D01*
X111317235Y-132350000D01*
X111320751Y-132385690D01*
X111327473Y-132453937D01*
X111357790Y-132553880D01*
X111407023Y-132645988D01*
X111473279Y-132726722D01*
X111493510Y-132743325D01*
X112906675Y-134156491D01*
X112923278Y-134176722D01*
X113004012Y-134242978D01*
X113096120Y-134292211D01*
X113123000Y-134300365D01*
X113123000Y-134393078D01*
X113135690Y-134521921D01*
X113185838Y-134687236D01*
X113267273Y-134839591D01*
X113376867Y-134973133D01*
X113510408Y-135082727D01*
X113662763Y-135164162D01*
X113828078Y-135214310D01*
X114000000Y-135231243D01*
X114171921Y-135214310D01*
X114337236Y-135164162D01*
X114489591Y-135082727D01*
X114623133Y-134973133D01*
X114732727Y-134839592D01*
X114814162Y-134687237D01*
X114864310Y-134521922D01*
X114877000Y-134393079D01*
X114877000Y-133206921D01*
X114864310Y-133078078D01*
X114814162Y-132912763D01*
X114732727Y-132760408D01*
X114623133Y-132626867D01*
X114489592Y-132517273D01*
X114337237Y-132435838D01*
X114171922Y-132385690D01*
X114000000Y-132368757D01*
X113828079Y-132385690D01*
X113662764Y-132435838D01*
X113510409Y-132517273D01*
X113376868Y-132626867D01*
X113267274Y-132760408D01*
X113185839Y-132912763D01*
X113180425Y-132930610D01*
X112445569Y-132195754D01*
X112473133Y-132173133D01*
X112582727Y-132039592D01*
X112664162Y-131887237D01*
X112714310Y-131721922D01*
X112727000Y-131593079D01*
X112727000Y-130450000D01*
X123771418Y-130450000D01*
X123771418Y-133550000D01*
X123782535Y-133662876D01*
X123815460Y-133771414D01*
X123868927Y-133871443D01*
X123940881Y-133959119D01*
X124028557Y-134031073D01*
X124128586Y-134084540D01*
X124237124Y-134117465D01*
X124350000Y-134128582D01*
X125650000Y-134128582D01*
X125762876Y-134117465D01*
X125871414Y-134084540D01*
X125971443Y-134031073D01*
X126059119Y-133959119D01*
X126131073Y-133871443D01*
X126184540Y-133771414D01*
X126217465Y-133662876D01*
X126228582Y-133550000D01*
X126228582Y-131039733D01*
X127273000Y-131039733D01*
X127273000Y-132960268D01*
X127290756Y-133140534D01*
X127360917Y-133371824D01*
X127474852Y-133584983D01*
X127628184Y-133771817D01*
X127815018Y-133925149D01*
X128028177Y-134039084D01*
X128259467Y-134109245D01*
X128500000Y-134132936D01*
X128740534Y-134109245D01*
X128971824Y-134039084D01*
X129184983Y-133925149D01*
X129371817Y-133771817D01*
X129525149Y-133584983D01*
X129639084Y-133371824D01*
X129709245Y-133140534D01*
X129727000Y-132960268D01*
X129727000Y-131039733D01*
X130773000Y-131039733D01*
X130773000Y-132960268D01*
X130790756Y-133140534D01*
X130860917Y-133371824D01*
X130974852Y-133584983D01*
X131128184Y-133771817D01*
X131315018Y-133925149D01*
X131528177Y-134039084D01*
X131759467Y-134109245D01*
X132000000Y-134132936D01*
X132240534Y-134109245D01*
X132471824Y-134039084D01*
X132684983Y-133925149D01*
X132871817Y-133771817D01*
X133025149Y-133584983D01*
X133139084Y-133371824D01*
X133209245Y-133140534D01*
X133227000Y-132960268D01*
X133227000Y-131039733D01*
X134273000Y-131039733D01*
X134273000Y-132960268D01*
X134290756Y-133140534D01*
X134360917Y-133371824D01*
X134474852Y-133584983D01*
X134628184Y-133771817D01*
X134815018Y-133925149D01*
X135028177Y-134039084D01*
X135259467Y-134109245D01*
X135500000Y-134132936D01*
X135740534Y-134109245D01*
X135971824Y-134039084D01*
X136184983Y-133925149D01*
X136371817Y-133771817D01*
X136525149Y-133584983D01*
X136639084Y-133371824D01*
X136709245Y-133140534D01*
X136727000Y-132960268D01*
X136727000Y-132127000D01*
X137465000Y-132127000D01*
X137465000Y-133027000D01*
X137519271Y-133324023D01*
X137630446Y-133604751D01*
X137794252Y-133858396D01*
X138004394Y-134075210D01*
X138252796Y-134246862D01*
X138529913Y-134366755D01*
X138635260Y-134391036D01*
X138873000Y-134270378D01*
X138873000Y-132127000D01*
X139127000Y-132127000D01*
X139127000Y-134270378D01*
X139364740Y-134391036D01*
X139470087Y-134366755D01*
X139747204Y-134246862D01*
X139995606Y-134075210D01*
X140205748Y-133858396D01*
X140369554Y-133604751D01*
X140480729Y-133324023D01*
X140535000Y-133027000D01*
X140535000Y-132127000D01*
X140965000Y-132127000D01*
X140965000Y-133027000D01*
X141019271Y-133324023D01*
X141130446Y-133604751D01*
X141294252Y-133858396D01*
X141504394Y-134075210D01*
X141752796Y-134246862D01*
X142029913Y-134366755D01*
X142135260Y-134391036D01*
X142373000Y-134270378D01*
X142373000Y-132127000D01*
X142627000Y-132127000D01*
X142627000Y-134270378D01*
X142864740Y-134391036D01*
X142970087Y-134366755D01*
X143247204Y-134246862D01*
X143495606Y-134075210D01*
X143705748Y-133858396D01*
X143869554Y-133604751D01*
X143980729Y-133324023D01*
X144035000Y-133027000D01*
X144035000Y-132127000D01*
X142627000Y-132127000D01*
X142373000Y-132127000D01*
X140965000Y-132127000D01*
X140535000Y-132127000D01*
X139127000Y-132127000D01*
X138873000Y-132127000D01*
X137465000Y-132127000D01*
X136727000Y-132127000D01*
X136727000Y-131039732D01*
X136720428Y-130973000D01*
X137465000Y-130973000D01*
X137465000Y-131873000D01*
X138873000Y-131873000D01*
X138873000Y-129729622D01*
X139127000Y-129729622D01*
X139127000Y-131873000D01*
X140535000Y-131873000D01*
X140535000Y-130973000D01*
X140965000Y-130973000D01*
X140965000Y-131873000D01*
X142373000Y-131873000D01*
X142373000Y-129729622D01*
X142627000Y-129729622D01*
X142627000Y-131873000D01*
X144035000Y-131873000D01*
X144035000Y-131039733D01*
X144773000Y-131039733D01*
X144773000Y-132960268D01*
X144790756Y-133140534D01*
X144860917Y-133371824D01*
X144974852Y-133584983D01*
X145128184Y-133771817D01*
X145315018Y-133925149D01*
X145528177Y-134039084D01*
X145759467Y-134109245D01*
X146000000Y-134132936D01*
X146240534Y-134109245D01*
X146471824Y-134039084D01*
X146684983Y-133925149D01*
X146871817Y-133771817D01*
X147025149Y-133584983D01*
X147139084Y-133371824D01*
X147209245Y-133140534D01*
X147226829Y-132962000D01*
X148273171Y-132962000D01*
X148290756Y-133140534D01*
X148360917Y-133371824D01*
X148474852Y-133584983D01*
X148628184Y-133771817D01*
X148815018Y-133925149D01*
X149028177Y-134039084D01*
X149259467Y-134109245D01*
X149500000Y-134132936D01*
X149740534Y-134109245D01*
X149971824Y-134039084D01*
X150184983Y-133925149D01*
X150371817Y-133771817D01*
X150525149Y-133584983D01*
X150639084Y-133371824D01*
X150709245Y-133140534D01*
X150727000Y-132960268D01*
X150727000Y-131039732D01*
X150709245Y-130859466D01*
X150639084Y-130628176D01*
X150525149Y-130415017D01*
X150371817Y-130228183D01*
X150184982Y-130074851D01*
X149971823Y-129960916D01*
X149740533Y-129890755D01*
X149500000Y-129867064D01*
X149259466Y-129890755D01*
X149028176Y-129960916D01*
X148815017Y-130074851D01*
X148628183Y-130228183D01*
X148474851Y-130415018D01*
X148360916Y-130628177D01*
X148290755Y-130859467D01*
X148273171Y-131038000D01*
X147226829Y-131038000D01*
X147209245Y-130859466D01*
X147139084Y-130628176D01*
X147025149Y-130415017D01*
X146871817Y-130228183D01*
X146684982Y-130074851D01*
X146471823Y-129960916D01*
X146240533Y-129890755D01*
X146000000Y-129867064D01*
X145759466Y-129890755D01*
X145528176Y-129960916D01*
X145315017Y-130074851D01*
X145128183Y-130228183D01*
X144974851Y-130415018D01*
X144860916Y-130628177D01*
X144790755Y-130859467D01*
X144773000Y-131039733D01*
X144035000Y-131039733D01*
X144035000Y-130973000D01*
X143980729Y-130675977D01*
X143869554Y-130395249D01*
X143705748Y-130141604D01*
X143495606Y-129924790D01*
X143247204Y-129753138D01*
X142970087Y-129633245D01*
X142864740Y-129608964D01*
X142627000Y-129729622D01*
X142373000Y-129729622D01*
X142135260Y-129608964D01*
X142029913Y-129633245D01*
X141752796Y-129753138D01*
X141504394Y-129924790D01*
X141294252Y-130141604D01*
X141130446Y-130395249D01*
X141019271Y-130675977D01*
X140965000Y-130973000D01*
X140535000Y-130973000D01*
X140480729Y-130675977D01*
X140369554Y-130395249D01*
X140205748Y-130141604D01*
X139995606Y-129924790D01*
X139747204Y-129753138D01*
X139470087Y-129633245D01*
X139364740Y-129608964D01*
X139127000Y-129729622D01*
X138873000Y-129729622D01*
X138635260Y-129608964D01*
X138529913Y-129633245D01*
X138252796Y-129753138D01*
X138004394Y-129924790D01*
X137794252Y-130141604D01*
X137630446Y-130395249D01*
X137519271Y-130675977D01*
X137465000Y-130973000D01*
X136720428Y-130973000D01*
X136709245Y-130859466D01*
X136639084Y-130628176D01*
X136525149Y-130415017D01*
X136371817Y-130228183D01*
X136184982Y-130074851D01*
X135971823Y-129960916D01*
X135740533Y-129890755D01*
X135500000Y-129867064D01*
X135259466Y-129890755D01*
X135028176Y-129960916D01*
X134815017Y-130074851D01*
X134628183Y-130228183D01*
X134474851Y-130415018D01*
X134360916Y-130628177D01*
X134290755Y-130859467D01*
X134273000Y-131039733D01*
X133227000Y-131039733D01*
X133227000Y-131039732D01*
X133209245Y-130859466D01*
X133139084Y-130628176D01*
X133025149Y-130415017D01*
X132871817Y-130228183D01*
X132684982Y-130074851D01*
X132471823Y-129960916D01*
X132240533Y-129890755D01*
X132000000Y-129867064D01*
X131759466Y-129890755D01*
X131528176Y-129960916D01*
X131315017Y-130074851D01*
X131128183Y-130228183D01*
X130974851Y-130415018D01*
X130860916Y-130628177D01*
X130790755Y-130859467D01*
X130773000Y-131039733D01*
X129727000Y-131039733D01*
X129727000Y-131039732D01*
X129709245Y-130859466D01*
X129639084Y-130628176D01*
X129525149Y-130415017D01*
X129371817Y-130228183D01*
X129184982Y-130074851D01*
X128971823Y-129960916D01*
X128740533Y-129890755D01*
X128500000Y-129867064D01*
X128259466Y-129890755D01*
X128028176Y-129960916D01*
X127815017Y-130074851D01*
X127628183Y-130228183D01*
X127474851Y-130415018D01*
X127360916Y-130628177D01*
X127290755Y-130859467D01*
X127273000Y-131039733D01*
X126228582Y-131039733D01*
X126228582Y-130450000D01*
X126217465Y-130337124D01*
X126184540Y-130228586D01*
X126131073Y-130128557D01*
X126059119Y-130040881D01*
X125971443Y-129968927D01*
X125871414Y-129915460D01*
X125762876Y-129882535D01*
X125650000Y-129871418D01*
X124350000Y-129871418D01*
X124237124Y-129882535D01*
X124128586Y-129915460D01*
X124028557Y-129968927D01*
X123940881Y-130040881D01*
X123868927Y-130128557D01*
X123815460Y-130228586D01*
X123782535Y-130337124D01*
X123771418Y-130450000D01*
X112727000Y-130450000D01*
X112727000Y-130406921D01*
X112714310Y-130278078D01*
X112664162Y-130112763D01*
X112582727Y-129960408D01*
X112473133Y-129826867D01*
X112445569Y-129804246D01*
X113180425Y-129069391D01*
X113185838Y-129087236D01*
X113267273Y-129239591D01*
X113376867Y-129373133D01*
X113510408Y-129482727D01*
X113662763Y-129564162D01*
X113828078Y-129614310D01*
X114000000Y-129631243D01*
X114171921Y-129614310D01*
X114337236Y-129564162D01*
X114489591Y-129482727D01*
X114623133Y-129373133D01*
X114732727Y-129239592D01*
X114814162Y-129087237D01*
X114864310Y-128921922D01*
X114877000Y-128793079D01*
X114877000Y-127606921D01*
X114864310Y-127478078D01*
X114814162Y-127312763D01*
X114732727Y-127160408D01*
X114623133Y-127026867D01*
X114489592Y-126917273D01*
X114337237Y-126835838D01*
X114171922Y-126785690D01*
X114000000Y-126768757D01*
X113828079Y-126785690D01*
X113662764Y-126835838D01*
X113510409Y-126917273D01*
X113376868Y-127026867D01*
X113267274Y-127160408D01*
X113185839Y-127312763D01*
X113135691Y-127478078D01*
X113123001Y-127606921D01*
X113123001Y-127699635D01*
X113096120Y-127707789D01*
X113004012Y-127757022D01*
X112923278Y-127823278D01*
X112906675Y-127843509D01*
X111493514Y-129256671D01*
X111473278Y-129273278D01*
X111407022Y-129354012D01*
X111357789Y-129446121D01*
X111327472Y-129546064D01*
X111319800Y-129623957D01*
X111317235Y-129650000D01*
X111319800Y-129676040D01*
X111319800Y-129750600D01*
X111226868Y-129826867D01*
X111117274Y-129960408D01*
X111035839Y-130112763D01*
X110985691Y-130278078D01*
X110973001Y-130406921D01*
X110973000Y-131593078D01*
X104035000Y-131593078D01*
X104035000Y-130973000D01*
X103980729Y-130675977D01*
X103869554Y-130395249D01*
X103705748Y-130141604D01*
X103495606Y-129924790D01*
X103247204Y-129753138D01*
X102970087Y-129633245D01*
X102864740Y-129608964D01*
X102627000Y-129729622D01*
X102373000Y-129729622D01*
X102135260Y-129608964D01*
X102029913Y-129633245D01*
X101752796Y-129753138D01*
X101504394Y-129924790D01*
X101294252Y-130141604D01*
X101130446Y-130395249D01*
X101019271Y-130675977D01*
X100965000Y-130973000D01*
X100228582Y-130973000D01*
X100228582Y-130450000D01*
X100217465Y-130337124D01*
X100184540Y-130228586D01*
X100131073Y-130128557D01*
X100059119Y-130040881D01*
X99971443Y-129968927D01*
X99871414Y-129915460D01*
X99762876Y-129882535D01*
X99650000Y-129871418D01*
X98350000Y-129871418D01*
X98237124Y-129882535D01*
X98128586Y-129915460D01*
X98028557Y-129968927D01*
X97940881Y-130040881D01*
X97868927Y-130128557D01*
X97815460Y-130228586D01*
X97782535Y-130337124D01*
X97771418Y-130450000D01*
X94152000Y-130450000D01*
X94152000Y-125007461D01*
X94152735Y-125000000D01*
X94149800Y-124970203D01*
X94141109Y-124941551D01*
X94126995Y-124915145D01*
X94108000Y-124892000D01*
X94084855Y-124873005D01*
X94058449Y-124858891D01*
X94029797Y-124850200D01*
X94007462Y-124848000D01*
X94000000Y-124847265D01*
X93992538Y-124848000D01*
X78152000Y-124848000D01*
X78152000Y-122550000D01*
X139717235Y-122550000D01*
X139719800Y-122576040D01*
X139719800Y-122576042D01*
X139727472Y-122653936D01*
X139757789Y-122753879D01*
X139807022Y-122845988D01*
X139873278Y-122926722D01*
X139893514Y-122943329D01*
X145456675Y-128506491D01*
X145473278Y-128526722D01*
X145554012Y-128592978D01*
X145646120Y-128642211D01*
X145746063Y-128672528D01*
X145823957Y-128680200D01*
X145823960Y-128680200D01*
X145850000Y-128682765D01*
X145876040Y-128680200D01*
X153380385Y-128680200D01*
X153419801Y-128719616D01*
X153419800Y-132073957D01*
X153417235Y-132100000D01*
X153419800Y-132126040D01*
X153419800Y-132126042D01*
X153427472Y-132203936D01*
X153457789Y-132303879D01*
X153507022Y-132395988D01*
X153573278Y-132476722D01*
X153593514Y-132493329D01*
X155056675Y-133956491D01*
X155073278Y-133976722D01*
X155154012Y-134042978D01*
X155246120Y-134092211D01*
X155346063Y-134122528D01*
X155423957Y-134130200D01*
X155423959Y-134130200D01*
X155449999Y-134132765D01*
X155476039Y-134130200D01*
X159452066Y-134130200D01*
X159486564Y-134164698D01*
X159605636Y-134244259D01*
X159737942Y-134299062D01*
X159878397Y-134327000D01*
X160021603Y-134327000D01*
X160162058Y-134299062D01*
X160294364Y-134244259D01*
X160413436Y-134164698D01*
X160514698Y-134063436D01*
X160594259Y-133944364D01*
X160649062Y-133812058D01*
X160677000Y-133671603D01*
X160677000Y-133528397D01*
X160649062Y-133387942D01*
X160594259Y-133255636D01*
X160514698Y-133136564D01*
X160413436Y-133035302D01*
X160294364Y-132955741D01*
X160162058Y-132900938D01*
X160021603Y-132873000D01*
X159878397Y-132873000D01*
X159737942Y-132900938D01*
X159605636Y-132955741D01*
X159486564Y-133035302D01*
X159452066Y-133069800D01*
X155669616Y-133069800D01*
X154480200Y-131880385D01*
X154480200Y-128526043D01*
X154482765Y-128500000D01*
X154472528Y-128396062D01*
X154459732Y-128353880D01*
X154442211Y-128296120D01*
X154392978Y-128204012D01*
X154326722Y-128123278D01*
X154306486Y-128106671D01*
X153993329Y-127793514D01*
X153976722Y-127773278D01*
X153895988Y-127707022D01*
X153803880Y-127657789D01*
X153703937Y-127627472D01*
X153626043Y-127619800D01*
X153626040Y-127619800D01*
X153600000Y-127617235D01*
X153573960Y-127619800D01*
X146069616Y-127619800D01*
X140780200Y-122330385D01*
X140780200Y-120750000D01*
X142917235Y-120750000D01*
X142923348Y-120812058D01*
X142927473Y-120853937D01*
X142957790Y-120953880D01*
X143007023Y-121045988D01*
X143073279Y-121126722D01*
X143093510Y-121143325D01*
X148156675Y-126206491D01*
X148173278Y-126226722D01*
X148254012Y-126292978D01*
X148346120Y-126342211D01*
X148446063Y-126372528D01*
X148523957Y-126380200D01*
X148523959Y-126380200D01*
X148549999Y-126382765D01*
X148576039Y-126380200D01*
X155830385Y-126380200D01*
X156019800Y-126569616D01*
X156019801Y-129752065D01*
X155985302Y-129786564D01*
X155905741Y-129905636D01*
X155850938Y-130037942D01*
X155823000Y-130178397D01*
X155823000Y-130321603D01*
X155850938Y-130462058D01*
X155905741Y-130594364D01*
X155985302Y-130713436D01*
X156086564Y-130814698D01*
X156205636Y-130894259D01*
X156337942Y-130949062D01*
X156478397Y-130977000D01*
X156621603Y-130977000D01*
X156762058Y-130949062D01*
X156894364Y-130894259D01*
X157013436Y-130814698D01*
X157114698Y-130713436D01*
X157194259Y-130594364D01*
X157212635Y-130550000D01*
X162871418Y-130550000D01*
X162871418Y-133650000D01*
X162882535Y-133762876D01*
X162915460Y-133871414D01*
X162968927Y-133971443D01*
X163040881Y-134059119D01*
X163128557Y-134131073D01*
X163228586Y-134184540D01*
X163337124Y-134217465D01*
X163450000Y-134228582D01*
X164750000Y-134228582D01*
X164862876Y-134217465D01*
X164971414Y-134184540D01*
X165071443Y-134131073D01*
X165159119Y-134059119D01*
X165231073Y-133971443D01*
X165284540Y-133871414D01*
X165317465Y-133762876D01*
X165328582Y-133650000D01*
X165328582Y-131139733D01*
X166373000Y-131139733D01*
X166373000Y-133060268D01*
X166390756Y-133240534D01*
X166460917Y-133471824D01*
X166574852Y-133684983D01*
X166728184Y-133871817D01*
X166915018Y-134025149D01*
X167069801Y-134107882D01*
X167069801Y-134273950D01*
X167067235Y-134300000D01*
X167077473Y-134403937D01*
X167107790Y-134503880D01*
X167157023Y-134595988D01*
X167223279Y-134676722D01*
X167243510Y-134693325D01*
X171106675Y-138556491D01*
X171123278Y-138576722D01*
X171204012Y-138642978D01*
X171296120Y-138692211D01*
X171396063Y-138722528D01*
X171473957Y-138730200D01*
X171473960Y-138730200D01*
X171500000Y-138732765D01*
X171526040Y-138730200D01*
X191373960Y-138730200D01*
X191400000Y-138732765D01*
X191426040Y-138730200D01*
X191426043Y-138730200D01*
X191503937Y-138722528D01*
X191603880Y-138692211D01*
X191695988Y-138642978D01*
X191776722Y-138576722D01*
X191793329Y-138556486D01*
X192956496Y-137393321D01*
X192976722Y-137376722D01*
X193042978Y-137295988D01*
X193092211Y-137203880D01*
X193122528Y-137103937D01*
X193130200Y-137026043D01*
X193130200Y-137026041D01*
X193132765Y-137000001D01*
X193130200Y-136973961D01*
X193130200Y-119185090D01*
X193220765Y-119110765D01*
X193361600Y-118939157D01*
X193466250Y-118743371D01*
X193530693Y-118530931D01*
X193547000Y-118365365D01*
X193547000Y-117854636D01*
X193547000Y-117854635D01*
X193833000Y-117854635D01*
X193833000Y-118365364D01*
X193849307Y-118530930D01*
X193913750Y-118743370D01*
X194018400Y-118939157D01*
X194159235Y-119110765D01*
X194330843Y-119251600D01*
X194526629Y-119356250D01*
X194739069Y-119420693D01*
X194960000Y-119442453D01*
X195180930Y-119420693D01*
X195393370Y-119356250D01*
X195589157Y-119251600D01*
X195760765Y-119110765D01*
X195901600Y-118939157D01*
X196006250Y-118743371D01*
X196070693Y-118530931D01*
X196087000Y-118365365D01*
X196087000Y-117854636D01*
X196087000Y-117854635D01*
X196373000Y-117854635D01*
X196373000Y-118365364D01*
X196389307Y-118530930D01*
X196453750Y-118743370D01*
X196558400Y-118939157D01*
X196699235Y-119110765D01*
X196870843Y-119251600D01*
X197066629Y-119356250D01*
X197279069Y-119420693D01*
X197500000Y-119442453D01*
X197720930Y-119420693D01*
X197933370Y-119356250D01*
X198129157Y-119251600D01*
X198300765Y-119110765D01*
X198441600Y-118939157D01*
X198546250Y-118743371D01*
X198610693Y-118530931D01*
X198627000Y-118365365D01*
X198627000Y-117854636D01*
X198610693Y-117689070D01*
X198546250Y-117476630D01*
X198441600Y-117280843D01*
X198300765Y-117109235D01*
X198129157Y-116968400D01*
X197933371Y-116863750D01*
X197720931Y-116799307D01*
X197500000Y-116777547D01*
X197279070Y-116799307D01*
X197066630Y-116863750D01*
X196870844Y-116968400D01*
X196699236Y-117109235D01*
X196558401Y-117280843D01*
X196453750Y-117476629D01*
X196389307Y-117689069D01*
X196373000Y-117854635D01*
X196087000Y-117854635D01*
X196070693Y-117689070D01*
X196006250Y-117476630D01*
X195901600Y-117280843D01*
X195760765Y-117109235D01*
X195589157Y-116968400D01*
X195393371Y-116863750D01*
X195180931Y-116799307D01*
X194960000Y-116777547D01*
X194739070Y-116799307D01*
X194526630Y-116863750D01*
X194330844Y-116968400D01*
X194159236Y-117109235D01*
X194018401Y-117280843D01*
X193913750Y-117476629D01*
X193849307Y-117689069D01*
X193833000Y-117854635D01*
X193547000Y-117854635D01*
X193530693Y-117689070D01*
X193466250Y-117476630D01*
X193361600Y-117280843D01*
X193220765Y-117109235D01*
X193049157Y-116968400D01*
X192853371Y-116863750D01*
X192640931Y-116799307D01*
X192420000Y-116777547D01*
X192199070Y-116799307D01*
X191986630Y-116863750D01*
X191790844Y-116968400D01*
X191619236Y-117109235D01*
X191478401Y-117280843D01*
X191373750Y-117476629D01*
X191309307Y-117689069D01*
X191293000Y-117854635D01*
X191293000Y-118365364D01*
X191309307Y-118530930D01*
X191373750Y-118743370D01*
X191478400Y-118939157D01*
X191619235Y-119110765D01*
X191790843Y-119251600D01*
X191986629Y-119356250D01*
X192069801Y-119381480D01*
X192069800Y-136780383D01*
X191180385Y-137669800D01*
X171719616Y-137669800D01*
X168148119Y-134098304D01*
X168284983Y-134025149D01*
X168471817Y-133871817D01*
X168625149Y-133684983D01*
X168739084Y-133471824D01*
X168809245Y-133240534D01*
X168827000Y-133060268D01*
X168827000Y-131139733D01*
X169873000Y-131139733D01*
X169873000Y-133060268D01*
X169890756Y-133240534D01*
X169960917Y-133471824D01*
X170074852Y-133684983D01*
X170228184Y-133871817D01*
X170415018Y-134025149D01*
X170628177Y-134139084D01*
X170859467Y-134209245D01*
X171100000Y-134232936D01*
X171340534Y-134209245D01*
X171571824Y-134139084D01*
X171784983Y-134025149D01*
X171971817Y-133871817D01*
X172125149Y-133684983D01*
X172239084Y-133471824D01*
X172309245Y-133240534D01*
X172327000Y-133060268D01*
X172327000Y-131139733D01*
X173373000Y-131139733D01*
X173373000Y-133060268D01*
X173390756Y-133240534D01*
X173460917Y-133471824D01*
X173574852Y-133684983D01*
X173728184Y-133871817D01*
X173915018Y-134025149D01*
X174069801Y-134107881D01*
X174069801Y-135673950D01*
X174067235Y-135700000D01*
X174077085Y-135799999D01*
X174077473Y-135803937D01*
X174107790Y-135903880D01*
X174157023Y-135995988D01*
X174223279Y-136076722D01*
X174243510Y-136093325D01*
X174306671Y-136156486D01*
X174323278Y-136176722D01*
X174404012Y-136242978D01*
X174496120Y-136292211D01*
X174596063Y-136322528D01*
X174673957Y-136330200D01*
X174673959Y-136330200D01*
X174699999Y-136332765D01*
X174726039Y-136330200D01*
X191073957Y-136330200D01*
X191100000Y-136332765D01*
X191126042Y-136330200D01*
X191126043Y-136330200D01*
X191203937Y-136322528D01*
X191303880Y-136292211D01*
X191395988Y-136242978D01*
X191476722Y-136176722D01*
X191542978Y-136095988D01*
X191592211Y-136003880D01*
X191622528Y-135903937D01*
X191632765Y-135800000D01*
X191630200Y-135773957D01*
X191630200Y-127426043D01*
X191632765Y-127400000D01*
X191622528Y-127296062D01*
X191613331Y-127265745D01*
X191592211Y-127196120D01*
X191542978Y-127104012D01*
X191476722Y-127023278D01*
X191456491Y-127006675D01*
X190410200Y-125960385D01*
X190410200Y-119304493D01*
X190509157Y-119251600D01*
X190680765Y-119110765D01*
X190821600Y-118939157D01*
X190926250Y-118743371D01*
X190990693Y-118530931D01*
X191007000Y-118365365D01*
X191007000Y-117854636D01*
X190990693Y-117689070D01*
X190926250Y-117476630D01*
X190821600Y-117280843D01*
X190680765Y-117109235D01*
X190509157Y-116968400D01*
X190410200Y-116915506D01*
X190410200Y-115939615D01*
X190969616Y-115380200D01*
X200380385Y-115380200D01*
X201119801Y-116119618D01*
X201119800Y-120702066D01*
X201085302Y-120736564D01*
X201005741Y-120855636D01*
X200950938Y-120987942D01*
X200923000Y-121128397D01*
X200923000Y-121271603D01*
X200950938Y-121412058D01*
X201005741Y-121544364D01*
X201085302Y-121663436D01*
X201186564Y-121764698D01*
X201305636Y-121844259D01*
X201437942Y-121899062D01*
X201578397Y-121927000D01*
X201721603Y-121927000D01*
X201862058Y-121899062D01*
X201994364Y-121844259D01*
X202113436Y-121764698D01*
X202214698Y-121663436D01*
X202294259Y-121544364D01*
X202349062Y-121412058D01*
X202377000Y-121271603D01*
X202377000Y-121128397D01*
X202349062Y-120987942D01*
X202294259Y-120855636D01*
X202214698Y-120736564D01*
X202180200Y-120702066D01*
X202180200Y-115926039D01*
X202182765Y-115899999D01*
X202180200Y-115873957D01*
X202172528Y-115796063D01*
X202142211Y-115696120D01*
X202092978Y-115604012D01*
X202026722Y-115523278D01*
X202006496Y-115506679D01*
X200993329Y-114493514D01*
X200976722Y-114473278D01*
X200895988Y-114407022D01*
X200803880Y-114357789D01*
X200703937Y-114327472D01*
X200626043Y-114319800D01*
X200626040Y-114319800D01*
X200600000Y-114317235D01*
X200573960Y-114319800D01*
X190776043Y-114319800D01*
X190750000Y-114317235D01*
X190646062Y-114327472D01*
X190615745Y-114336669D01*
X190546120Y-114357789D01*
X190454012Y-114407022D01*
X190373278Y-114473278D01*
X190356675Y-114493509D01*
X189523514Y-115326671D01*
X189503278Y-115343278D01*
X189437022Y-115424012D01*
X189387789Y-115516121D01*
X189357472Y-115616064D01*
X189349800Y-115693957D01*
X189347235Y-115720000D01*
X189349800Y-115746040D01*
X189349801Y-116915507D01*
X189250844Y-116968400D01*
X189079236Y-117109235D01*
X188938401Y-117280843D01*
X188833750Y-117476629D01*
X188769307Y-117689069D01*
X188753000Y-117854635D01*
X188753000Y-118365364D01*
X188769307Y-118530930D01*
X188833750Y-118743370D01*
X188938400Y-118939157D01*
X189079235Y-119110765D01*
X189250843Y-119251600D01*
X189349801Y-119304494D01*
X189349800Y-126153960D01*
X189347235Y-126180000D01*
X189349800Y-126206040D01*
X189349800Y-126206042D01*
X189357472Y-126283936D01*
X189387789Y-126383879D01*
X189437022Y-126475988D01*
X189503278Y-126556722D01*
X189523514Y-126573329D01*
X190569801Y-127619617D01*
X190569800Y-135269800D01*
X175130200Y-135269800D01*
X175130200Y-134107882D01*
X175284983Y-134025149D01*
X175471817Y-133871817D01*
X175625149Y-133684983D01*
X175739084Y-133471824D01*
X175809245Y-133240534D01*
X175827000Y-133060268D01*
X175827000Y-131139733D01*
X176873000Y-131139733D01*
X176873000Y-133060268D01*
X176890756Y-133240534D01*
X176960917Y-133471824D01*
X177074852Y-133684983D01*
X177228184Y-133871817D01*
X177415018Y-134025149D01*
X177628177Y-134139084D01*
X177859467Y-134209245D01*
X178100000Y-134232936D01*
X178340534Y-134209245D01*
X178571824Y-134139084D01*
X178784983Y-134025149D01*
X178971817Y-133871817D01*
X179125149Y-133684983D01*
X179239084Y-133471824D01*
X179309245Y-133240534D01*
X179327000Y-133060268D01*
X179327000Y-131139733D01*
X180373000Y-131139733D01*
X180373000Y-133060268D01*
X180390756Y-133240534D01*
X180460917Y-133471824D01*
X180574852Y-133684983D01*
X180728184Y-133871817D01*
X180915018Y-134025149D01*
X181128177Y-134139084D01*
X181359467Y-134209245D01*
X181600000Y-134232936D01*
X181840534Y-134209245D01*
X182071824Y-134139084D01*
X182284983Y-134025149D01*
X182471817Y-133871817D01*
X182625149Y-133684983D01*
X182739084Y-133471824D01*
X182809245Y-133240534D01*
X182827000Y-133060268D01*
X182827000Y-131139733D01*
X183873000Y-131139733D01*
X183873000Y-133060268D01*
X183890756Y-133240534D01*
X183960917Y-133471824D01*
X184074852Y-133684983D01*
X184228184Y-133871817D01*
X184415018Y-134025149D01*
X184628177Y-134139084D01*
X184859467Y-134209245D01*
X185100000Y-134232936D01*
X185340534Y-134209245D01*
X185571824Y-134139084D01*
X185784983Y-134025149D01*
X185971817Y-133871817D01*
X186125149Y-133684983D01*
X186239084Y-133471824D01*
X186309245Y-133240534D01*
X186327000Y-133060268D01*
X186327000Y-131139733D01*
X187373000Y-131139733D01*
X187373000Y-133060268D01*
X187390756Y-133240534D01*
X187460917Y-133471824D01*
X187574852Y-133684983D01*
X187728184Y-133871817D01*
X187915018Y-134025149D01*
X188128177Y-134139084D01*
X188359467Y-134209245D01*
X188600000Y-134232936D01*
X188840534Y-134209245D01*
X189071824Y-134139084D01*
X189284983Y-134025149D01*
X189471817Y-133871817D01*
X189625149Y-133684983D01*
X189739084Y-133471824D01*
X189809245Y-133240534D01*
X189827000Y-133060268D01*
X189827000Y-131139732D01*
X189809245Y-130959466D01*
X189739084Y-130728176D01*
X189625149Y-130515017D01*
X189471817Y-130328183D01*
X189284982Y-130174851D01*
X189071823Y-130060916D01*
X188840533Y-129990755D01*
X188600000Y-129967064D01*
X188359466Y-129990755D01*
X188128176Y-130060916D01*
X187915017Y-130174851D01*
X187728183Y-130328183D01*
X187574851Y-130515018D01*
X187460916Y-130728177D01*
X187390755Y-130959467D01*
X187373000Y-131139733D01*
X186327000Y-131139733D01*
X186327000Y-131139732D01*
X186309245Y-130959466D01*
X186239084Y-130728176D01*
X186125149Y-130515017D01*
X185971817Y-130328183D01*
X185784982Y-130174851D01*
X185571823Y-130060916D01*
X185340533Y-129990755D01*
X185100000Y-129967064D01*
X184859466Y-129990755D01*
X184628176Y-130060916D01*
X184415017Y-130174851D01*
X184228183Y-130328183D01*
X184074851Y-130515018D01*
X183960916Y-130728177D01*
X183890755Y-130959467D01*
X183873000Y-131139733D01*
X182827000Y-131139733D01*
X182827000Y-131139732D01*
X182809245Y-130959466D01*
X182739084Y-130728176D01*
X182625149Y-130515017D01*
X182471817Y-130328183D01*
X182284982Y-130174851D01*
X182071823Y-130060916D01*
X181840533Y-129990755D01*
X181600000Y-129967064D01*
X181359466Y-129990755D01*
X181128176Y-130060916D01*
X180915017Y-130174851D01*
X180728183Y-130328183D01*
X180574851Y-130515018D01*
X180460916Y-130728177D01*
X180390755Y-130959467D01*
X180373000Y-131139733D01*
X179327000Y-131139733D01*
X179327000Y-131139732D01*
X179309245Y-130959466D01*
X179239084Y-130728176D01*
X179125149Y-130515017D01*
X178971817Y-130328183D01*
X178784982Y-130174851D01*
X178571823Y-130060916D01*
X178340533Y-129990755D01*
X178100000Y-129967064D01*
X177859466Y-129990755D01*
X177628176Y-130060916D01*
X177415017Y-130174851D01*
X177228183Y-130328183D01*
X177074851Y-130515018D01*
X176960916Y-130728177D01*
X176890755Y-130959467D01*
X176873000Y-131139733D01*
X175827000Y-131139733D01*
X175827000Y-131139732D01*
X175809245Y-130959466D01*
X175739084Y-130728176D01*
X175625149Y-130515017D01*
X175471817Y-130328183D01*
X175284982Y-130174851D01*
X175071823Y-130060916D01*
X174840533Y-129990755D01*
X174600000Y-129967064D01*
X174359466Y-129990755D01*
X174128176Y-130060916D01*
X173915017Y-130174851D01*
X173728183Y-130328183D01*
X173574851Y-130515018D01*
X173460916Y-130728177D01*
X173390755Y-130959467D01*
X173373000Y-131139733D01*
X172327000Y-131139733D01*
X172327000Y-131139732D01*
X172309245Y-130959466D01*
X172239084Y-130728176D01*
X172125149Y-130515017D01*
X171971817Y-130328183D01*
X171784982Y-130174851D01*
X171571823Y-130060916D01*
X171340533Y-129990755D01*
X171100000Y-129967064D01*
X170859466Y-129990755D01*
X170628176Y-130060916D01*
X170415017Y-130174851D01*
X170228183Y-130328183D01*
X170074851Y-130515018D01*
X169960916Y-130728177D01*
X169890755Y-130959467D01*
X169873000Y-131139733D01*
X168827000Y-131139733D01*
X168827000Y-131139732D01*
X168809245Y-130959466D01*
X168739084Y-130728176D01*
X168625149Y-130515017D01*
X168471817Y-130328183D01*
X168284982Y-130174851D01*
X168071823Y-130060916D01*
X167840533Y-129990755D01*
X167600000Y-129967064D01*
X167359466Y-129990755D01*
X167128176Y-130060916D01*
X166915017Y-130174851D01*
X166728183Y-130328183D01*
X166574851Y-130515018D01*
X166460916Y-130728177D01*
X166390755Y-130959467D01*
X166373000Y-131139733D01*
X165328582Y-131139733D01*
X165328582Y-130550000D01*
X165317465Y-130437124D01*
X165284540Y-130328586D01*
X165231073Y-130228557D01*
X165159119Y-130140881D01*
X165071443Y-130068927D01*
X164971414Y-130015460D01*
X164862876Y-129982535D01*
X164750000Y-129971418D01*
X163450000Y-129971418D01*
X163337124Y-129982535D01*
X163228586Y-130015460D01*
X163128557Y-130068927D01*
X163040881Y-130140881D01*
X162968927Y-130228557D01*
X162915460Y-130328586D01*
X162882535Y-130437124D01*
X162871418Y-130550000D01*
X157212635Y-130550000D01*
X157249062Y-130462058D01*
X157277000Y-130321603D01*
X157277000Y-130178397D01*
X157249062Y-130037942D01*
X157194259Y-129905636D01*
X157114698Y-129786564D01*
X157080200Y-129752066D01*
X157080200Y-126376043D01*
X157082765Y-126350000D01*
X157072528Y-126246062D01*
X157042211Y-126146121D01*
X157042211Y-126146120D01*
X156992978Y-126054012D01*
X156926722Y-125973278D01*
X156906491Y-125956675D01*
X156443329Y-125493514D01*
X156426722Y-125473278D01*
X156345988Y-125407022D01*
X156253880Y-125357789D01*
X156153937Y-125327472D01*
X156076043Y-125319800D01*
X156076040Y-125319800D01*
X156050000Y-125317235D01*
X156023960Y-125319800D01*
X148769616Y-125319800D01*
X143980200Y-120530385D01*
X143980200Y-97778397D01*
X145823000Y-97778397D01*
X145823000Y-97921603D01*
X145850938Y-98062058D01*
X145905741Y-98194364D01*
X145985302Y-98313436D01*
X146019801Y-98347935D01*
X146019800Y-110126042D01*
X146019801Y-110126052D01*
X146019800Y-118323960D01*
X146017235Y-118350000D01*
X146019800Y-118376040D01*
X146019800Y-118376042D01*
X146027472Y-118453936D01*
X146057789Y-118553879D01*
X146107022Y-118645988D01*
X146173278Y-118726722D01*
X146193514Y-118743329D01*
X150906675Y-123456491D01*
X150923278Y-123476722D01*
X151004012Y-123542978D01*
X151096120Y-123592211D01*
X151196063Y-123622528D01*
X151273957Y-123630200D01*
X151273959Y-123630200D01*
X151299999Y-123632765D01*
X151326039Y-123630200D01*
X159752066Y-123630200D01*
X159786564Y-123664698D01*
X159905636Y-123744259D01*
X160037942Y-123799062D01*
X160178397Y-123827000D01*
X160321603Y-123827000D01*
X160462058Y-123799062D01*
X160594364Y-123744259D01*
X160713436Y-123664698D01*
X160814698Y-123563436D01*
X160894259Y-123444364D01*
X160949062Y-123312058D01*
X160977000Y-123171603D01*
X160977000Y-123028397D01*
X160949062Y-122887942D01*
X160894259Y-122755636D01*
X160814698Y-122636564D01*
X160713436Y-122535302D01*
X160594364Y-122455741D01*
X160462058Y-122400938D01*
X160321603Y-122373000D01*
X160178397Y-122373000D01*
X160037942Y-122400938D01*
X159905636Y-122455741D01*
X159786564Y-122535302D01*
X159752066Y-122569800D01*
X151519616Y-122569800D01*
X149478213Y-120528397D01*
X154673000Y-120528397D01*
X154673000Y-120671603D01*
X154700938Y-120812058D01*
X154755741Y-120944364D01*
X154835302Y-121063436D01*
X154936564Y-121164698D01*
X155055636Y-121244259D01*
X155187942Y-121299062D01*
X155328397Y-121327000D01*
X155471603Y-121327000D01*
X155612058Y-121299062D01*
X155744364Y-121244259D01*
X155863436Y-121164698D01*
X155964698Y-121063436D01*
X156044259Y-120944364D01*
X156099062Y-120812058D01*
X156127000Y-120671603D01*
X156127000Y-120622815D01*
X158019616Y-118730200D01*
X169873960Y-118730200D01*
X169900000Y-118732765D01*
X169926040Y-118730200D01*
X169926043Y-118730200D01*
X170003937Y-118722528D01*
X170103880Y-118692211D01*
X170195988Y-118642978D01*
X170276722Y-118576722D01*
X170293329Y-118556486D01*
X171471418Y-117378397D01*
X174573000Y-117378397D01*
X174573000Y-117521603D01*
X174600938Y-117662058D01*
X174655741Y-117794364D01*
X174735302Y-117913436D01*
X174769800Y-117947934D01*
X174769801Y-121423950D01*
X174767235Y-121450000D01*
X174776530Y-121544364D01*
X174777473Y-121553937D01*
X174807790Y-121653880D01*
X174857023Y-121745988D01*
X174923279Y-121826722D01*
X174943510Y-121843325D01*
X175256671Y-122156486D01*
X175273278Y-122176722D01*
X175354012Y-122242978D01*
X175446120Y-122292211D01*
X175515745Y-122313331D01*
X175546062Y-122322528D01*
X175650000Y-122332765D01*
X175676043Y-122330200D01*
X182430385Y-122330200D01*
X182736025Y-122635841D01*
X182735302Y-122636564D01*
X182655741Y-122755636D01*
X182600938Y-122887942D01*
X182573000Y-123028397D01*
X182573000Y-123171603D01*
X182600938Y-123312058D01*
X182655741Y-123444364D01*
X182735302Y-123563436D01*
X182836564Y-123664698D01*
X182955636Y-123744259D01*
X183087942Y-123799062D01*
X183228397Y-123827000D01*
X183371603Y-123827000D01*
X183512058Y-123799062D01*
X183644364Y-123744259D01*
X183763436Y-123664698D01*
X183864698Y-123563436D01*
X183944259Y-123444364D01*
X183999062Y-123312058D01*
X184027000Y-123171603D01*
X184027000Y-123028397D01*
X183999062Y-122887942D01*
X183944259Y-122755636D01*
X183864698Y-122636564D01*
X183830200Y-122602066D01*
X183830200Y-122476043D01*
X183832765Y-122450000D01*
X183822528Y-122346062D01*
X183806192Y-122292210D01*
X183792211Y-122246120D01*
X183742978Y-122154012D01*
X183676722Y-122073278D01*
X183656491Y-122056675D01*
X183043329Y-121443514D01*
X183026722Y-121423278D01*
X182945988Y-121357022D01*
X182853880Y-121307789D01*
X182753937Y-121277472D01*
X182676043Y-121269800D01*
X182676040Y-121269800D01*
X182650000Y-121267235D01*
X182623960Y-121269800D01*
X175869615Y-121269800D01*
X175830200Y-121230385D01*
X175830200Y-117947934D01*
X175864698Y-117913436D01*
X175903987Y-117854635D01*
X178593000Y-117854635D01*
X178593000Y-118365364D01*
X178609307Y-118530930D01*
X178673750Y-118743370D01*
X178778400Y-118939157D01*
X178919235Y-119110765D01*
X179090843Y-119251600D01*
X179286629Y-119356250D01*
X179499069Y-119420693D01*
X179720000Y-119442453D01*
X179940930Y-119420693D01*
X180153370Y-119356250D01*
X180349157Y-119251600D01*
X180520765Y-119110765D01*
X180661600Y-118939157D01*
X180766250Y-118743371D01*
X180830693Y-118530931D01*
X180834391Y-118493390D01*
X180885404Y-118739306D01*
X180995570Y-118999227D01*
X181154327Y-119232662D01*
X181355575Y-119430639D01*
X181591579Y-119585551D01*
X181853270Y-119691444D01*
X181910961Y-119701904D01*
X182133000Y-119579915D01*
X182133000Y-118237000D01*
X182113000Y-118237000D01*
X182113000Y-117983000D01*
X182133000Y-117983000D01*
X182133000Y-116640085D01*
X182387000Y-116640085D01*
X182387000Y-117983000D01*
X182407000Y-117983000D01*
X182407000Y-118237000D01*
X182387000Y-118237000D01*
X182387000Y-119579915D01*
X182609039Y-119701904D01*
X182666730Y-119691444D01*
X182928421Y-119585551D01*
X183164425Y-119430639D01*
X183365673Y-119232662D01*
X183524430Y-118999227D01*
X183634596Y-118739306D01*
X183685610Y-118493390D01*
X183689307Y-118530930D01*
X183753750Y-118743370D01*
X183858400Y-118939157D01*
X183999235Y-119110765D01*
X184170843Y-119251600D01*
X184366629Y-119356250D01*
X184579069Y-119420693D01*
X184800000Y-119442453D01*
X185020930Y-119420693D01*
X185233370Y-119356250D01*
X185429157Y-119251600D01*
X185600765Y-119110765D01*
X185741600Y-118939157D01*
X185846250Y-118743371D01*
X185910693Y-118530931D01*
X185927000Y-118365365D01*
X185927000Y-117854636D01*
X185927000Y-117854635D01*
X186213000Y-117854635D01*
X186213000Y-118365364D01*
X186229307Y-118530930D01*
X186293750Y-118743370D01*
X186398400Y-118939157D01*
X186539235Y-119110765D01*
X186710843Y-119251600D01*
X186906629Y-119356250D01*
X187119069Y-119420693D01*
X187340000Y-119442453D01*
X187560930Y-119420693D01*
X187773370Y-119356250D01*
X187969157Y-119251600D01*
X188140765Y-119110765D01*
X188281600Y-118939157D01*
X188386250Y-118743371D01*
X188450693Y-118530931D01*
X188467000Y-118365365D01*
X188467000Y-117854636D01*
X188450693Y-117689070D01*
X188386250Y-117476630D01*
X188281600Y-117280843D01*
X188140765Y-117109235D01*
X187969157Y-116968400D01*
X187773371Y-116863750D01*
X187560931Y-116799307D01*
X187340000Y-116777547D01*
X187119070Y-116799307D01*
X186906630Y-116863750D01*
X186710844Y-116968400D01*
X186539236Y-117109235D01*
X186398401Y-117280843D01*
X186293750Y-117476629D01*
X186229307Y-117689069D01*
X186213000Y-117854635D01*
X185927000Y-117854635D01*
X185910693Y-117689070D01*
X185846250Y-117476630D01*
X185741600Y-117280843D01*
X185600765Y-117109235D01*
X185429157Y-116968400D01*
X185233371Y-116863750D01*
X185020931Y-116799307D01*
X184800000Y-116777547D01*
X184579070Y-116799307D01*
X184366630Y-116863750D01*
X184170844Y-116968400D01*
X183999236Y-117109235D01*
X183858401Y-117280843D01*
X183753750Y-117476629D01*
X183689307Y-117689069D01*
X183685609Y-117726610D01*
X183634596Y-117480694D01*
X183524430Y-117220773D01*
X183365673Y-116987338D01*
X183164425Y-116789361D01*
X182928421Y-116634449D01*
X182666730Y-116528556D01*
X182609039Y-116518096D01*
X182387000Y-116640085D01*
X182133000Y-116640085D01*
X181910961Y-116518096D01*
X181853270Y-116528556D01*
X181591579Y-116634449D01*
X181355575Y-116789361D01*
X181154327Y-116987338D01*
X180995570Y-117220773D01*
X180885404Y-117480694D01*
X180834390Y-117726610D01*
X180830693Y-117689070D01*
X180766250Y-117476630D01*
X180682000Y-117319009D01*
X180682000Y-116778472D01*
X184398473Y-113062000D01*
X202302750Y-113062000D01*
X202350000Y-113066654D01*
X202397250Y-113062000D01*
X202397253Y-113062000D01*
X202538585Y-113048080D01*
X202719922Y-112993072D01*
X202887044Y-112903743D01*
X203033528Y-112783528D01*
X203063658Y-112746814D01*
X205996819Y-109813654D01*
X206033528Y-109783528D01*
X206153743Y-109637044D01*
X206243072Y-109469922D01*
X206298080Y-109288585D01*
X206312000Y-109147253D01*
X206312000Y-109147250D01*
X206316654Y-109100000D01*
X206312000Y-109052750D01*
X206312000Y-94810207D01*
X210573000Y-94810207D01*
X210573000Y-95189793D01*
X210647053Y-95562085D01*
X210792315Y-95912777D01*
X211003201Y-96228391D01*
X211271609Y-96496799D01*
X211587223Y-96707685D01*
X211937915Y-96852947D01*
X212310207Y-96927000D01*
X212689793Y-96927000D01*
X213062085Y-96852947D01*
X213412777Y-96707685D01*
X213728391Y-96496799D01*
X213996799Y-96228391D01*
X214207685Y-95912777D01*
X214352947Y-95562085D01*
X214427000Y-95189793D01*
X214427000Y-94810207D01*
X214352947Y-94437915D01*
X214207685Y-94087223D01*
X213996799Y-93771609D01*
X213728391Y-93503201D01*
X213412777Y-93292315D01*
X213062085Y-93147053D01*
X212689793Y-93073000D01*
X212310207Y-93073000D01*
X211937915Y-93147053D01*
X211587223Y-93292315D01*
X211271609Y-93503201D01*
X211003201Y-93771609D01*
X210792315Y-94087223D01*
X210647053Y-94437915D01*
X210573000Y-94810207D01*
X206312000Y-94810207D01*
X206312000Y-71297249D01*
X206316654Y-71249999D01*
X206312000Y-71202747D01*
X206298080Y-71061415D01*
X206243072Y-70880078D01*
X206243071Y-70880076D01*
X206153743Y-70712955D01*
X206109896Y-70659528D01*
X206033528Y-70566472D01*
X205996819Y-70536346D01*
X202063658Y-66603186D01*
X202033528Y-66566472D01*
X201887044Y-66446257D01*
X201719922Y-66356928D01*
X201538585Y-66301920D01*
X201397253Y-66288000D01*
X201397250Y-66288000D01*
X201350000Y-66283346D01*
X201302750Y-66288000D01*
X188486817Y-66288000D01*
X188430748Y-66204087D01*
X188245913Y-66019252D01*
X188028570Y-65874028D01*
X187787072Y-65773996D01*
X187530698Y-65723000D01*
X187269302Y-65723000D01*
X187012928Y-65773996D01*
X186771430Y-65874028D01*
X186554087Y-66019252D01*
X186369252Y-66204087D01*
X186224028Y-66421430D01*
X186123996Y-66662928D01*
X186073000Y-66919302D01*
X186073000Y-67180698D01*
X186123996Y-67437072D01*
X186224028Y-67678570D01*
X186369252Y-67895913D01*
X186554087Y-68080748D01*
X186771430Y-68225972D01*
X187012928Y-68326004D01*
X187269302Y-68377000D01*
X187530698Y-68377000D01*
X187787072Y-68326004D01*
X188028570Y-68225972D01*
X188049481Y-68212000D01*
X200951528Y-68212000D01*
X204388001Y-71648474D01*
X204388000Y-108701527D01*
X201951528Y-111138000D01*
X184047249Y-111138000D01*
X183999999Y-111133346D01*
X183952749Y-111138000D01*
X183952747Y-111138000D01*
X183811415Y-111151920D01*
X183630078Y-111206928D01*
X183556757Y-111246119D01*
X183462955Y-111296257D01*
X183409528Y-111340104D01*
X183316472Y-111416472D01*
X183286346Y-111453181D01*
X179073182Y-115666346D01*
X179036473Y-115696472D01*
X178969685Y-115777854D01*
X178916257Y-115842956D01*
X178830211Y-116003937D01*
X178826929Y-116010078D01*
X178798475Y-116103880D01*
X178771921Y-116191416D01*
X178753346Y-116380000D01*
X178758001Y-116427260D01*
X178758000Y-117319009D01*
X178673750Y-117476629D01*
X178609307Y-117689069D01*
X178593000Y-117854635D01*
X175903987Y-117854635D01*
X175944259Y-117794364D01*
X175999062Y-117662058D01*
X176027000Y-117521603D01*
X176027000Y-117378397D01*
X175999062Y-117237942D01*
X175944259Y-117105636D01*
X175864698Y-116986564D01*
X175763436Y-116885302D01*
X175644364Y-116805741D01*
X175512058Y-116750938D01*
X175371603Y-116723000D01*
X175228397Y-116723000D01*
X175087942Y-116750938D01*
X174955636Y-116805741D01*
X174836564Y-116885302D01*
X174735302Y-116986564D01*
X174655741Y-117105636D01*
X174600938Y-117237942D01*
X174573000Y-117378397D01*
X171471418Y-117378397D01*
X176869616Y-111980200D01*
X179873960Y-111980200D01*
X179900000Y-111982765D01*
X179926040Y-111980200D01*
X179926043Y-111980200D01*
X180003937Y-111972528D01*
X180103880Y-111942211D01*
X180195988Y-111892978D01*
X180276722Y-111826722D01*
X180293329Y-111806486D01*
X190236491Y-101863325D01*
X190256722Y-101846722D01*
X190322978Y-101765988D01*
X190372211Y-101673880D01*
X190402528Y-101573937D01*
X190410200Y-101496043D01*
X190410200Y-101496041D01*
X190412765Y-101470001D01*
X190410200Y-101443961D01*
X190410200Y-96444493D01*
X190509157Y-96391600D01*
X190680765Y-96250765D01*
X190821600Y-96079157D01*
X190926250Y-95883371D01*
X190990693Y-95670931D01*
X191007000Y-95505365D01*
X191007000Y-94994636D01*
X191007000Y-94994635D01*
X191293000Y-94994635D01*
X191293000Y-95505364D01*
X191309307Y-95670930D01*
X191373750Y-95883370D01*
X191478400Y-96079157D01*
X191619235Y-96250765D01*
X191790843Y-96391600D01*
X191889800Y-96444494D01*
X191889800Y-97155426D01*
X191877473Y-97196063D01*
X191867235Y-97300000D01*
X191877473Y-97403937D01*
X191907790Y-97503880D01*
X191957023Y-97595988D01*
X192004534Y-97653880D01*
X192023279Y-97676721D01*
X192043505Y-97693320D01*
X192156671Y-97806486D01*
X192173278Y-97826722D01*
X192254012Y-97892978D01*
X192346120Y-97942211D01*
X192446063Y-97972528D01*
X192523957Y-97980200D01*
X192523959Y-97980200D01*
X192549999Y-97982765D01*
X192576039Y-97980200D01*
X197473958Y-97980200D01*
X197500000Y-97982765D01*
X197603937Y-97972528D01*
X197703880Y-97942211D01*
X197795988Y-97892978D01*
X197876722Y-97826722D01*
X197942978Y-97745988D01*
X197992211Y-97653880D01*
X198022528Y-97553937D01*
X198030200Y-97476043D01*
X198032765Y-97450000D01*
X198030200Y-97423957D01*
X198030200Y-96578582D01*
X198500000Y-96578582D01*
X198564103Y-96572268D01*
X198625743Y-96553570D01*
X198682550Y-96523206D01*
X198732343Y-96482343D01*
X198773206Y-96432550D01*
X198803570Y-96375743D01*
X198822268Y-96314103D01*
X198828582Y-96250000D01*
X198828582Y-94250000D01*
X198822268Y-94185897D01*
X198803570Y-94124257D01*
X198773206Y-94067450D01*
X198732343Y-94017657D01*
X198682550Y-93976794D01*
X198625743Y-93946430D01*
X198564103Y-93927732D01*
X198500000Y-93921418D01*
X196500000Y-93921418D01*
X196435897Y-93927732D01*
X196374257Y-93946430D01*
X196317450Y-93976794D01*
X196267657Y-94017657D01*
X196226794Y-94067450D01*
X196196430Y-94124257D01*
X196177732Y-94185897D01*
X196171418Y-94250000D01*
X196171418Y-96250000D01*
X196177732Y-96314103D01*
X196196430Y-96375743D01*
X196226794Y-96432550D01*
X196267657Y-96482343D01*
X196317450Y-96523206D01*
X196374257Y-96553570D01*
X196435897Y-96572268D01*
X196500000Y-96578582D01*
X196969801Y-96578582D01*
X196969801Y-96919800D01*
X192950200Y-96919800D01*
X192950200Y-96444493D01*
X193049157Y-96391600D01*
X193220765Y-96250765D01*
X193361600Y-96079157D01*
X193466250Y-95883371D01*
X193530693Y-95670931D01*
X193547000Y-95505365D01*
X193547000Y-94994636D01*
X193530693Y-94829070D01*
X193466250Y-94616630D01*
X193361600Y-94420843D01*
X193220765Y-94249235D01*
X193049157Y-94108400D01*
X192853371Y-94003750D01*
X192640931Y-93939307D01*
X192420000Y-93917547D01*
X192199070Y-93939307D01*
X191986630Y-94003750D01*
X191790844Y-94108400D01*
X191619236Y-94249235D01*
X191478401Y-94420843D01*
X191373750Y-94616629D01*
X191309307Y-94829069D01*
X191293000Y-94994635D01*
X191007000Y-94994635D01*
X190990693Y-94829070D01*
X190926250Y-94616630D01*
X190821600Y-94420843D01*
X190680765Y-94249235D01*
X190509157Y-94108400D01*
X190313371Y-94003750D01*
X190100931Y-93939307D01*
X189880000Y-93917547D01*
X189659070Y-93939307D01*
X189446630Y-94003750D01*
X189250844Y-94108400D01*
X189079236Y-94249235D01*
X188938401Y-94420843D01*
X188833750Y-94616629D01*
X188769307Y-94829069D01*
X188753000Y-94994635D01*
X188753000Y-95505364D01*
X188769307Y-95670930D01*
X188833750Y-95883370D01*
X188938400Y-96079157D01*
X189079235Y-96250765D01*
X189250843Y-96391600D01*
X189349801Y-96444494D01*
X189349800Y-101250384D01*
X179680385Y-110919800D01*
X176676043Y-110919800D01*
X176650000Y-110917235D01*
X176546062Y-110927472D01*
X176515745Y-110936669D01*
X176446120Y-110957789D01*
X176354012Y-111007022D01*
X176273278Y-111073278D01*
X176256676Y-111093508D01*
X169680385Y-117669800D01*
X157826043Y-117669800D01*
X157800000Y-117667235D01*
X157696062Y-117677472D01*
X157665745Y-117686669D01*
X157596120Y-117707789D01*
X157504012Y-117757022D01*
X157423278Y-117823278D01*
X157406676Y-117843508D01*
X155377185Y-119873000D01*
X155328397Y-119873000D01*
X155187942Y-119900938D01*
X155055636Y-119955741D01*
X154936564Y-120035302D01*
X154835302Y-120136564D01*
X154755741Y-120255636D01*
X154700938Y-120387942D01*
X154673000Y-120528397D01*
X149478213Y-120528397D01*
X147080200Y-118130385D01*
X147080200Y-114928397D01*
X149373000Y-114928397D01*
X149373000Y-115071603D01*
X149400938Y-115212058D01*
X149455741Y-115344364D01*
X149535302Y-115463436D01*
X149636564Y-115564698D01*
X149755636Y-115644259D01*
X149887942Y-115699062D01*
X150028397Y-115727000D01*
X150171603Y-115727000D01*
X150312058Y-115699062D01*
X150444364Y-115644259D01*
X150563436Y-115564698D01*
X150597934Y-115530200D01*
X159523960Y-115530200D01*
X159550000Y-115532765D01*
X159576040Y-115530200D01*
X159576043Y-115530200D01*
X159653937Y-115522528D01*
X159753880Y-115492211D01*
X159845988Y-115442978D01*
X159926722Y-115376722D01*
X159943329Y-115356486D01*
X160706491Y-114593325D01*
X160726722Y-114576722D01*
X160734143Y-114567680D01*
X160813436Y-114514698D01*
X160914698Y-114413436D01*
X160994259Y-114294364D01*
X161049062Y-114162058D01*
X161077000Y-114021603D01*
X161077000Y-113878397D01*
X161049062Y-113737942D01*
X160994259Y-113605636D01*
X160914698Y-113486564D01*
X160813436Y-113385302D01*
X160694364Y-113305741D01*
X160562058Y-113250938D01*
X160421603Y-113223000D01*
X160278397Y-113223000D01*
X160137942Y-113250938D01*
X160005636Y-113305741D01*
X159886564Y-113385302D01*
X159785302Y-113486564D01*
X159705741Y-113605636D01*
X159650938Y-113737942D01*
X159623000Y-113878397D01*
X159623000Y-114021603D01*
X159648812Y-114151372D01*
X159330385Y-114469800D01*
X150597934Y-114469800D01*
X150563436Y-114435302D01*
X150444364Y-114355741D01*
X150312058Y-114300938D01*
X150171603Y-114273000D01*
X150028397Y-114273000D01*
X149887942Y-114300938D01*
X149755636Y-114355741D01*
X149636564Y-114435302D01*
X149535302Y-114536564D01*
X149455741Y-114655636D01*
X149400938Y-114787942D01*
X149373000Y-114928397D01*
X147080200Y-114928397D01*
X147080200Y-108678397D01*
X168173000Y-108678397D01*
X168173000Y-108821603D01*
X168200938Y-108962058D01*
X168255741Y-109094364D01*
X168335302Y-109213436D01*
X168436564Y-109314698D01*
X168555636Y-109394259D01*
X168687942Y-109449062D01*
X168828397Y-109477000D01*
X168971603Y-109477000D01*
X169112058Y-109449062D01*
X169244364Y-109394259D01*
X169363436Y-109314698D01*
X169397934Y-109280200D01*
X177402066Y-109280200D01*
X177486564Y-109364698D01*
X177605636Y-109444259D01*
X177737942Y-109499062D01*
X177878397Y-109527000D01*
X178021603Y-109527000D01*
X178162058Y-109499062D01*
X178294364Y-109444259D01*
X178413436Y-109364698D01*
X178514698Y-109263436D01*
X178594259Y-109144364D01*
X178649062Y-109012058D01*
X178677000Y-108871603D01*
X178677000Y-108728397D01*
X178649062Y-108587942D01*
X178594259Y-108455636D01*
X178514698Y-108336564D01*
X178413436Y-108235302D01*
X178294364Y-108155741D01*
X178162058Y-108100938D01*
X178021603Y-108073000D01*
X177878397Y-108073000D01*
X177737942Y-108100938D01*
X177605636Y-108155741D01*
X177509764Y-108219800D01*
X169397934Y-108219800D01*
X169363436Y-108185302D01*
X169244364Y-108105741D01*
X169112058Y-108050938D01*
X168971603Y-108023000D01*
X168828397Y-108023000D01*
X168687942Y-108050938D01*
X168555636Y-108105741D01*
X168436564Y-108185302D01*
X168335302Y-108286564D01*
X168255741Y-108405636D01*
X168200938Y-108537942D01*
X168173000Y-108678397D01*
X147080200Y-108678397D01*
X147080200Y-107228397D01*
X161873000Y-107228397D01*
X161873000Y-107371603D01*
X161900938Y-107512058D01*
X161955741Y-107644364D01*
X162035302Y-107763436D01*
X162136564Y-107864698D01*
X162255636Y-107944259D01*
X162387942Y-107999062D01*
X162528397Y-108027000D01*
X162671603Y-108027000D01*
X162812058Y-107999062D01*
X162944364Y-107944259D01*
X163063436Y-107864698D01*
X163164698Y-107763436D01*
X163244259Y-107644364D01*
X163299062Y-107512058D01*
X163327000Y-107371603D01*
X163327000Y-107228397D01*
X163299062Y-107087942D01*
X163244259Y-106955636D01*
X163164698Y-106836564D01*
X163130200Y-106802066D01*
X163130200Y-104228397D01*
X168823000Y-104228397D01*
X168823000Y-104371603D01*
X168850938Y-104512058D01*
X168905741Y-104644364D01*
X168985302Y-104763436D01*
X169086564Y-104864698D01*
X169205636Y-104944259D01*
X169337942Y-104999062D01*
X169478397Y-105027000D01*
X169621603Y-105027000D01*
X169762058Y-104999062D01*
X169894364Y-104944259D01*
X170013436Y-104864698D01*
X170047934Y-104830200D01*
X182923960Y-104830200D01*
X182950000Y-104832765D01*
X182976040Y-104830200D01*
X182976043Y-104830200D01*
X183053937Y-104822528D01*
X183153880Y-104792211D01*
X183245988Y-104742978D01*
X183326722Y-104676722D01*
X183343329Y-104656486D01*
X185156491Y-102843325D01*
X185176722Y-102826722D01*
X185242978Y-102745988D01*
X185292211Y-102653880D01*
X185322528Y-102553937D01*
X185330200Y-102476043D01*
X185330200Y-102476041D01*
X185332765Y-102450001D01*
X185330200Y-102423961D01*
X185330200Y-96444493D01*
X185429157Y-96391600D01*
X185600765Y-96250765D01*
X185741600Y-96079157D01*
X185846250Y-95883371D01*
X185910693Y-95670931D01*
X185927000Y-95505365D01*
X185927000Y-94994636D01*
X185927000Y-94994635D01*
X186213000Y-94994635D01*
X186213000Y-95505364D01*
X186229307Y-95670930D01*
X186293750Y-95883370D01*
X186398400Y-96079157D01*
X186539235Y-96250765D01*
X186710843Y-96391600D01*
X186906629Y-96496250D01*
X187119069Y-96560693D01*
X187340000Y-96582453D01*
X187560930Y-96560693D01*
X187773370Y-96496250D01*
X187969157Y-96391600D01*
X188140765Y-96250765D01*
X188281600Y-96079157D01*
X188386250Y-95883371D01*
X188450693Y-95670931D01*
X188467000Y-95505365D01*
X188467000Y-94994636D01*
X188450693Y-94829070D01*
X188386250Y-94616630D01*
X188281600Y-94420843D01*
X188140765Y-94249235D01*
X187969157Y-94108400D01*
X187773371Y-94003750D01*
X187560931Y-93939307D01*
X187340000Y-93917547D01*
X187119070Y-93939307D01*
X186906630Y-94003750D01*
X186710844Y-94108400D01*
X186539236Y-94249235D01*
X186398401Y-94420843D01*
X186293750Y-94616629D01*
X186229307Y-94829069D01*
X186213000Y-94994635D01*
X185927000Y-94994635D01*
X185910693Y-94829070D01*
X185846250Y-94616630D01*
X185741600Y-94420843D01*
X185600765Y-94249235D01*
X185429157Y-94108400D01*
X185233371Y-94003750D01*
X185020931Y-93939307D01*
X184800000Y-93917547D01*
X184579070Y-93939307D01*
X184366630Y-94003750D01*
X184170844Y-94108400D01*
X183999236Y-94249235D01*
X183858401Y-94420843D01*
X183753750Y-94616629D01*
X183689307Y-94829069D01*
X183673000Y-94994635D01*
X183673000Y-95505364D01*
X183689307Y-95670930D01*
X183753750Y-95883370D01*
X183858400Y-96079157D01*
X183999235Y-96250765D01*
X184170843Y-96391600D01*
X184269801Y-96444494D01*
X184269800Y-102230384D01*
X182730385Y-103769800D01*
X170047934Y-103769800D01*
X170013436Y-103735302D01*
X169894364Y-103655741D01*
X169762058Y-103600938D01*
X169621603Y-103573000D01*
X169478397Y-103573000D01*
X169337942Y-103600938D01*
X169205636Y-103655741D01*
X169086564Y-103735302D01*
X168985302Y-103836564D01*
X168905741Y-103955636D01*
X168850938Y-104087942D01*
X168823000Y-104228397D01*
X163130200Y-104228397D01*
X163130200Y-97719302D01*
X167573000Y-97719302D01*
X167573000Y-97980698D01*
X167623996Y-98237072D01*
X167724028Y-98478570D01*
X167869252Y-98695913D01*
X168054087Y-98880748D01*
X168271430Y-99025972D01*
X168512928Y-99126004D01*
X168769302Y-99177000D01*
X169030698Y-99177000D01*
X169287072Y-99126004D01*
X169528570Y-99025972D01*
X169745913Y-98880748D01*
X169814661Y-98812000D01*
X177072750Y-98812000D01*
X177120000Y-98816654D01*
X177167250Y-98812000D01*
X177167253Y-98812000D01*
X177308585Y-98798080D01*
X177489922Y-98743072D01*
X177657044Y-98653743D01*
X177803528Y-98533528D01*
X177833658Y-98496814D01*
X179751081Y-96579392D01*
X179940930Y-96560693D01*
X180153370Y-96496250D01*
X180349157Y-96391600D01*
X180520765Y-96250765D01*
X180661600Y-96079157D01*
X180766250Y-95883371D01*
X180830693Y-95670931D01*
X180847000Y-95505365D01*
X180847000Y-94994636D01*
X180847000Y-94994635D01*
X181133000Y-94994635D01*
X181133000Y-95505364D01*
X181149307Y-95670930D01*
X181213750Y-95883370D01*
X181318400Y-96079157D01*
X181459235Y-96250765D01*
X181630843Y-96391600D01*
X181826629Y-96496250D01*
X182039069Y-96560693D01*
X182260000Y-96582453D01*
X182480930Y-96560693D01*
X182693370Y-96496250D01*
X182889157Y-96391600D01*
X183060765Y-96250765D01*
X183201600Y-96079157D01*
X183306250Y-95883371D01*
X183370693Y-95670931D01*
X183387000Y-95505365D01*
X183387000Y-94994636D01*
X183370693Y-94829070D01*
X183306250Y-94616630D01*
X183201600Y-94420843D01*
X183060765Y-94249235D01*
X182889157Y-94108400D01*
X182693371Y-94003750D01*
X182480931Y-93939307D01*
X182260000Y-93917547D01*
X182039070Y-93939307D01*
X181826630Y-94003750D01*
X181630844Y-94108400D01*
X181459236Y-94249235D01*
X181318401Y-94420843D01*
X181213750Y-94616629D01*
X181149307Y-94829069D01*
X181133000Y-94994635D01*
X180847000Y-94994635D01*
X180830693Y-94829070D01*
X180766250Y-94616630D01*
X180661600Y-94420843D01*
X180520765Y-94249235D01*
X180349157Y-94108400D01*
X180153371Y-94003750D01*
X179940931Y-93939307D01*
X179720000Y-93917547D01*
X179499070Y-93939307D01*
X179286630Y-94003750D01*
X179090844Y-94108400D01*
X178919236Y-94249235D01*
X178778401Y-94420843D01*
X178673750Y-94616629D01*
X178609307Y-94829069D01*
X178593000Y-94994635D01*
X178593000Y-95016527D01*
X176721528Y-96888000D01*
X169814661Y-96888000D01*
X169745913Y-96819252D01*
X169528570Y-96674028D01*
X169287072Y-96573996D01*
X169030698Y-96523000D01*
X168769302Y-96523000D01*
X168512928Y-96573996D01*
X168271430Y-96674028D01*
X168054087Y-96819252D01*
X167869252Y-97004087D01*
X167724028Y-97221430D01*
X167623996Y-97462928D01*
X167573000Y-97719302D01*
X163130200Y-97719302D01*
X163130200Y-89219615D01*
X167769616Y-84580200D01*
X174902066Y-84580200D01*
X174936564Y-84614698D01*
X175055636Y-84694259D01*
X175187942Y-84749062D01*
X175328397Y-84777000D01*
X175471603Y-84777000D01*
X175612058Y-84749062D01*
X175744364Y-84694259D01*
X175863436Y-84614698D01*
X175964698Y-84513436D01*
X176044259Y-84394364D01*
X176099062Y-84262058D01*
X176127000Y-84121603D01*
X176127000Y-83978397D01*
X176099062Y-83837942D01*
X176044259Y-83705636D01*
X175964698Y-83586564D01*
X175863436Y-83485302D01*
X175744364Y-83405741D01*
X175612058Y-83350938D01*
X175471603Y-83323000D01*
X175328397Y-83323000D01*
X175187942Y-83350938D01*
X175055636Y-83405741D01*
X174936564Y-83485302D01*
X174902066Y-83519800D01*
X167576039Y-83519800D01*
X167549999Y-83517235D01*
X167523959Y-83519800D01*
X167523957Y-83519800D01*
X167446063Y-83527472D01*
X167346120Y-83557789D01*
X167254012Y-83607022D01*
X167173278Y-83673278D01*
X167156675Y-83693509D01*
X162243514Y-88606671D01*
X162223278Y-88623278D01*
X162157022Y-88704012D01*
X162107789Y-88796121D01*
X162077472Y-88896064D01*
X162069800Y-88973957D01*
X162067235Y-89000000D01*
X162069800Y-89026040D01*
X162069801Y-106802065D01*
X162035302Y-106836564D01*
X161955741Y-106955636D01*
X161900938Y-107087942D01*
X161873000Y-107228397D01*
X147080200Y-107228397D01*
X147080200Y-98347934D01*
X147114698Y-98313436D01*
X147194259Y-98194364D01*
X147249062Y-98062058D01*
X147277000Y-97921603D01*
X147277000Y-97778397D01*
X147249062Y-97637942D01*
X147194259Y-97505636D01*
X147114698Y-97386564D01*
X147013436Y-97285302D01*
X146894364Y-97205741D01*
X146762058Y-97150938D01*
X146621603Y-97123000D01*
X146478397Y-97123000D01*
X146337942Y-97150938D01*
X146205636Y-97205741D01*
X146086564Y-97285302D01*
X145985302Y-97386564D01*
X145905741Y-97505636D01*
X145850938Y-97637942D01*
X145823000Y-97778397D01*
X143980200Y-97778397D01*
X143980200Y-87152865D01*
X149687777Y-82530200D01*
X181821649Y-82530200D01*
X185632928Y-85421517D01*
X185650938Y-85512058D01*
X185705741Y-85644364D01*
X185785302Y-85763436D01*
X185886564Y-85864698D01*
X186005636Y-85944259D01*
X186137942Y-85999062D01*
X186278397Y-86027000D01*
X186421603Y-86027000D01*
X186562058Y-85999062D01*
X186694364Y-85944259D01*
X186813436Y-85864698D01*
X186914698Y-85763436D01*
X186994259Y-85644364D01*
X187049062Y-85512058D01*
X187077000Y-85371603D01*
X187077000Y-85228397D01*
X187049062Y-85087942D01*
X186994259Y-84955636D01*
X186914698Y-84836564D01*
X186813436Y-84735302D01*
X186694364Y-84655741D01*
X186562058Y-84600938D01*
X186421603Y-84573000D01*
X186278397Y-84573000D01*
X186270900Y-84574491D01*
X182581100Y-81775333D01*
X182542978Y-81704012D01*
X182476722Y-81623278D01*
X182395988Y-81557022D01*
X182303880Y-81507789D01*
X182203937Y-81477472D01*
X182126043Y-81469800D01*
X182041997Y-81469800D01*
X182031918Y-81468193D01*
X181989896Y-81469800D01*
X149501568Y-81469800D01*
X149451208Y-81469475D01*
X149423827Y-81474737D01*
X149396063Y-81477472D01*
X149372658Y-81484572D01*
X149348644Y-81489187D01*
X149322810Y-81499693D01*
X149296120Y-81507789D01*
X149274551Y-81519318D01*
X149251898Y-81528530D01*
X149228610Y-81543874D01*
X149204012Y-81557022D01*
X149164924Y-81589101D01*
X143155540Y-86456205D01*
X143154012Y-86457022D01*
X143114869Y-86489146D01*
X143096064Y-86504376D01*
X143094849Y-86505575D01*
X143073278Y-86523278D01*
X143057757Y-86542191D01*
X143040361Y-86559363D01*
X143024720Y-86582447D01*
X143007022Y-86604012D01*
X142995493Y-86625581D01*
X142981777Y-86645824D01*
X142970938Y-86671520D01*
X142957789Y-86696121D01*
X142950689Y-86719527D01*
X142941187Y-86742054D01*
X142935570Y-86769370D01*
X142927472Y-86796064D01*
X142925075Y-86820401D01*
X142920149Y-86844354D01*
X142919969Y-86872242D01*
X142919800Y-86873958D01*
X142919800Y-86898432D01*
X142919475Y-86948791D01*
X142919800Y-86950482D01*
X142919801Y-120723950D01*
X142917235Y-120750000D01*
X140780200Y-120750000D01*
X140780200Y-83707502D01*
X144183551Y-81030200D01*
X186473960Y-81030200D01*
X186500000Y-81032765D01*
X186526040Y-81030200D01*
X186526043Y-81030200D01*
X186603937Y-81022528D01*
X186703880Y-80992211D01*
X186795988Y-80942978D01*
X186876722Y-80876722D01*
X186893329Y-80856486D01*
X190669616Y-77080200D01*
X192902066Y-77080200D01*
X192936564Y-77114698D01*
X193055636Y-77194259D01*
X193187942Y-77249062D01*
X193328397Y-77277000D01*
X193471603Y-77277000D01*
X193612058Y-77249062D01*
X193744364Y-77194259D01*
X193863436Y-77114698D01*
X193964698Y-77013436D01*
X194044259Y-76894364D01*
X194099062Y-76762058D01*
X194127000Y-76621603D01*
X194127000Y-76478397D01*
X194099062Y-76337942D01*
X194044259Y-76205636D01*
X193964698Y-76086564D01*
X193863436Y-75985302D01*
X193744364Y-75905741D01*
X193612058Y-75850938D01*
X193471603Y-75823000D01*
X193328397Y-75823000D01*
X193187942Y-75850938D01*
X193055636Y-75905741D01*
X192936564Y-75985302D01*
X192902066Y-76019800D01*
X190476043Y-76019800D01*
X190450000Y-76017235D01*
X190346062Y-76027472D01*
X190321246Y-76035000D01*
X190246120Y-76057789D01*
X190154012Y-76107022D01*
X190073278Y-76173278D01*
X190056675Y-76193509D01*
X186280385Y-79969800D01*
X144005439Y-79969800D01*
X143958746Y-79968835D01*
X143927574Y-79974368D01*
X143896063Y-79977472D01*
X143876275Y-79983474D01*
X143855913Y-79987089D01*
X143826419Y-79998598D01*
X143796120Y-80007789D01*
X143777879Y-80017539D01*
X143758618Y-80025055D01*
X143731941Y-80042094D01*
X143704012Y-80057022D01*
X143667868Y-80086685D01*
X139958884Y-83004418D01*
X139954013Y-83007022D01*
X139917891Y-83036666D01*
X139901718Y-83049389D01*
X139897757Y-83053190D01*
X139873279Y-83073278D01*
X139860158Y-83089266D01*
X139845240Y-83103580D01*
X139827110Y-83129535D01*
X139807023Y-83154012D01*
X139797276Y-83172248D01*
X139785434Y-83189201D01*
X139772716Y-83218196D01*
X139757790Y-83246120D01*
X139751787Y-83265908D01*
X139743481Y-83284845D01*
X139736663Y-83315769D01*
X139727473Y-83346063D01*
X139725447Y-83366636D01*
X139720993Y-83386835D01*
X139720339Y-83418499D01*
X139719801Y-83423957D01*
X139719801Y-83444512D01*
X139718835Y-83491253D01*
X139719801Y-83496695D01*
X139719800Y-122523960D01*
X139717235Y-122550000D01*
X78152000Y-122550000D01*
X78152000Y-100007461D01*
X78152735Y-100000000D01*
X78149800Y-99970203D01*
X78141109Y-99941551D01*
X78126995Y-99915145D01*
X78108000Y-99892000D01*
X78084855Y-99873005D01*
X78058449Y-99858891D01*
X78029797Y-99850200D01*
X78007462Y-99848000D01*
X78000000Y-99847265D01*
X77992538Y-99848000D01*
X71652000Y-99848000D01*
X71652000Y-94810207D01*
X73573000Y-94810207D01*
X73573000Y-95189793D01*
X73647053Y-95562085D01*
X73792315Y-95912777D01*
X74003201Y-96228391D01*
X74271609Y-96496799D01*
X74587223Y-96707685D01*
X74937915Y-96852947D01*
X75310207Y-96927000D01*
X75689793Y-96927000D01*
X76062085Y-96852947D01*
X76412777Y-96707685D01*
X76728391Y-96496799D01*
X76996799Y-96228391D01*
X77207685Y-95912777D01*
X77352947Y-95562085D01*
X77427000Y-95189793D01*
X77427000Y-94810207D01*
X77352947Y-94437915D01*
X77207685Y-94087223D01*
X76996799Y-93771609D01*
X76728391Y-93503201D01*
X76412777Y-93292315D01*
X76062085Y-93147053D01*
X75689793Y-93073000D01*
X75310207Y-93073000D01*
X74937915Y-93147053D01*
X74587223Y-93292315D01*
X74271609Y-93503201D01*
X74003201Y-93771609D01*
X73792315Y-94087223D01*
X73647053Y-94437915D01*
X73573000Y-94810207D01*
X71652000Y-94810207D01*
X71652000Y-90152000D01*
X77992538Y-90152000D01*
X78000000Y-90152735D01*
X78029797Y-90149800D01*
X78058449Y-90141109D01*
X78084855Y-90126995D01*
X78108000Y-90108000D01*
X78126995Y-90084855D01*
X78141109Y-90058449D01*
X78149800Y-90029797D01*
X78152000Y-90007462D01*
X78152000Y-90007461D01*
X78152735Y-90000000D01*
X78152000Y-89992538D01*
X78152000Y-85928397D01*
X94273000Y-85928397D01*
X94273000Y-86071603D01*
X94300938Y-86212058D01*
X94355741Y-86344364D01*
X94435302Y-86463436D01*
X94536564Y-86564698D01*
X94655636Y-86644259D01*
X94787942Y-86699062D01*
X94928397Y-86727000D01*
X94977185Y-86727000D01*
X97469801Y-89219617D01*
X97469800Y-99973960D01*
X97467235Y-100000000D01*
X97469800Y-100026040D01*
X97469800Y-100026042D01*
X97477472Y-100103936D01*
X97507789Y-100203879D01*
X97557022Y-100295988D01*
X97623278Y-100376722D01*
X97643514Y-100393329D01*
X99969800Y-102719616D01*
X99969800Y-103026042D01*
X99969801Y-103026052D01*
X99969800Y-109280384D01*
X98977185Y-110273000D01*
X98928397Y-110273000D01*
X98787942Y-110300938D01*
X98655636Y-110355741D01*
X98536564Y-110435302D01*
X98435302Y-110536564D01*
X98355741Y-110655636D01*
X98300938Y-110787942D01*
X98273000Y-110928397D01*
X98273000Y-111071603D01*
X98300938Y-111212058D01*
X98355741Y-111344364D01*
X98435302Y-111463436D01*
X98536564Y-111564698D01*
X98655636Y-111644259D01*
X98787942Y-111699062D01*
X98928397Y-111727000D01*
X99071603Y-111727000D01*
X99212058Y-111699062D01*
X99344364Y-111644259D01*
X99463436Y-111564698D01*
X99497934Y-111530200D01*
X112473960Y-111530200D01*
X112500000Y-111532765D01*
X112526040Y-111530200D01*
X112526043Y-111530200D01*
X112603937Y-111522528D01*
X112703880Y-111492211D01*
X112795988Y-111442978D01*
X112876722Y-111376722D01*
X112893329Y-111356486D01*
X114356491Y-109893325D01*
X114376722Y-109876722D01*
X114442978Y-109795988D01*
X114492211Y-109703880D01*
X114522528Y-109603937D01*
X114530200Y-109526043D01*
X114530200Y-109526041D01*
X114532765Y-109500001D01*
X114530200Y-109473961D01*
X114530200Y-106719615D01*
X117022816Y-104227000D01*
X117071603Y-104227000D01*
X117212058Y-104199062D01*
X117344364Y-104144259D01*
X117463436Y-104064698D01*
X117564698Y-103963436D01*
X117644259Y-103844364D01*
X117699062Y-103712058D01*
X117727000Y-103571603D01*
X117727000Y-103428397D01*
X117699062Y-103287942D01*
X117644259Y-103155636D01*
X117564698Y-103036564D01*
X117463436Y-102935302D01*
X117344364Y-102855741D01*
X117212058Y-102800938D01*
X117071603Y-102773000D01*
X116928397Y-102773000D01*
X116787942Y-102800938D01*
X116655636Y-102855741D01*
X116536564Y-102935302D01*
X116435302Y-103036564D01*
X116355741Y-103155636D01*
X116300938Y-103287942D01*
X116273000Y-103428397D01*
X116273000Y-103477184D01*
X113643510Y-106106675D01*
X113623279Y-106123278D01*
X113606677Y-106143508D01*
X113557023Y-106204012D01*
X113507790Y-106296120D01*
X113477473Y-106396063D01*
X113467235Y-106500000D01*
X113469801Y-106526050D01*
X113469800Y-109280384D01*
X112280385Y-110469800D01*
X100280016Y-110469800D01*
X100856491Y-109893325D01*
X100876722Y-109876722D01*
X100942978Y-109795988D01*
X100992211Y-109703880D01*
X101022528Y-109603937D01*
X101030200Y-109526043D01*
X101030200Y-109526041D01*
X101032765Y-109500001D01*
X101030200Y-109473961D01*
X101030200Y-102526040D01*
X101032765Y-102500000D01*
X101029538Y-102467235D01*
X101022528Y-102396063D01*
X100992211Y-102296120D01*
X100942978Y-102204012D01*
X100876722Y-102123278D01*
X100856491Y-102106675D01*
X98646695Y-99896879D01*
X102453000Y-99896879D01*
X102453000Y-100103121D01*
X102493236Y-100305399D01*
X102572161Y-100495940D01*
X102686742Y-100667424D01*
X102832576Y-100813258D01*
X103004060Y-100927839D01*
X103194601Y-101006764D01*
X103396879Y-101047000D01*
X103603121Y-101047000D01*
X103805399Y-101006764D01*
X103995940Y-100927839D01*
X104167424Y-100813258D01*
X104313258Y-100667424D01*
X104427839Y-100495940D01*
X104506764Y-100305399D01*
X104547000Y-100103121D01*
X104547000Y-99896879D01*
X104993000Y-99896879D01*
X104993000Y-100103121D01*
X105033236Y-100305399D01*
X105112161Y-100495940D01*
X105226742Y-100667424D01*
X105372576Y-100813258D01*
X105544060Y-100927839D01*
X105734601Y-101006764D01*
X105936879Y-101047000D01*
X106143121Y-101047000D01*
X106345399Y-101006764D01*
X106535940Y-100927839D01*
X106707424Y-100813258D01*
X106853258Y-100667424D01*
X106967839Y-100495940D01*
X107046764Y-100305399D01*
X107087000Y-100103121D01*
X107087000Y-99896879D01*
X107533000Y-99896879D01*
X107533000Y-100103121D01*
X107573236Y-100305399D01*
X107652161Y-100495940D01*
X107766742Y-100667424D01*
X107912576Y-100813258D01*
X108084060Y-100927839D01*
X108274601Y-101006764D01*
X108476879Y-101047000D01*
X108683121Y-101047000D01*
X108885399Y-101006764D01*
X109075940Y-100927839D01*
X109247424Y-100813258D01*
X109393258Y-100667424D01*
X109507839Y-100495940D01*
X109586764Y-100305399D01*
X109627000Y-100103121D01*
X109627000Y-99896879D01*
X109586764Y-99694601D01*
X109507839Y-99504060D01*
X109393258Y-99332576D01*
X109247424Y-99186742D01*
X109075940Y-99072161D01*
X108885399Y-98993236D01*
X108683121Y-98953000D01*
X108476879Y-98953000D01*
X108274601Y-98993236D01*
X108084060Y-99072161D01*
X107912576Y-99186742D01*
X107766742Y-99332576D01*
X107652161Y-99504060D01*
X107573236Y-99694601D01*
X107533000Y-99896879D01*
X107087000Y-99896879D01*
X107046764Y-99694601D01*
X106967839Y-99504060D01*
X106853258Y-99332576D01*
X106707424Y-99186742D01*
X106535940Y-99072161D01*
X106345399Y-98993236D01*
X106143121Y-98953000D01*
X105936879Y-98953000D01*
X105734601Y-98993236D01*
X105544060Y-99072161D01*
X105372576Y-99186742D01*
X105226742Y-99332576D01*
X105112161Y-99504060D01*
X105033236Y-99694601D01*
X104993000Y-99896879D01*
X104547000Y-99896879D01*
X104506764Y-99694601D01*
X104427839Y-99504060D01*
X104313258Y-99332576D01*
X104167424Y-99186742D01*
X103995940Y-99072161D01*
X103805399Y-98993236D01*
X103603121Y-98953000D01*
X103396879Y-98953000D01*
X103194601Y-98993236D01*
X103004060Y-99072161D01*
X102832576Y-99186742D01*
X102686742Y-99332576D01*
X102572161Y-99504060D01*
X102493236Y-99694601D01*
X102453000Y-99896879D01*
X98646695Y-99896879D01*
X98530200Y-99780385D01*
X98530200Y-89026043D01*
X98532765Y-89000000D01*
X98522528Y-88896062D01*
X98492211Y-88796121D01*
X98492211Y-88796120D01*
X98442978Y-88704012D01*
X98376722Y-88623278D01*
X98356491Y-88606675D01*
X95727000Y-85977185D01*
X95727000Y-85928397D01*
X95699062Y-85787942D01*
X95644259Y-85655636D01*
X95564698Y-85536564D01*
X95463436Y-85435302D01*
X95344364Y-85355741D01*
X95212058Y-85300938D01*
X95071603Y-85273000D01*
X94928397Y-85273000D01*
X94787942Y-85300938D01*
X94655636Y-85355741D01*
X94536564Y-85435302D01*
X94435302Y-85536564D01*
X94355741Y-85655636D01*
X94300938Y-85787942D01*
X94273000Y-85928397D01*
X78152000Y-85928397D01*
X78152000Y-77350000D01*
X84371418Y-77350000D01*
X84371418Y-78650000D01*
X84382535Y-78762876D01*
X84415460Y-78871414D01*
X84468927Y-78971443D01*
X84540881Y-79059119D01*
X84628557Y-79131073D01*
X84728586Y-79184540D01*
X84837124Y-79217465D01*
X84950000Y-79228582D01*
X88050000Y-79228582D01*
X88162876Y-79217465D01*
X88271414Y-79184540D01*
X88371443Y-79131073D01*
X88459119Y-79059119D01*
X88531073Y-78971443D01*
X88584540Y-78871414D01*
X88617465Y-78762876D01*
X88628582Y-78650000D01*
X88628582Y-77350000D01*
X88617465Y-77237124D01*
X88584540Y-77128586D01*
X88531073Y-77028557D01*
X88459119Y-76940881D01*
X88371443Y-76868927D01*
X88271414Y-76815460D01*
X88162876Y-76782535D01*
X88050000Y-76771418D01*
X84950000Y-76771418D01*
X84837124Y-76782535D01*
X84728586Y-76815460D01*
X84628557Y-76868927D01*
X84540881Y-76940881D01*
X84468927Y-77028557D01*
X84415460Y-77128586D01*
X84382535Y-77237124D01*
X84371418Y-77350000D01*
X78152000Y-77350000D01*
X78152000Y-74864740D01*
X84108964Y-74864740D01*
X84133245Y-74970087D01*
X84253138Y-75247204D01*
X84424790Y-75495606D01*
X84641604Y-75705748D01*
X84895249Y-75869554D01*
X85175977Y-75980729D01*
X85473000Y-76035000D01*
X86373000Y-76035000D01*
X86373000Y-74627000D01*
X86627000Y-74627000D01*
X86627000Y-76035000D01*
X87527000Y-76035000D01*
X87824023Y-75980729D01*
X88104751Y-75869554D01*
X88280526Y-75756037D01*
X133723000Y-75756037D01*
X133723000Y-76243963D01*
X133818190Y-76722514D01*
X134004911Y-77173299D01*
X134275989Y-77578995D01*
X134621005Y-77924011D01*
X135026701Y-78195089D01*
X135477486Y-78381810D01*
X135956037Y-78477000D01*
X136443963Y-78477000D01*
X136922514Y-78381810D01*
X137373299Y-78195089D01*
X137778995Y-77924011D01*
X137882950Y-77820056D01*
X161673000Y-77820056D01*
X161673000Y-78179944D01*
X161743211Y-78532916D01*
X161880934Y-78865409D01*
X162080876Y-79164645D01*
X162335355Y-79419124D01*
X162634591Y-79619066D01*
X162967084Y-79756789D01*
X163320056Y-79827000D01*
X163679944Y-79827000D01*
X164032916Y-79756789D01*
X164365409Y-79619066D01*
X164664645Y-79419124D01*
X164919124Y-79164645D01*
X165010161Y-79028397D01*
X171151208Y-79028397D01*
X171228843Y-79277472D01*
X171492883Y-79403371D01*
X171776411Y-79475339D01*
X172068531Y-79490611D01*
X172358019Y-79448599D01*
X172633747Y-79350919D01*
X172771157Y-79277472D01*
X172848792Y-79028397D01*
X172000000Y-78179605D01*
X171151208Y-79028397D01*
X165010161Y-79028397D01*
X165119066Y-78865409D01*
X165256789Y-78532916D01*
X165327000Y-78179944D01*
X165327000Y-78068531D01*
X170509389Y-78068531D01*
X170551401Y-78358019D01*
X170649081Y-78633747D01*
X170722528Y-78771157D01*
X170971603Y-78848792D01*
X171820395Y-78000000D01*
X172179605Y-78000000D01*
X173028397Y-78848792D01*
X173277472Y-78771157D01*
X173403371Y-78507117D01*
X173415799Y-78458156D01*
X173456956Y-78557519D01*
X173585764Y-78750294D01*
X173749706Y-78914236D01*
X173942481Y-79043044D01*
X174156682Y-79131769D01*
X174384076Y-79177000D01*
X174615924Y-79177000D01*
X174843318Y-79131769D01*
X175057519Y-79043044D01*
X175250294Y-78914236D01*
X175414236Y-78750294D01*
X175543044Y-78557519D01*
X175631769Y-78343318D01*
X175677000Y-78115924D01*
X175677000Y-77884076D01*
X175664266Y-77820056D01*
X181673000Y-77820056D01*
X181673000Y-78179944D01*
X181743211Y-78532916D01*
X181880934Y-78865409D01*
X182080876Y-79164645D01*
X182335355Y-79419124D01*
X182634591Y-79619066D01*
X182967084Y-79756789D01*
X183320056Y-79827000D01*
X183679944Y-79827000D01*
X184032916Y-79756789D01*
X184365409Y-79619066D01*
X184664645Y-79419124D01*
X184919124Y-79164645D01*
X185119066Y-78865409D01*
X185256789Y-78532916D01*
X185327000Y-78179944D01*
X185327000Y-77820056D01*
X185256789Y-77467084D01*
X185119066Y-77134591D01*
X184919124Y-76835355D01*
X184664645Y-76580876D01*
X184365409Y-76380934D01*
X184032916Y-76243211D01*
X183679944Y-76173000D01*
X183320056Y-76173000D01*
X182967084Y-76243211D01*
X182634591Y-76380934D01*
X182335355Y-76580876D01*
X182080876Y-76835355D01*
X181880934Y-77134591D01*
X181743211Y-77467084D01*
X181673000Y-77820056D01*
X175664266Y-77820056D01*
X175631769Y-77656682D01*
X175543044Y-77442481D01*
X175414236Y-77249706D01*
X175250294Y-77085764D01*
X175057519Y-76956956D01*
X174843318Y-76868231D01*
X174615924Y-76823000D01*
X174384076Y-76823000D01*
X174156682Y-76868231D01*
X173942481Y-76956956D01*
X173749706Y-77085764D01*
X173585764Y-77249706D01*
X173456956Y-77442481D01*
X173414357Y-77545324D01*
X173350919Y-77366253D01*
X173277472Y-77228843D01*
X173028397Y-77151208D01*
X172179605Y-78000000D01*
X171820395Y-78000000D01*
X170971603Y-77151208D01*
X170722528Y-77228843D01*
X170596629Y-77492883D01*
X170524661Y-77776411D01*
X170509389Y-78068531D01*
X165327000Y-78068531D01*
X165327000Y-77820056D01*
X165256789Y-77467084D01*
X165119066Y-77134591D01*
X165010162Y-76971603D01*
X171151208Y-76971603D01*
X172000000Y-77820395D01*
X172848792Y-76971603D01*
X172771157Y-76722528D01*
X172507117Y-76596629D01*
X172223589Y-76524661D01*
X171931469Y-76509389D01*
X171641981Y-76551401D01*
X171366253Y-76649081D01*
X171228843Y-76722528D01*
X171151208Y-76971603D01*
X165010162Y-76971603D01*
X164919124Y-76835355D01*
X164664645Y-76580876D01*
X164365409Y-76380934D01*
X164032916Y-76243211D01*
X163679944Y-76173000D01*
X163320056Y-76173000D01*
X162967084Y-76243211D01*
X162634591Y-76380934D01*
X162335355Y-76580876D01*
X162080876Y-76835355D01*
X161880934Y-77134591D01*
X161743211Y-77467084D01*
X161673000Y-77820056D01*
X137882950Y-77820056D01*
X138124011Y-77578995D01*
X138395089Y-77173299D01*
X138581810Y-76722514D01*
X138677000Y-76243963D01*
X138677000Y-75756037D01*
X138581810Y-75277486D01*
X138395089Y-74826701D01*
X138124011Y-74421005D01*
X137778995Y-74075989D01*
X137373299Y-73804911D01*
X136922514Y-73618190D01*
X136443963Y-73523000D01*
X135956037Y-73523000D01*
X135477486Y-73618190D01*
X135026701Y-73804911D01*
X134621005Y-74075989D01*
X134275989Y-74421005D01*
X134004911Y-74826701D01*
X133818190Y-75277486D01*
X133723000Y-75756037D01*
X88280526Y-75756037D01*
X88358396Y-75705748D01*
X88575210Y-75495606D01*
X88746862Y-75247204D01*
X88866755Y-74970087D01*
X88891036Y-74864740D01*
X88770378Y-74627000D01*
X86627000Y-74627000D01*
X86373000Y-74627000D01*
X84229622Y-74627000D01*
X84108964Y-74864740D01*
X78152000Y-74864740D01*
X78152000Y-74135260D01*
X84108964Y-74135260D01*
X84229622Y-74373000D01*
X86373000Y-74373000D01*
X86373000Y-72965000D01*
X86627000Y-72965000D01*
X86627000Y-74373000D01*
X88770378Y-74373000D01*
X88891036Y-74135260D01*
X88866755Y-74029913D01*
X88746862Y-73752796D01*
X88575210Y-73504394D01*
X88358396Y-73294252D01*
X88104751Y-73130446D01*
X87824023Y-73019271D01*
X87527000Y-72965000D01*
X86627000Y-72965000D01*
X86373000Y-72965000D01*
X85473000Y-72965000D01*
X85175977Y-73019271D01*
X84895249Y-73130446D01*
X84641604Y-73294252D01*
X84424790Y-73504394D01*
X84253138Y-73752796D01*
X84133245Y-74029913D01*
X84108964Y-74135260D01*
X78152000Y-74135260D01*
X78152000Y-65152000D01*
X93992538Y-65152000D01*
X94000000Y-65152735D01*
X94029797Y-65149800D01*
X94058449Y-65141109D01*
X94084855Y-65126995D01*
X94108000Y-65108000D01*
X94126995Y-65084855D01*
X94141109Y-65058449D01*
X94149800Y-65029797D01*
X94152000Y-65007462D01*
X94152000Y-65007461D01*
X94152735Y-65000000D01*
X94152000Y-64992538D01*
X94152000Y-52820056D01*
X161673000Y-52820056D01*
X161673000Y-53179944D01*
X161743211Y-53532916D01*
X161880934Y-53865409D01*
X162080876Y-54164645D01*
X162335355Y-54419124D01*
X162634591Y-54619066D01*
X162967084Y-54756789D01*
X163320056Y-54827000D01*
X163679944Y-54827000D01*
X164032916Y-54756789D01*
X164365409Y-54619066D01*
X164664645Y-54419124D01*
X164919124Y-54164645D01*
X165010161Y-54028397D01*
X171151208Y-54028397D01*
X171228843Y-54277472D01*
X171492883Y-54403371D01*
X171776411Y-54475339D01*
X172068531Y-54490611D01*
X172358019Y-54448599D01*
X172633747Y-54350919D01*
X172771157Y-54277472D01*
X172848792Y-54028397D01*
X172000000Y-53179605D01*
X171151208Y-54028397D01*
X165010161Y-54028397D01*
X165119066Y-53865409D01*
X165256789Y-53532916D01*
X165327000Y-53179944D01*
X165327000Y-53068531D01*
X170509389Y-53068531D01*
X170551401Y-53358019D01*
X170649081Y-53633747D01*
X170722528Y-53771157D01*
X170971603Y-53848792D01*
X171820395Y-53000000D01*
X172179605Y-53000000D01*
X173028397Y-53848792D01*
X173277472Y-53771157D01*
X173403371Y-53507117D01*
X173415799Y-53458156D01*
X173456956Y-53557519D01*
X173585764Y-53750294D01*
X173749706Y-53914236D01*
X173942481Y-54043044D01*
X174156682Y-54131769D01*
X174384076Y-54177000D01*
X174615924Y-54177000D01*
X174843318Y-54131769D01*
X174870638Y-54120453D01*
X179469801Y-58719617D01*
X179469800Y-68965167D01*
X179467527Y-68982387D01*
X179469800Y-69017249D01*
X179469800Y-69026042D01*
X179471496Y-69043261D01*
X179474322Y-69086606D01*
X179476606Y-69095140D01*
X179477472Y-69103936D01*
X179490089Y-69145529D01*
X179501319Y-69187497D01*
X179505223Y-69195421D01*
X179507789Y-69203879D01*
X179528281Y-69242216D01*
X179547480Y-69281182D01*
X179552854Y-69288191D01*
X179557022Y-69295988D01*
X179584609Y-69329604D01*
X179611031Y-69364061D01*
X179617666Y-69369884D01*
X179623278Y-69376722D01*
X179656886Y-69404303D01*
X179669860Y-69415689D01*
X179676991Y-69420803D01*
X179704012Y-69442978D01*
X179719338Y-69451170D01*
X187276992Y-74870803D01*
X187304012Y-74892978D01*
X187342341Y-74913465D01*
X187379958Y-74935201D01*
X187388325Y-74938044D01*
X187396120Y-74942211D01*
X187437706Y-74954826D01*
X187478844Y-74968806D01*
X187487605Y-74969962D01*
X187496063Y-74972528D01*
X187539320Y-74976788D01*
X187582386Y-74982473D01*
X187617254Y-74980200D01*
X195419800Y-74980200D01*
X195419801Y-91330382D01*
X194543514Y-92206671D01*
X194523278Y-92223278D01*
X194457022Y-92304012D01*
X194407789Y-92396121D01*
X194377472Y-92496064D01*
X194369800Y-92573957D01*
X194367235Y-92600000D01*
X194369800Y-92626040D01*
X194369801Y-94087577D01*
X194330844Y-94108400D01*
X194159236Y-94249235D01*
X194018401Y-94420843D01*
X193913750Y-94616629D01*
X193849307Y-94829069D01*
X193833000Y-94994635D01*
X193833000Y-95505364D01*
X193849307Y-95670930D01*
X193913750Y-95883370D01*
X194018400Y-96079157D01*
X194159235Y-96250765D01*
X194330843Y-96391600D01*
X194526629Y-96496250D01*
X194739069Y-96560693D01*
X194960000Y-96582453D01*
X195180930Y-96560693D01*
X195393370Y-96496250D01*
X195589157Y-96391600D01*
X195760765Y-96250765D01*
X195901600Y-96079157D01*
X196006250Y-95883371D01*
X196070693Y-95670931D01*
X196087000Y-95505365D01*
X196087000Y-94994636D01*
X196070693Y-94829070D01*
X196006250Y-94616630D01*
X195901600Y-94420843D01*
X195760765Y-94249235D01*
X195589157Y-94108400D01*
X195430200Y-94023436D01*
X195430200Y-92819615D01*
X196306496Y-91943321D01*
X196326722Y-91926722D01*
X196392978Y-91845988D01*
X196442211Y-91753880D01*
X196472528Y-91653937D01*
X196480200Y-91576043D01*
X196480200Y-91576041D01*
X196482765Y-91550001D01*
X196480200Y-91523961D01*
X196480200Y-74476043D01*
X196482765Y-74450000D01*
X196472528Y-74346063D01*
X196442211Y-74246120D01*
X196392978Y-74154012D01*
X196326722Y-74073278D01*
X196245988Y-74007022D01*
X196153880Y-73957789D01*
X196053937Y-73927472D01*
X195976043Y-73919800D01*
X195976042Y-73919800D01*
X195950000Y-73917235D01*
X195923957Y-73919800D01*
X187770456Y-73919800D01*
X180530200Y-68727776D01*
X180530200Y-58526043D01*
X180532765Y-58500000D01*
X180522528Y-58396062D01*
X180513331Y-58365745D01*
X180492211Y-58296120D01*
X180442978Y-58204012D01*
X180376722Y-58123278D01*
X180356491Y-58106675D01*
X175620453Y-53370638D01*
X175631769Y-53343318D01*
X175677000Y-53115924D01*
X175677000Y-52884076D01*
X175664266Y-52820056D01*
X181673000Y-52820056D01*
X181673000Y-53179944D01*
X181743211Y-53532916D01*
X181880934Y-53865409D01*
X182080876Y-54164645D01*
X182335355Y-54419124D01*
X182634591Y-54619066D01*
X182967084Y-54756789D01*
X183320056Y-54827000D01*
X183679944Y-54827000D01*
X184032916Y-54756789D01*
X184365409Y-54619066D01*
X184664645Y-54419124D01*
X184919124Y-54164645D01*
X185119066Y-53865409D01*
X185256789Y-53532916D01*
X185327000Y-53179944D01*
X185327000Y-52820056D01*
X185256789Y-52467084D01*
X185119066Y-52134591D01*
X184919124Y-51835355D01*
X184664645Y-51580876D01*
X184365409Y-51380934D01*
X184032916Y-51243211D01*
X183679944Y-51173000D01*
X183320056Y-51173000D01*
X182967084Y-51243211D01*
X182634591Y-51380934D01*
X182335355Y-51580876D01*
X182080876Y-51835355D01*
X181880934Y-52134591D01*
X181743211Y-52467084D01*
X181673000Y-52820056D01*
X175664266Y-52820056D01*
X175631769Y-52656682D01*
X175543044Y-52442481D01*
X175414236Y-52249706D01*
X175250294Y-52085764D01*
X175057519Y-51956956D01*
X174843318Y-51868231D01*
X174615924Y-51823000D01*
X174384076Y-51823000D01*
X174156682Y-51868231D01*
X173942481Y-51956956D01*
X173749706Y-52085764D01*
X173585764Y-52249706D01*
X173456956Y-52442481D01*
X173414357Y-52545324D01*
X173350919Y-52366253D01*
X173277472Y-52228843D01*
X173028397Y-52151208D01*
X172179605Y-53000000D01*
X171820395Y-53000000D01*
X170971603Y-52151208D01*
X170722528Y-52228843D01*
X170596629Y-52492883D01*
X170524661Y-52776411D01*
X170509389Y-53068531D01*
X165327000Y-53068531D01*
X165327000Y-52820056D01*
X165256789Y-52467084D01*
X165119066Y-52134591D01*
X165010162Y-51971603D01*
X171151208Y-51971603D01*
X172000000Y-52820395D01*
X172848792Y-51971603D01*
X172771157Y-51722528D01*
X172507117Y-51596629D01*
X172223589Y-51524661D01*
X171931469Y-51509389D01*
X171641981Y-51551401D01*
X171366253Y-51649081D01*
X171228843Y-51722528D01*
X171151208Y-51971603D01*
X165010162Y-51971603D01*
X164919124Y-51835355D01*
X164664645Y-51580876D01*
X164365409Y-51380934D01*
X164032916Y-51243211D01*
X163679944Y-51173000D01*
X163320056Y-51173000D01*
X162967084Y-51243211D01*
X162634591Y-51380934D01*
X162335355Y-51580876D01*
X162080876Y-51835355D01*
X161880934Y-52134591D01*
X161743211Y-52467084D01*
X161673000Y-52820056D01*
X94152000Y-52820056D01*
X94152000Y-49152000D01*
X117492538Y-49152000D01*
X117500000Y-49152735D01*
X117529797Y-49149800D01*
X117558449Y-49141109D01*
X117584855Y-49126995D01*
X117608000Y-49108000D01*
X117626995Y-49084855D01*
X117641109Y-49058449D01*
X117649800Y-49029797D01*
X117652000Y-49007462D01*
X117652000Y-49007461D01*
X117652735Y-49000000D01*
X117652000Y-48992538D01*
X117652000Y-46310207D01*
X120573000Y-46310207D01*
X120573000Y-46689793D01*
X120647053Y-47062085D01*
X120792315Y-47412777D01*
X121003201Y-47728391D01*
X121271609Y-47996799D01*
X121587223Y-48207685D01*
X121937915Y-48352947D01*
X122310207Y-48427000D01*
X122689793Y-48427000D01*
X123062085Y-48352947D01*
X123412777Y-48207685D01*
X123728391Y-47996799D01*
X123996799Y-47728391D01*
X124207685Y-47412777D01*
X124352947Y-47062085D01*
X124427000Y-46689793D01*
X124427000Y-46310207D01*
X124352947Y-45937915D01*
X124207685Y-45587223D01*
X123996799Y-45271609D01*
X123728391Y-45003201D01*
X123412777Y-44792315D01*
X123062085Y-44647053D01*
X122689793Y-44573000D01*
X122310207Y-44573000D01*
X121937915Y-44647053D01*
X121587223Y-44792315D01*
X121271609Y-45003201D01*
X121003201Y-45271609D01*
X120792315Y-45587223D01*
X120647053Y-45937915D01*
X120573000Y-46310207D01*
X117652000Y-46310207D01*
X117652000Y-42652000D01*
X127348001Y-42652000D01*
X127348000Y-48992538D01*
G04 #@! TA.AperFunction,Conductor*
D23*
G36*
X127348000Y-48992538D02*
G01*
X127347265Y-49000000D01*
X127350200Y-49029797D01*
X127358891Y-49058449D01*
X127373005Y-49084855D01*
X127392000Y-49108000D01*
X127415145Y-49126995D01*
X127441551Y-49141109D01*
X127470203Y-49149800D01*
X127500000Y-49152735D01*
X127507462Y-49152000D01*
X160492538Y-49152000D01*
X160500000Y-49152735D01*
X160529797Y-49149800D01*
X160558449Y-49141109D01*
X160584855Y-49126995D01*
X160608000Y-49108000D01*
X160626995Y-49084855D01*
X160641109Y-49058449D01*
X160649800Y-49029797D01*
X160652000Y-49007462D01*
X160652000Y-49007461D01*
X160652735Y-49000000D01*
X160652000Y-48992538D01*
X160652000Y-46310207D01*
X163573000Y-46310207D01*
X163573000Y-46689793D01*
X163647053Y-47062085D01*
X163792315Y-47412777D01*
X164003201Y-47728391D01*
X164271609Y-47996799D01*
X164587223Y-48207685D01*
X164937915Y-48352947D01*
X165310207Y-48427000D01*
X165689793Y-48427000D01*
X166062085Y-48352947D01*
X166412777Y-48207685D01*
X166728391Y-47996799D01*
X166996799Y-47728391D01*
X167207685Y-47412777D01*
X167352947Y-47062085D01*
X167427000Y-46689793D01*
X167427000Y-46310207D01*
X167352947Y-45937915D01*
X167207685Y-45587223D01*
X166996799Y-45271609D01*
X166728391Y-45003201D01*
X166412777Y-44792315D01*
X166062085Y-44647053D01*
X165689793Y-44573000D01*
X165310207Y-44573000D01*
X164937915Y-44647053D01*
X164587223Y-44792315D01*
X164271609Y-45003201D01*
X164003201Y-45271609D01*
X163792315Y-45587223D01*
X163647053Y-45937915D01*
X163573000Y-46310207D01*
X160652000Y-46310207D01*
X160652000Y-42652000D01*
X170348001Y-42652000D01*
X170348000Y-48992538D01*
X170347265Y-49000000D01*
X170350200Y-49029797D01*
X170358891Y-49058449D01*
X170373005Y-49084855D01*
X170392000Y-49108000D01*
X170415145Y-49126995D01*
X170441551Y-49141109D01*
X170470203Y-49149800D01*
X170500000Y-49152735D01*
X170507462Y-49152000D01*
X193848001Y-49152000D01*
X193848000Y-64992538D01*
X193847265Y-65000000D01*
X193850200Y-65029797D01*
X193858891Y-65058449D01*
X193873005Y-65084855D01*
X193892000Y-65108000D01*
X193915145Y-65126995D01*
X193941551Y-65141109D01*
X193970203Y-65149800D01*
X194000000Y-65152735D01*
X194007462Y-65152000D01*
X209848001Y-65152000D01*
X209848000Y-89992538D01*
X209847265Y-90000000D01*
X209850200Y-90029797D01*
X209858891Y-90058449D01*
X209873005Y-90084855D01*
X209892000Y-90108000D01*
X209915145Y-90126995D01*
X209941551Y-90141109D01*
X209970203Y-90149800D01*
X210000000Y-90152735D01*
X210007462Y-90152000D01*
X216348001Y-90152000D01*
X216348000Y-99848000D01*
X210007462Y-99848000D01*
X210000000Y-99847265D01*
X209992538Y-99848000D01*
X209970203Y-99850200D01*
X209941551Y-99858891D01*
X209915145Y-99873005D01*
X209892000Y-99892000D01*
X209873005Y-99915145D01*
X209858891Y-99941551D01*
X209850200Y-99970203D01*
X209847265Y-100000000D01*
X209848001Y-100007472D01*
X209848000Y-124848000D01*
X194007462Y-124848000D01*
X194000000Y-124847265D01*
X193992538Y-124848000D01*
X193970203Y-124850200D01*
X193941551Y-124858891D01*
X193915145Y-124873005D01*
X193892000Y-124892000D01*
X193873005Y-124915145D01*
X193858891Y-124941551D01*
X193850200Y-124970203D01*
X193847265Y-125000000D01*
X193848001Y-125007472D01*
X193848000Y-140848000D01*
X170507462Y-140848000D01*
X170500000Y-140847265D01*
X170492538Y-140848000D01*
X170470203Y-140850200D01*
X170441551Y-140858891D01*
X170415145Y-140873005D01*
X170392000Y-140892000D01*
X170373005Y-140915145D01*
X170358891Y-140941551D01*
X170350200Y-140970203D01*
X170347265Y-141000000D01*
X170348001Y-141007472D01*
X170348000Y-147348000D01*
X160652000Y-147348000D01*
X160652000Y-143310207D01*
X163573000Y-143310207D01*
X163573000Y-143689793D01*
X163647053Y-144062085D01*
X163792315Y-144412777D01*
X164003201Y-144728391D01*
X164271609Y-144996799D01*
X164587223Y-145207685D01*
X164937915Y-145352947D01*
X165310207Y-145427000D01*
X165689793Y-145427000D01*
X166062085Y-145352947D01*
X166412777Y-145207685D01*
X166728391Y-144996799D01*
X166996799Y-144728391D01*
X167207685Y-144412777D01*
X167352947Y-144062085D01*
X167427000Y-143689793D01*
X167427000Y-143310207D01*
X167352947Y-142937915D01*
X167207685Y-142587223D01*
X166996799Y-142271609D01*
X166728391Y-142003201D01*
X166412777Y-141792315D01*
X166062085Y-141647053D01*
X165689793Y-141573000D01*
X165310207Y-141573000D01*
X164937915Y-141647053D01*
X164587223Y-141792315D01*
X164271609Y-142003201D01*
X164003201Y-142271609D01*
X163792315Y-142587223D01*
X163647053Y-142937915D01*
X163573000Y-143310207D01*
X160652000Y-143310207D01*
X160652000Y-141007461D01*
X160652735Y-141000000D01*
X160649800Y-140970203D01*
X160641109Y-140941551D01*
X160626995Y-140915145D01*
X160608000Y-140892000D01*
X160584855Y-140873005D01*
X160558449Y-140858891D01*
X160529797Y-140850200D01*
X160507462Y-140848000D01*
X160500000Y-140847265D01*
X160492538Y-140848000D01*
X127507462Y-140848000D01*
X127500000Y-140847265D01*
X127492538Y-140848000D01*
X127470203Y-140850200D01*
X127441551Y-140858891D01*
X127415145Y-140873005D01*
X127392000Y-140892000D01*
X127373005Y-140915145D01*
X127358891Y-140941551D01*
X127350200Y-140970203D01*
X127347265Y-141000000D01*
X127348001Y-141007472D01*
X127348000Y-147348000D01*
X117652000Y-147348000D01*
X117652000Y-143310207D01*
X120573000Y-143310207D01*
X120573000Y-143689793D01*
X120647053Y-144062085D01*
X120792315Y-144412777D01*
X121003201Y-144728391D01*
X121271609Y-144996799D01*
X121587223Y-145207685D01*
X121937915Y-145352947D01*
X122310207Y-145427000D01*
X122689793Y-145427000D01*
X123062085Y-145352947D01*
X123412777Y-145207685D01*
X123728391Y-144996799D01*
X123996799Y-144728391D01*
X124207685Y-144412777D01*
X124352947Y-144062085D01*
X124427000Y-143689793D01*
X124427000Y-143310207D01*
X124352947Y-142937915D01*
X124207685Y-142587223D01*
X123996799Y-142271609D01*
X123728391Y-142003201D01*
X123412777Y-141792315D01*
X123062085Y-141647053D01*
X122689793Y-141573000D01*
X122310207Y-141573000D01*
X121937915Y-141647053D01*
X121587223Y-141792315D01*
X121271609Y-142003201D01*
X121003201Y-142271609D01*
X120792315Y-142587223D01*
X120647053Y-142937915D01*
X120573000Y-143310207D01*
X117652000Y-143310207D01*
X117652000Y-141007461D01*
X117652735Y-141000000D01*
X117649800Y-140970203D01*
X117641109Y-140941551D01*
X117626995Y-140915145D01*
X117608000Y-140892000D01*
X117584855Y-140873005D01*
X117558449Y-140858891D01*
X117529797Y-140850200D01*
X117507462Y-140848000D01*
X117500000Y-140847265D01*
X117492538Y-140848000D01*
X94152000Y-140848000D01*
X94152000Y-130450000D01*
X97771418Y-130450000D01*
X97771418Y-133550000D01*
X97782535Y-133662876D01*
X97815460Y-133771414D01*
X97868927Y-133871443D01*
X97940881Y-133959119D01*
X98028557Y-134031073D01*
X98128586Y-134084540D01*
X98237124Y-134117465D01*
X98350000Y-134128582D01*
X99650000Y-134128582D01*
X99762876Y-134117465D01*
X99871414Y-134084540D01*
X99971443Y-134031073D01*
X100059119Y-133959119D01*
X100131073Y-133871443D01*
X100184540Y-133771414D01*
X100217465Y-133662876D01*
X100228582Y-133550000D01*
X100228582Y-132127000D01*
X100965000Y-132127000D01*
X100965000Y-133027000D01*
X101019271Y-133324023D01*
X101130446Y-133604751D01*
X101294252Y-133858396D01*
X101504394Y-134075210D01*
X101752796Y-134246862D01*
X102029913Y-134366755D01*
X102135260Y-134391036D01*
X102373000Y-134270378D01*
X102373000Y-132127000D01*
X102627000Y-132127000D01*
X102627000Y-134270378D01*
X102864740Y-134391036D01*
X102970087Y-134366755D01*
X103247204Y-134246862D01*
X103495606Y-134075210D01*
X103705748Y-133858396D01*
X103869554Y-133604751D01*
X103980729Y-133324023D01*
X104035000Y-133027000D01*
X104035000Y-132127000D01*
X102627000Y-132127000D01*
X102373000Y-132127000D01*
X100965000Y-132127000D01*
X100228582Y-132127000D01*
X100228582Y-130973000D01*
X100965000Y-130973000D01*
X100965000Y-131873000D01*
X102373000Y-131873000D01*
X102373000Y-129729622D01*
X102627000Y-129729622D01*
X102627000Y-131873000D01*
X104035000Y-131873000D01*
X104035000Y-131593078D01*
X110973000Y-131593078D01*
X110985690Y-131721921D01*
X111035838Y-131887236D01*
X111117273Y-132039591D01*
X111226867Y-132173133D01*
X111319801Y-132249402D01*
X111319801Y-132323950D01*
X111317235Y-132350000D01*
X111320751Y-132385690D01*
X111327473Y-132453937D01*
X111357790Y-132553880D01*
X111407023Y-132645988D01*
X111473279Y-132726722D01*
X111493510Y-132743325D01*
X112906675Y-134156491D01*
X112923278Y-134176722D01*
X113004012Y-134242978D01*
X113096120Y-134292211D01*
X113123000Y-134300365D01*
X113123000Y-134393078D01*
X113135690Y-134521921D01*
X113185838Y-134687236D01*
X113267273Y-134839591D01*
X113376867Y-134973133D01*
X113510408Y-135082727D01*
X113662763Y-135164162D01*
X113828078Y-135214310D01*
X114000000Y-135231243D01*
X114171921Y-135214310D01*
X114337236Y-135164162D01*
X114489591Y-135082727D01*
X114623133Y-134973133D01*
X114732727Y-134839592D01*
X114814162Y-134687237D01*
X114864310Y-134521922D01*
X114877000Y-134393079D01*
X114877000Y-133206921D01*
X114864310Y-133078078D01*
X114814162Y-132912763D01*
X114732727Y-132760408D01*
X114623133Y-132626867D01*
X114489592Y-132517273D01*
X114337237Y-132435838D01*
X114171922Y-132385690D01*
X114000000Y-132368757D01*
X113828079Y-132385690D01*
X113662764Y-132435838D01*
X113510409Y-132517273D01*
X113376868Y-132626867D01*
X113267274Y-132760408D01*
X113185839Y-132912763D01*
X113180425Y-132930610D01*
X112445569Y-132195754D01*
X112473133Y-132173133D01*
X112582727Y-132039592D01*
X112664162Y-131887237D01*
X112714310Y-131721922D01*
X112727000Y-131593079D01*
X112727000Y-130450000D01*
X123771418Y-130450000D01*
X123771418Y-133550000D01*
X123782535Y-133662876D01*
X123815460Y-133771414D01*
X123868927Y-133871443D01*
X123940881Y-133959119D01*
X124028557Y-134031073D01*
X124128586Y-134084540D01*
X124237124Y-134117465D01*
X124350000Y-134128582D01*
X125650000Y-134128582D01*
X125762876Y-134117465D01*
X125871414Y-134084540D01*
X125971443Y-134031073D01*
X126059119Y-133959119D01*
X126131073Y-133871443D01*
X126184540Y-133771414D01*
X126217465Y-133662876D01*
X126228582Y-133550000D01*
X126228582Y-131039733D01*
X127273000Y-131039733D01*
X127273000Y-132960268D01*
X127290756Y-133140534D01*
X127360917Y-133371824D01*
X127474852Y-133584983D01*
X127628184Y-133771817D01*
X127815018Y-133925149D01*
X128028177Y-134039084D01*
X128259467Y-134109245D01*
X128500000Y-134132936D01*
X128740534Y-134109245D01*
X128971824Y-134039084D01*
X129184983Y-133925149D01*
X129371817Y-133771817D01*
X129525149Y-133584983D01*
X129639084Y-133371824D01*
X129709245Y-133140534D01*
X129727000Y-132960268D01*
X129727000Y-131039733D01*
X130773000Y-131039733D01*
X130773000Y-132960268D01*
X130790756Y-133140534D01*
X130860917Y-133371824D01*
X130974852Y-133584983D01*
X131128184Y-133771817D01*
X131315018Y-133925149D01*
X131528177Y-134039084D01*
X131759467Y-134109245D01*
X132000000Y-134132936D01*
X132240534Y-134109245D01*
X132471824Y-134039084D01*
X132684983Y-133925149D01*
X132871817Y-133771817D01*
X133025149Y-133584983D01*
X133139084Y-133371824D01*
X133209245Y-133140534D01*
X133227000Y-132960268D01*
X133227000Y-131039733D01*
X134273000Y-131039733D01*
X134273000Y-132960268D01*
X134290756Y-133140534D01*
X134360917Y-133371824D01*
X134474852Y-133584983D01*
X134628184Y-133771817D01*
X134815018Y-133925149D01*
X135028177Y-134039084D01*
X135259467Y-134109245D01*
X135500000Y-134132936D01*
X135740534Y-134109245D01*
X135971824Y-134039084D01*
X136184983Y-133925149D01*
X136371817Y-133771817D01*
X136525149Y-133584983D01*
X136639084Y-133371824D01*
X136709245Y-133140534D01*
X136727000Y-132960268D01*
X136727000Y-132127000D01*
X137465000Y-132127000D01*
X137465000Y-133027000D01*
X137519271Y-133324023D01*
X137630446Y-133604751D01*
X137794252Y-133858396D01*
X138004394Y-134075210D01*
X138252796Y-134246862D01*
X138529913Y-134366755D01*
X138635260Y-134391036D01*
X138873000Y-134270378D01*
X138873000Y-132127000D01*
X139127000Y-132127000D01*
X139127000Y-134270378D01*
X139364740Y-134391036D01*
X139470087Y-134366755D01*
X139747204Y-134246862D01*
X139995606Y-134075210D01*
X140205748Y-133858396D01*
X140369554Y-133604751D01*
X140480729Y-133324023D01*
X140535000Y-133027000D01*
X140535000Y-132127000D01*
X140965000Y-132127000D01*
X140965000Y-133027000D01*
X141019271Y-133324023D01*
X141130446Y-133604751D01*
X141294252Y-133858396D01*
X141504394Y-134075210D01*
X141752796Y-134246862D01*
X142029913Y-134366755D01*
X142135260Y-134391036D01*
X142373000Y-134270378D01*
X142373000Y-132127000D01*
X142627000Y-132127000D01*
X142627000Y-134270378D01*
X142864740Y-134391036D01*
X142970087Y-134366755D01*
X143247204Y-134246862D01*
X143495606Y-134075210D01*
X143705748Y-133858396D01*
X143869554Y-133604751D01*
X143980729Y-133324023D01*
X144035000Y-133027000D01*
X144035000Y-132127000D01*
X142627000Y-132127000D01*
X142373000Y-132127000D01*
X140965000Y-132127000D01*
X140535000Y-132127000D01*
X139127000Y-132127000D01*
X138873000Y-132127000D01*
X137465000Y-132127000D01*
X136727000Y-132127000D01*
X136727000Y-131039732D01*
X136720428Y-130973000D01*
X137465000Y-130973000D01*
X137465000Y-131873000D01*
X138873000Y-131873000D01*
X138873000Y-129729622D01*
X139127000Y-129729622D01*
X139127000Y-131873000D01*
X140535000Y-131873000D01*
X140535000Y-130973000D01*
X140965000Y-130973000D01*
X140965000Y-131873000D01*
X142373000Y-131873000D01*
X142373000Y-129729622D01*
X142627000Y-129729622D01*
X142627000Y-131873000D01*
X144035000Y-131873000D01*
X144035000Y-131039733D01*
X144773000Y-131039733D01*
X144773000Y-132960268D01*
X144790756Y-133140534D01*
X144860917Y-133371824D01*
X144974852Y-133584983D01*
X145128184Y-133771817D01*
X145315018Y-133925149D01*
X145528177Y-134039084D01*
X145759467Y-134109245D01*
X146000000Y-134132936D01*
X146240534Y-134109245D01*
X146471824Y-134039084D01*
X146684983Y-133925149D01*
X146871817Y-133771817D01*
X147025149Y-133584983D01*
X147139084Y-133371824D01*
X147209245Y-133140534D01*
X147226829Y-132962000D01*
X148273171Y-132962000D01*
X148290756Y-133140534D01*
X148360917Y-133371824D01*
X148474852Y-133584983D01*
X148628184Y-133771817D01*
X148815018Y-133925149D01*
X149028177Y-134039084D01*
X149259467Y-134109245D01*
X149500000Y-134132936D01*
X149740534Y-134109245D01*
X149971824Y-134039084D01*
X150184983Y-133925149D01*
X150371817Y-133771817D01*
X150525149Y-133584983D01*
X150639084Y-133371824D01*
X150709245Y-133140534D01*
X150727000Y-132960268D01*
X150727000Y-131039732D01*
X150709245Y-130859466D01*
X150639084Y-130628176D01*
X150525149Y-130415017D01*
X150371817Y-130228183D01*
X150184982Y-130074851D01*
X149971823Y-129960916D01*
X149740533Y-129890755D01*
X149500000Y-129867064D01*
X149259466Y-129890755D01*
X149028176Y-129960916D01*
X148815017Y-130074851D01*
X148628183Y-130228183D01*
X148474851Y-130415018D01*
X148360916Y-130628177D01*
X148290755Y-130859467D01*
X148273171Y-131038000D01*
X147226829Y-131038000D01*
X147209245Y-130859466D01*
X147139084Y-130628176D01*
X147025149Y-130415017D01*
X146871817Y-130228183D01*
X146684982Y-130074851D01*
X146471823Y-129960916D01*
X146240533Y-129890755D01*
X146000000Y-129867064D01*
X145759466Y-129890755D01*
X145528176Y-129960916D01*
X145315017Y-130074851D01*
X145128183Y-130228183D01*
X144974851Y-130415018D01*
X144860916Y-130628177D01*
X144790755Y-130859467D01*
X144773000Y-131039733D01*
X144035000Y-131039733D01*
X144035000Y-130973000D01*
X143980729Y-130675977D01*
X143869554Y-130395249D01*
X143705748Y-130141604D01*
X143495606Y-129924790D01*
X143247204Y-129753138D01*
X142970087Y-129633245D01*
X142864740Y-129608964D01*
X142627000Y-129729622D01*
X142373000Y-129729622D01*
X142135260Y-129608964D01*
X142029913Y-129633245D01*
X141752796Y-129753138D01*
X141504394Y-129924790D01*
X141294252Y-130141604D01*
X141130446Y-130395249D01*
X141019271Y-130675977D01*
X140965000Y-130973000D01*
X140535000Y-130973000D01*
X140480729Y-130675977D01*
X140369554Y-130395249D01*
X140205748Y-130141604D01*
X139995606Y-129924790D01*
X139747204Y-129753138D01*
X139470087Y-129633245D01*
X139364740Y-129608964D01*
X139127000Y-129729622D01*
X138873000Y-129729622D01*
X138635260Y-129608964D01*
X138529913Y-129633245D01*
X138252796Y-129753138D01*
X138004394Y-129924790D01*
X137794252Y-130141604D01*
X137630446Y-130395249D01*
X137519271Y-130675977D01*
X137465000Y-130973000D01*
X136720428Y-130973000D01*
X136709245Y-130859466D01*
X136639084Y-130628176D01*
X136525149Y-130415017D01*
X136371817Y-130228183D01*
X136184982Y-130074851D01*
X135971823Y-129960916D01*
X135740533Y-129890755D01*
X135500000Y-129867064D01*
X135259466Y-129890755D01*
X135028176Y-129960916D01*
X134815017Y-130074851D01*
X134628183Y-130228183D01*
X134474851Y-130415018D01*
X134360916Y-130628177D01*
X134290755Y-130859467D01*
X134273000Y-131039733D01*
X133227000Y-131039733D01*
X133227000Y-131039732D01*
X133209245Y-130859466D01*
X133139084Y-130628176D01*
X133025149Y-130415017D01*
X132871817Y-130228183D01*
X132684982Y-130074851D01*
X132471823Y-129960916D01*
X132240533Y-129890755D01*
X132000000Y-129867064D01*
X131759466Y-129890755D01*
X131528176Y-129960916D01*
X131315017Y-130074851D01*
X131128183Y-130228183D01*
X130974851Y-130415018D01*
X130860916Y-130628177D01*
X130790755Y-130859467D01*
X130773000Y-131039733D01*
X129727000Y-131039733D01*
X129727000Y-131039732D01*
X129709245Y-130859466D01*
X129639084Y-130628176D01*
X129525149Y-130415017D01*
X129371817Y-130228183D01*
X129184982Y-130074851D01*
X128971823Y-129960916D01*
X128740533Y-129890755D01*
X128500000Y-129867064D01*
X128259466Y-129890755D01*
X128028176Y-129960916D01*
X127815017Y-130074851D01*
X127628183Y-130228183D01*
X127474851Y-130415018D01*
X127360916Y-130628177D01*
X127290755Y-130859467D01*
X127273000Y-131039733D01*
X126228582Y-131039733D01*
X126228582Y-130450000D01*
X126217465Y-130337124D01*
X126184540Y-130228586D01*
X126131073Y-130128557D01*
X126059119Y-130040881D01*
X125971443Y-129968927D01*
X125871414Y-129915460D01*
X125762876Y-129882535D01*
X125650000Y-129871418D01*
X124350000Y-129871418D01*
X124237124Y-129882535D01*
X124128586Y-129915460D01*
X124028557Y-129968927D01*
X123940881Y-130040881D01*
X123868927Y-130128557D01*
X123815460Y-130228586D01*
X123782535Y-130337124D01*
X123771418Y-130450000D01*
X112727000Y-130450000D01*
X112727000Y-130406921D01*
X112714310Y-130278078D01*
X112664162Y-130112763D01*
X112582727Y-129960408D01*
X112473133Y-129826867D01*
X112445569Y-129804246D01*
X113180425Y-129069391D01*
X113185838Y-129087236D01*
X113267273Y-129239591D01*
X113376867Y-129373133D01*
X113510408Y-129482727D01*
X113662763Y-129564162D01*
X113828078Y-129614310D01*
X114000000Y-129631243D01*
X114171921Y-129614310D01*
X114337236Y-129564162D01*
X114489591Y-129482727D01*
X114623133Y-129373133D01*
X114732727Y-129239592D01*
X114814162Y-129087237D01*
X114864310Y-128921922D01*
X114877000Y-128793079D01*
X114877000Y-127606921D01*
X114864310Y-127478078D01*
X114814162Y-127312763D01*
X114732727Y-127160408D01*
X114623133Y-127026867D01*
X114489592Y-126917273D01*
X114337237Y-126835838D01*
X114171922Y-126785690D01*
X114000000Y-126768757D01*
X113828079Y-126785690D01*
X113662764Y-126835838D01*
X113510409Y-126917273D01*
X113376868Y-127026867D01*
X113267274Y-127160408D01*
X113185839Y-127312763D01*
X113135691Y-127478078D01*
X113123001Y-127606921D01*
X113123001Y-127699635D01*
X113096120Y-127707789D01*
X113004012Y-127757022D01*
X112923278Y-127823278D01*
X112906675Y-127843509D01*
X111493514Y-129256671D01*
X111473278Y-129273278D01*
X111407022Y-129354012D01*
X111357789Y-129446121D01*
X111327472Y-129546064D01*
X111319800Y-129623957D01*
X111317235Y-129650000D01*
X111319800Y-129676040D01*
X111319800Y-129750600D01*
X111226868Y-129826867D01*
X111117274Y-129960408D01*
X111035839Y-130112763D01*
X110985691Y-130278078D01*
X110973001Y-130406921D01*
X110973000Y-131593078D01*
X104035000Y-131593078D01*
X104035000Y-130973000D01*
X103980729Y-130675977D01*
X103869554Y-130395249D01*
X103705748Y-130141604D01*
X103495606Y-129924790D01*
X103247204Y-129753138D01*
X102970087Y-129633245D01*
X102864740Y-129608964D01*
X102627000Y-129729622D01*
X102373000Y-129729622D01*
X102135260Y-129608964D01*
X102029913Y-129633245D01*
X101752796Y-129753138D01*
X101504394Y-129924790D01*
X101294252Y-130141604D01*
X101130446Y-130395249D01*
X101019271Y-130675977D01*
X100965000Y-130973000D01*
X100228582Y-130973000D01*
X100228582Y-130450000D01*
X100217465Y-130337124D01*
X100184540Y-130228586D01*
X100131073Y-130128557D01*
X100059119Y-130040881D01*
X99971443Y-129968927D01*
X99871414Y-129915460D01*
X99762876Y-129882535D01*
X99650000Y-129871418D01*
X98350000Y-129871418D01*
X98237124Y-129882535D01*
X98128586Y-129915460D01*
X98028557Y-129968927D01*
X97940881Y-130040881D01*
X97868927Y-130128557D01*
X97815460Y-130228586D01*
X97782535Y-130337124D01*
X97771418Y-130450000D01*
X94152000Y-130450000D01*
X94152000Y-125007461D01*
X94152735Y-125000000D01*
X94149800Y-124970203D01*
X94141109Y-124941551D01*
X94126995Y-124915145D01*
X94108000Y-124892000D01*
X94084855Y-124873005D01*
X94058449Y-124858891D01*
X94029797Y-124850200D01*
X94007462Y-124848000D01*
X94000000Y-124847265D01*
X93992538Y-124848000D01*
X78152000Y-124848000D01*
X78152000Y-122550000D01*
X139717235Y-122550000D01*
X139719800Y-122576040D01*
X139719800Y-122576042D01*
X139727472Y-122653936D01*
X139757789Y-122753879D01*
X139807022Y-122845988D01*
X139873278Y-122926722D01*
X139893514Y-122943329D01*
X145456675Y-128506491D01*
X145473278Y-128526722D01*
X145554012Y-128592978D01*
X145646120Y-128642211D01*
X145746063Y-128672528D01*
X145823957Y-128680200D01*
X145823960Y-128680200D01*
X145850000Y-128682765D01*
X145876040Y-128680200D01*
X153380385Y-128680200D01*
X153419801Y-128719616D01*
X153419800Y-132073957D01*
X153417235Y-132100000D01*
X153419800Y-132126040D01*
X153419800Y-132126042D01*
X153427472Y-132203936D01*
X153457789Y-132303879D01*
X153507022Y-132395988D01*
X153573278Y-132476722D01*
X153593514Y-132493329D01*
X155056675Y-133956491D01*
X155073278Y-133976722D01*
X155154012Y-134042978D01*
X155246120Y-134092211D01*
X155346063Y-134122528D01*
X155423957Y-134130200D01*
X155423959Y-134130200D01*
X155449999Y-134132765D01*
X155476039Y-134130200D01*
X159452066Y-134130200D01*
X159486564Y-134164698D01*
X159605636Y-134244259D01*
X159737942Y-134299062D01*
X159878397Y-134327000D01*
X160021603Y-134327000D01*
X160162058Y-134299062D01*
X160294364Y-134244259D01*
X160413436Y-134164698D01*
X160514698Y-134063436D01*
X160594259Y-133944364D01*
X160649062Y-133812058D01*
X160677000Y-133671603D01*
X160677000Y-133528397D01*
X160649062Y-133387942D01*
X160594259Y-133255636D01*
X160514698Y-133136564D01*
X160413436Y-133035302D01*
X160294364Y-132955741D01*
X160162058Y-132900938D01*
X160021603Y-132873000D01*
X159878397Y-132873000D01*
X159737942Y-132900938D01*
X159605636Y-132955741D01*
X159486564Y-133035302D01*
X159452066Y-133069800D01*
X155669616Y-133069800D01*
X154480200Y-131880385D01*
X154480200Y-128526043D01*
X154482765Y-128500000D01*
X154472528Y-128396062D01*
X154459732Y-128353880D01*
X154442211Y-128296120D01*
X154392978Y-128204012D01*
X154326722Y-128123278D01*
X154306486Y-128106671D01*
X153993329Y-127793514D01*
X153976722Y-127773278D01*
X153895988Y-127707022D01*
X153803880Y-127657789D01*
X153703937Y-127627472D01*
X153626043Y-127619800D01*
X153626040Y-127619800D01*
X153600000Y-127617235D01*
X153573960Y-127619800D01*
X146069616Y-127619800D01*
X140780200Y-122330385D01*
X140780200Y-120750000D01*
X142917235Y-120750000D01*
X142923348Y-120812058D01*
X142927473Y-120853937D01*
X142957790Y-120953880D01*
X143007023Y-121045988D01*
X143073279Y-121126722D01*
X143093510Y-121143325D01*
X148156675Y-126206491D01*
X148173278Y-126226722D01*
X148254012Y-126292978D01*
X148346120Y-126342211D01*
X148446063Y-126372528D01*
X148523957Y-126380200D01*
X148523959Y-126380200D01*
X148549999Y-126382765D01*
X148576039Y-126380200D01*
X155830385Y-126380200D01*
X156019800Y-126569616D01*
X156019801Y-129752065D01*
X155985302Y-129786564D01*
X155905741Y-129905636D01*
X155850938Y-130037942D01*
X155823000Y-130178397D01*
X155823000Y-130321603D01*
X155850938Y-130462058D01*
X155905741Y-130594364D01*
X155985302Y-130713436D01*
X156086564Y-130814698D01*
X156205636Y-130894259D01*
X156337942Y-130949062D01*
X156478397Y-130977000D01*
X156621603Y-130977000D01*
X156762058Y-130949062D01*
X156894364Y-130894259D01*
X157013436Y-130814698D01*
X157114698Y-130713436D01*
X157194259Y-130594364D01*
X157212635Y-130550000D01*
X162871418Y-130550000D01*
X162871418Y-133650000D01*
X162882535Y-133762876D01*
X162915460Y-133871414D01*
X162968927Y-133971443D01*
X163040881Y-134059119D01*
X163128557Y-134131073D01*
X163228586Y-134184540D01*
X163337124Y-134217465D01*
X163450000Y-134228582D01*
X164750000Y-134228582D01*
X164862876Y-134217465D01*
X164971414Y-134184540D01*
X165071443Y-134131073D01*
X165159119Y-134059119D01*
X165231073Y-133971443D01*
X165284540Y-133871414D01*
X165317465Y-133762876D01*
X165328582Y-133650000D01*
X165328582Y-131139733D01*
X166373000Y-131139733D01*
X166373000Y-133060268D01*
X166390756Y-133240534D01*
X166460917Y-133471824D01*
X166574852Y-133684983D01*
X166728184Y-133871817D01*
X166915018Y-134025149D01*
X167069801Y-134107882D01*
X167069801Y-134273950D01*
X167067235Y-134300000D01*
X167077473Y-134403937D01*
X167107790Y-134503880D01*
X167157023Y-134595988D01*
X167223279Y-134676722D01*
X167243510Y-134693325D01*
X171106675Y-138556491D01*
X171123278Y-138576722D01*
X171204012Y-138642978D01*
X171296120Y-138692211D01*
X171396063Y-138722528D01*
X171473957Y-138730200D01*
X171473960Y-138730200D01*
X171500000Y-138732765D01*
X171526040Y-138730200D01*
X191373960Y-138730200D01*
X191400000Y-138732765D01*
X191426040Y-138730200D01*
X191426043Y-138730200D01*
X191503937Y-138722528D01*
X191603880Y-138692211D01*
X191695988Y-138642978D01*
X191776722Y-138576722D01*
X191793329Y-138556486D01*
X192956496Y-137393321D01*
X192976722Y-137376722D01*
X193042978Y-137295988D01*
X193092211Y-137203880D01*
X193122528Y-137103937D01*
X193130200Y-137026043D01*
X193130200Y-137026041D01*
X193132765Y-137000001D01*
X193130200Y-136973961D01*
X193130200Y-119185090D01*
X193220765Y-119110765D01*
X193361600Y-118939157D01*
X193466250Y-118743371D01*
X193530693Y-118530931D01*
X193547000Y-118365365D01*
X193547000Y-117854636D01*
X193547000Y-117854635D01*
X193833000Y-117854635D01*
X193833000Y-118365364D01*
X193849307Y-118530930D01*
X193913750Y-118743370D01*
X194018400Y-118939157D01*
X194159235Y-119110765D01*
X194330843Y-119251600D01*
X194526629Y-119356250D01*
X194739069Y-119420693D01*
X194960000Y-119442453D01*
X195180930Y-119420693D01*
X195393370Y-119356250D01*
X195589157Y-119251600D01*
X195760765Y-119110765D01*
X195901600Y-118939157D01*
X196006250Y-118743371D01*
X196070693Y-118530931D01*
X196087000Y-118365365D01*
X196087000Y-117854636D01*
X196087000Y-117854635D01*
X196373000Y-117854635D01*
X196373000Y-118365364D01*
X196389307Y-118530930D01*
X196453750Y-118743370D01*
X196558400Y-118939157D01*
X196699235Y-119110765D01*
X196870843Y-119251600D01*
X197066629Y-119356250D01*
X197279069Y-119420693D01*
X197500000Y-119442453D01*
X197720930Y-119420693D01*
X197933370Y-119356250D01*
X198129157Y-119251600D01*
X198300765Y-119110765D01*
X198441600Y-118939157D01*
X198546250Y-118743371D01*
X198610693Y-118530931D01*
X198627000Y-118365365D01*
X198627000Y-117854636D01*
X198610693Y-117689070D01*
X198546250Y-117476630D01*
X198441600Y-117280843D01*
X198300765Y-117109235D01*
X198129157Y-116968400D01*
X197933371Y-116863750D01*
X197720931Y-116799307D01*
X197500000Y-116777547D01*
X197279070Y-116799307D01*
X197066630Y-116863750D01*
X196870844Y-116968400D01*
X196699236Y-117109235D01*
X196558401Y-117280843D01*
X196453750Y-117476629D01*
X196389307Y-117689069D01*
X196373000Y-117854635D01*
X196087000Y-117854635D01*
X196070693Y-117689070D01*
X196006250Y-117476630D01*
X195901600Y-117280843D01*
X195760765Y-117109235D01*
X195589157Y-116968400D01*
X195393371Y-116863750D01*
X195180931Y-116799307D01*
X194960000Y-116777547D01*
X194739070Y-116799307D01*
X194526630Y-116863750D01*
X194330844Y-116968400D01*
X194159236Y-117109235D01*
X194018401Y-117280843D01*
X193913750Y-117476629D01*
X193849307Y-117689069D01*
X193833000Y-117854635D01*
X193547000Y-117854635D01*
X193530693Y-117689070D01*
X193466250Y-117476630D01*
X193361600Y-117280843D01*
X193220765Y-117109235D01*
X193049157Y-116968400D01*
X192853371Y-116863750D01*
X192640931Y-116799307D01*
X192420000Y-116777547D01*
X192199070Y-116799307D01*
X191986630Y-116863750D01*
X191790844Y-116968400D01*
X191619236Y-117109235D01*
X191478401Y-117280843D01*
X191373750Y-117476629D01*
X191309307Y-117689069D01*
X191293000Y-117854635D01*
X191293000Y-118365364D01*
X191309307Y-118530930D01*
X191373750Y-118743370D01*
X191478400Y-118939157D01*
X191619235Y-119110765D01*
X191790843Y-119251600D01*
X191986629Y-119356250D01*
X192069801Y-119381480D01*
X192069800Y-136780383D01*
X191180385Y-137669800D01*
X171719616Y-137669800D01*
X168148119Y-134098304D01*
X168284983Y-134025149D01*
X168471817Y-133871817D01*
X168625149Y-133684983D01*
X168739084Y-133471824D01*
X168809245Y-133240534D01*
X168827000Y-133060268D01*
X168827000Y-131139733D01*
X169873000Y-131139733D01*
X169873000Y-133060268D01*
X169890756Y-133240534D01*
X169960917Y-133471824D01*
X170074852Y-133684983D01*
X170228184Y-133871817D01*
X170415018Y-134025149D01*
X170628177Y-134139084D01*
X170859467Y-134209245D01*
X171100000Y-134232936D01*
X171340534Y-134209245D01*
X171571824Y-134139084D01*
X171784983Y-134025149D01*
X171971817Y-133871817D01*
X172125149Y-133684983D01*
X172239084Y-133471824D01*
X172309245Y-133240534D01*
X172327000Y-133060268D01*
X172327000Y-131139733D01*
X173373000Y-131139733D01*
X173373000Y-133060268D01*
X173390756Y-133240534D01*
X173460917Y-133471824D01*
X173574852Y-133684983D01*
X173728184Y-133871817D01*
X173915018Y-134025149D01*
X174069801Y-134107881D01*
X174069801Y-135673950D01*
X174067235Y-135700000D01*
X174077085Y-135799999D01*
X174077473Y-135803937D01*
X174107790Y-135903880D01*
X174157023Y-135995988D01*
X174223279Y-136076722D01*
X174243510Y-136093325D01*
X174306671Y-136156486D01*
X174323278Y-136176722D01*
X174404012Y-136242978D01*
X174496120Y-136292211D01*
X174596063Y-136322528D01*
X174673957Y-136330200D01*
X174673959Y-136330200D01*
X174699999Y-136332765D01*
X174726039Y-136330200D01*
X191073957Y-136330200D01*
X191100000Y-136332765D01*
X191126042Y-136330200D01*
X191126043Y-136330200D01*
X191203937Y-136322528D01*
X191303880Y-136292211D01*
X191395988Y-136242978D01*
X191476722Y-136176722D01*
X191542978Y-136095988D01*
X191592211Y-136003880D01*
X191622528Y-135903937D01*
X191632765Y-135800000D01*
X191630200Y-135773957D01*
X191630200Y-127426043D01*
X191632765Y-127400000D01*
X191622528Y-127296062D01*
X191613331Y-127265745D01*
X191592211Y-127196120D01*
X191542978Y-127104012D01*
X191476722Y-127023278D01*
X191456491Y-127006675D01*
X190410200Y-125960385D01*
X190410200Y-119304493D01*
X190509157Y-119251600D01*
X190680765Y-119110765D01*
X190821600Y-118939157D01*
X190926250Y-118743371D01*
X190990693Y-118530931D01*
X191007000Y-118365365D01*
X191007000Y-117854636D01*
X190990693Y-117689070D01*
X190926250Y-117476630D01*
X190821600Y-117280843D01*
X190680765Y-117109235D01*
X190509157Y-116968400D01*
X190410200Y-116915506D01*
X190410200Y-115939615D01*
X190969616Y-115380200D01*
X200380385Y-115380200D01*
X201119801Y-116119618D01*
X201119800Y-120702066D01*
X201085302Y-120736564D01*
X201005741Y-120855636D01*
X200950938Y-120987942D01*
X200923000Y-121128397D01*
X200923000Y-121271603D01*
X200950938Y-121412058D01*
X201005741Y-121544364D01*
X201085302Y-121663436D01*
X201186564Y-121764698D01*
X201305636Y-121844259D01*
X201437942Y-121899062D01*
X201578397Y-121927000D01*
X201721603Y-121927000D01*
X201862058Y-121899062D01*
X201994364Y-121844259D01*
X202113436Y-121764698D01*
X202214698Y-121663436D01*
X202294259Y-121544364D01*
X202349062Y-121412058D01*
X202377000Y-121271603D01*
X202377000Y-121128397D01*
X202349062Y-120987942D01*
X202294259Y-120855636D01*
X202214698Y-120736564D01*
X202180200Y-120702066D01*
X202180200Y-115926039D01*
X202182765Y-115899999D01*
X202180200Y-115873957D01*
X202172528Y-115796063D01*
X202142211Y-115696120D01*
X202092978Y-115604012D01*
X202026722Y-115523278D01*
X202006496Y-115506679D01*
X200993329Y-114493514D01*
X200976722Y-114473278D01*
X200895988Y-114407022D01*
X200803880Y-114357789D01*
X200703937Y-114327472D01*
X200626043Y-114319800D01*
X200626040Y-114319800D01*
X200600000Y-114317235D01*
X200573960Y-114319800D01*
X190776043Y-114319800D01*
X190750000Y-114317235D01*
X190646062Y-114327472D01*
X190615745Y-114336669D01*
X190546120Y-114357789D01*
X190454012Y-114407022D01*
X190373278Y-114473278D01*
X190356675Y-114493509D01*
X189523514Y-115326671D01*
X189503278Y-115343278D01*
X189437022Y-115424012D01*
X189387789Y-115516121D01*
X189357472Y-115616064D01*
X189349800Y-115693957D01*
X189347235Y-115720000D01*
X189349800Y-115746040D01*
X189349801Y-116915507D01*
X189250844Y-116968400D01*
X189079236Y-117109235D01*
X188938401Y-117280843D01*
X188833750Y-117476629D01*
X188769307Y-117689069D01*
X188753000Y-117854635D01*
X188753000Y-118365364D01*
X188769307Y-118530930D01*
X188833750Y-118743370D01*
X188938400Y-118939157D01*
X189079235Y-119110765D01*
X189250843Y-119251600D01*
X189349801Y-119304494D01*
X189349800Y-126153960D01*
X189347235Y-126180000D01*
X189349800Y-126206040D01*
X189349800Y-126206042D01*
X189357472Y-126283936D01*
X189387789Y-126383879D01*
X189437022Y-126475988D01*
X189503278Y-126556722D01*
X189523514Y-126573329D01*
X190569801Y-127619617D01*
X190569800Y-135269800D01*
X175130200Y-135269800D01*
X175130200Y-134107882D01*
X175284983Y-134025149D01*
X175471817Y-133871817D01*
X175625149Y-133684983D01*
X175739084Y-133471824D01*
X175809245Y-133240534D01*
X175827000Y-133060268D01*
X175827000Y-131139733D01*
X176873000Y-131139733D01*
X176873000Y-133060268D01*
X176890756Y-133240534D01*
X176960917Y-133471824D01*
X177074852Y-133684983D01*
X177228184Y-133871817D01*
X177415018Y-134025149D01*
X177628177Y-134139084D01*
X177859467Y-134209245D01*
X178100000Y-134232936D01*
X178340534Y-134209245D01*
X178571824Y-134139084D01*
X178784983Y-134025149D01*
X178971817Y-133871817D01*
X179125149Y-133684983D01*
X179239084Y-133471824D01*
X179309245Y-133240534D01*
X179327000Y-133060268D01*
X179327000Y-131139733D01*
X180373000Y-131139733D01*
X180373000Y-133060268D01*
X180390756Y-133240534D01*
X180460917Y-133471824D01*
X180574852Y-133684983D01*
X180728184Y-133871817D01*
X180915018Y-134025149D01*
X181128177Y-134139084D01*
X181359467Y-134209245D01*
X181600000Y-134232936D01*
X181840534Y-134209245D01*
X182071824Y-134139084D01*
X182284983Y-134025149D01*
X182471817Y-133871817D01*
X182625149Y-133684983D01*
X182739084Y-133471824D01*
X182809245Y-133240534D01*
X182827000Y-133060268D01*
X182827000Y-131139733D01*
X183873000Y-131139733D01*
X183873000Y-133060268D01*
X183890756Y-133240534D01*
X183960917Y-133471824D01*
X184074852Y-133684983D01*
X184228184Y-133871817D01*
X184415018Y-134025149D01*
X184628177Y-134139084D01*
X184859467Y-134209245D01*
X185100000Y-134232936D01*
X185340534Y-134209245D01*
X185571824Y-134139084D01*
X185784983Y-134025149D01*
X185971817Y-133871817D01*
X186125149Y-133684983D01*
X186239084Y-133471824D01*
X186309245Y-133240534D01*
X186327000Y-133060268D01*
X186327000Y-131139733D01*
X187373000Y-131139733D01*
X187373000Y-133060268D01*
X187390756Y-133240534D01*
X187460917Y-133471824D01*
X187574852Y-133684983D01*
X187728184Y-133871817D01*
X187915018Y-134025149D01*
X188128177Y-134139084D01*
X188359467Y-134209245D01*
X188600000Y-134232936D01*
X188840534Y-134209245D01*
X189071824Y-134139084D01*
X189284983Y-134025149D01*
X189471817Y-133871817D01*
X189625149Y-133684983D01*
X189739084Y-133471824D01*
X189809245Y-133240534D01*
X189827000Y-133060268D01*
X189827000Y-131139732D01*
X189809245Y-130959466D01*
X189739084Y-130728176D01*
X189625149Y-130515017D01*
X189471817Y-130328183D01*
X189284982Y-130174851D01*
X189071823Y-130060916D01*
X188840533Y-129990755D01*
X188600000Y-129967064D01*
X188359466Y-129990755D01*
X188128176Y-130060916D01*
X187915017Y-130174851D01*
X187728183Y-130328183D01*
X187574851Y-130515018D01*
X187460916Y-130728177D01*
X187390755Y-130959467D01*
X187373000Y-131139733D01*
X186327000Y-131139733D01*
X186327000Y-131139732D01*
X186309245Y-130959466D01*
X186239084Y-130728176D01*
X186125149Y-130515017D01*
X185971817Y-130328183D01*
X185784982Y-130174851D01*
X185571823Y-130060916D01*
X185340533Y-129990755D01*
X185100000Y-129967064D01*
X184859466Y-129990755D01*
X184628176Y-130060916D01*
X184415017Y-130174851D01*
X184228183Y-130328183D01*
X184074851Y-130515018D01*
X183960916Y-130728177D01*
X183890755Y-130959467D01*
X183873000Y-131139733D01*
X182827000Y-131139733D01*
X182827000Y-131139732D01*
X182809245Y-130959466D01*
X182739084Y-130728176D01*
X182625149Y-130515017D01*
X182471817Y-130328183D01*
X182284982Y-130174851D01*
X182071823Y-130060916D01*
X181840533Y-129990755D01*
X181600000Y-129967064D01*
X181359466Y-129990755D01*
X181128176Y-130060916D01*
X180915017Y-130174851D01*
X180728183Y-130328183D01*
X180574851Y-130515018D01*
X180460916Y-130728177D01*
X180390755Y-130959467D01*
X180373000Y-131139733D01*
X179327000Y-131139733D01*
X179327000Y-131139732D01*
X179309245Y-130959466D01*
X179239084Y-130728176D01*
X179125149Y-130515017D01*
X178971817Y-130328183D01*
X178784982Y-130174851D01*
X178571823Y-130060916D01*
X178340533Y-129990755D01*
X178100000Y-129967064D01*
X177859466Y-129990755D01*
X177628176Y-130060916D01*
X177415017Y-130174851D01*
X177228183Y-130328183D01*
X177074851Y-130515018D01*
X176960916Y-130728177D01*
X176890755Y-130959467D01*
X176873000Y-131139733D01*
X175827000Y-131139733D01*
X175827000Y-131139732D01*
X175809245Y-130959466D01*
X175739084Y-130728176D01*
X175625149Y-130515017D01*
X175471817Y-130328183D01*
X175284982Y-130174851D01*
X175071823Y-130060916D01*
X174840533Y-129990755D01*
X174600000Y-129967064D01*
X174359466Y-129990755D01*
X174128176Y-130060916D01*
X173915017Y-130174851D01*
X173728183Y-130328183D01*
X173574851Y-130515018D01*
X173460916Y-130728177D01*
X173390755Y-130959467D01*
X173373000Y-131139733D01*
X172327000Y-131139733D01*
X172327000Y-131139732D01*
X172309245Y-130959466D01*
X172239084Y-130728176D01*
X172125149Y-130515017D01*
X171971817Y-130328183D01*
X171784982Y-130174851D01*
X171571823Y-130060916D01*
X171340533Y-129990755D01*
X171100000Y-129967064D01*
X170859466Y-129990755D01*
X170628176Y-130060916D01*
X170415017Y-130174851D01*
X170228183Y-130328183D01*
X170074851Y-130515018D01*
X169960916Y-130728177D01*
X169890755Y-130959467D01*
X169873000Y-131139733D01*
X168827000Y-131139733D01*
X168827000Y-131139732D01*
X168809245Y-130959466D01*
X168739084Y-130728176D01*
X168625149Y-130515017D01*
X168471817Y-130328183D01*
X168284982Y-130174851D01*
X168071823Y-130060916D01*
X167840533Y-129990755D01*
X167600000Y-129967064D01*
X167359466Y-129990755D01*
X167128176Y-130060916D01*
X166915017Y-130174851D01*
X166728183Y-130328183D01*
X166574851Y-130515018D01*
X166460916Y-130728177D01*
X166390755Y-130959467D01*
X166373000Y-131139733D01*
X165328582Y-131139733D01*
X165328582Y-130550000D01*
X165317465Y-130437124D01*
X165284540Y-130328586D01*
X165231073Y-130228557D01*
X165159119Y-130140881D01*
X165071443Y-130068927D01*
X164971414Y-130015460D01*
X164862876Y-129982535D01*
X164750000Y-129971418D01*
X163450000Y-129971418D01*
X163337124Y-129982535D01*
X163228586Y-130015460D01*
X163128557Y-130068927D01*
X163040881Y-130140881D01*
X162968927Y-130228557D01*
X162915460Y-130328586D01*
X162882535Y-130437124D01*
X162871418Y-130550000D01*
X157212635Y-130550000D01*
X157249062Y-130462058D01*
X157277000Y-130321603D01*
X157277000Y-130178397D01*
X157249062Y-130037942D01*
X157194259Y-129905636D01*
X157114698Y-129786564D01*
X157080200Y-129752066D01*
X157080200Y-126376043D01*
X157082765Y-126350000D01*
X157072528Y-126246062D01*
X157042211Y-126146121D01*
X157042211Y-126146120D01*
X156992978Y-126054012D01*
X156926722Y-125973278D01*
X156906491Y-125956675D01*
X156443329Y-125493514D01*
X156426722Y-125473278D01*
X156345988Y-125407022D01*
X156253880Y-125357789D01*
X156153937Y-125327472D01*
X156076043Y-125319800D01*
X156076040Y-125319800D01*
X156050000Y-125317235D01*
X156023960Y-125319800D01*
X148769616Y-125319800D01*
X143980200Y-120530385D01*
X143980200Y-97778397D01*
X145823000Y-97778397D01*
X145823000Y-97921603D01*
X145850938Y-98062058D01*
X145905741Y-98194364D01*
X145985302Y-98313436D01*
X146019801Y-98347935D01*
X146019800Y-110126042D01*
X146019801Y-110126052D01*
X146019800Y-118323960D01*
X146017235Y-118350000D01*
X146019800Y-118376040D01*
X146019800Y-118376042D01*
X146027472Y-118453936D01*
X146057789Y-118553879D01*
X146107022Y-118645988D01*
X146173278Y-118726722D01*
X146193514Y-118743329D01*
X150906675Y-123456491D01*
X150923278Y-123476722D01*
X151004012Y-123542978D01*
X151096120Y-123592211D01*
X151196063Y-123622528D01*
X151273957Y-123630200D01*
X151273959Y-123630200D01*
X151299999Y-123632765D01*
X151326039Y-123630200D01*
X159752066Y-123630200D01*
X159786564Y-123664698D01*
X159905636Y-123744259D01*
X160037942Y-123799062D01*
X160178397Y-123827000D01*
X160321603Y-123827000D01*
X160462058Y-123799062D01*
X160594364Y-123744259D01*
X160713436Y-123664698D01*
X160814698Y-123563436D01*
X160894259Y-123444364D01*
X160949062Y-123312058D01*
X160977000Y-123171603D01*
X160977000Y-123028397D01*
X160949062Y-122887942D01*
X160894259Y-122755636D01*
X160814698Y-122636564D01*
X160713436Y-122535302D01*
X160594364Y-122455741D01*
X160462058Y-122400938D01*
X160321603Y-122373000D01*
X160178397Y-122373000D01*
X160037942Y-122400938D01*
X159905636Y-122455741D01*
X159786564Y-122535302D01*
X159752066Y-122569800D01*
X151519616Y-122569800D01*
X149478213Y-120528397D01*
X154673000Y-120528397D01*
X154673000Y-120671603D01*
X154700938Y-120812058D01*
X154755741Y-120944364D01*
X154835302Y-121063436D01*
X154936564Y-121164698D01*
X155055636Y-121244259D01*
X155187942Y-121299062D01*
X155328397Y-121327000D01*
X155471603Y-121327000D01*
X155612058Y-121299062D01*
X155744364Y-121244259D01*
X155863436Y-121164698D01*
X155964698Y-121063436D01*
X156044259Y-120944364D01*
X156099062Y-120812058D01*
X156127000Y-120671603D01*
X156127000Y-120622815D01*
X158019616Y-118730200D01*
X169873960Y-118730200D01*
X169900000Y-118732765D01*
X169926040Y-118730200D01*
X169926043Y-118730200D01*
X170003937Y-118722528D01*
X170103880Y-118692211D01*
X170195988Y-118642978D01*
X170276722Y-118576722D01*
X170293329Y-118556486D01*
X171471418Y-117378397D01*
X174573000Y-117378397D01*
X174573000Y-117521603D01*
X174600938Y-117662058D01*
X174655741Y-117794364D01*
X174735302Y-117913436D01*
X174769800Y-117947934D01*
X174769801Y-121423950D01*
X174767235Y-121450000D01*
X174776530Y-121544364D01*
X174777473Y-121553937D01*
X174807790Y-121653880D01*
X174857023Y-121745988D01*
X174923279Y-121826722D01*
X174943510Y-121843325D01*
X175256671Y-122156486D01*
X175273278Y-122176722D01*
X175354012Y-122242978D01*
X175446120Y-122292211D01*
X175515745Y-122313331D01*
X175546062Y-122322528D01*
X175650000Y-122332765D01*
X175676043Y-122330200D01*
X182430385Y-122330200D01*
X182736025Y-122635841D01*
X182735302Y-122636564D01*
X182655741Y-122755636D01*
X182600938Y-122887942D01*
X182573000Y-123028397D01*
X182573000Y-123171603D01*
X182600938Y-123312058D01*
X182655741Y-123444364D01*
X182735302Y-123563436D01*
X182836564Y-123664698D01*
X182955636Y-123744259D01*
X183087942Y-123799062D01*
X183228397Y-123827000D01*
X183371603Y-123827000D01*
X183512058Y-123799062D01*
X183644364Y-123744259D01*
X183763436Y-123664698D01*
X183864698Y-123563436D01*
X183944259Y-123444364D01*
X183999062Y-123312058D01*
X184027000Y-123171603D01*
X184027000Y-123028397D01*
X183999062Y-122887942D01*
X183944259Y-122755636D01*
X183864698Y-122636564D01*
X183830200Y-122602066D01*
X183830200Y-122476043D01*
X183832765Y-122450000D01*
X183822528Y-122346062D01*
X183806192Y-122292210D01*
X183792211Y-122246120D01*
X183742978Y-122154012D01*
X183676722Y-122073278D01*
X183656491Y-122056675D01*
X183043329Y-121443514D01*
X183026722Y-121423278D01*
X182945988Y-121357022D01*
X182853880Y-121307789D01*
X182753937Y-121277472D01*
X182676043Y-121269800D01*
X182676040Y-121269800D01*
X182650000Y-121267235D01*
X182623960Y-121269800D01*
X175869615Y-121269800D01*
X175830200Y-121230385D01*
X175830200Y-117947934D01*
X175864698Y-117913436D01*
X175903987Y-117854635D01*
X178593000Y-117854635D01*
X178593000Y-118365364D01*
X178609307Y-118530930D01*
X178673750Y-118743370D01*
X178778400Y-118939157D01*
X178919235Y-119110765D01*
X179090843Y-119251600D01*
X179286629Y-119356250D01*
X179499069Y-119420693D01*
X179720000Y-119442453D01*
X179940930Y-119420693D01*
X180153370Y-119356250D01*
X180349157Y-119251600D01*
X180520765Y-119110765D01*
X180661600Y-118939157D01*
X180766250Y-118743371D01*
X180830693Y-118530931D01*
X180834391Y-118493390D01*
X180885404Y-118739306D01*
X180995570Y-118999227D01*
X181154327Y-119232662D01*
X181355575Y-119430639D01*
X181591579Y-119585551D01*
X181853270Y-119691444D01*
X181910961Y-119701904D01*
X182133000Y-119579915D01*
X182133000Y-118237000D01*
X182113000Y-118237000D01*
X182113000Y-117983000D01*
X182133000Y-117983000D01*
X182133000Y-116640085D01*
X182387000Y-116640085D01*
X182387000Y-117983000D01*
X182407000Y-117983000D01*
X182407000Y-118237000D01*
X182387000Y-118237000D01*
X182387000Y-119579915D01*
X182609039Y-119701904D01*
X182666730Y-119691444D01*
X182928421Y-119585551D01*
X183164425Y-119430639D01*
X183365673Y-119232662D01*
X183524430Y-118999227D01*
X183634596Y-118739306D01*
X183685610Y-118493390D01*
X183689307Y-118530930D01*
X183753750Y-118743370D01*
X183858400Y-118939157D01*
X183999235Y-119110765D01*
X184170843Y-119251600D01*
X184366629Y-119356250D01*
X184579069Y-119420693D01*
X184800000Y-119442453D01*
X185020930Y-119420693D01*
X185233370Y-119356250D01*
X185429157Y-119251600D01*
X185600765Y-119110765D01*
X185741600Y-118939157D01*
X185846250Y-118743371D01*
X185910693Y-118530931D01*
X185927000Y-118365365D01*
X185927000Y-117854636D01*
X185927000Y-117854635D01*
X186213000Y-117854635D01*
X186213000Y-118365364D01*
X186229307Y-118530930D01*
X186293750Y-118743370D01*
X186398400Y-118939157D01*
X186539235Y-119110765D01*
X186710843Y-119251600D01*
X186906629Y-119356250D01*
X187119069Y-119420693D01*
X187340000Y-119442453D01*
X187560930Y-119420693D01*
X187773370Y-119356250D01*
X187969157Y-119251600D01*
X188140765Y-119110765D01*
X188281600Y-118939157D01*
X188386250Y-118743371D01*
X188450693Y-118530931D01*
X188467000Y-118365365D01*
X188467000Y-117854636D01*
X188450693Y-117689070D01*
X188386250Y-117476630D01*
X188281600Y-117280843D01*
X188140765Y-117109235D01*
X187969157Y-116968400D01*
X187773371Y-116863750D01*
X187560931Y-116799307D01*
X187340000Y-116777547D01*
X187119070Y-116799307D01*
X186906630Y-116863750D01*
X186710844Y-116968400D01*
X186539236Y-117109235D01*
X186398401Y-117280843D01*
X186293750Y-117476629D01*
X186229307Y-117689069D01*
X186213000Y-117854635D01*
X185927000Y-117854635D01*
X185910693Y-117689070D01*
X185846250Y-117476630D01*
X185741600Y-117280843D01*
X185600765Y-117109235D01*
X185429157Y-116968400D01*
X185233371Y-116863750D01*
X185020931Y-116799307D01*
X184800000Y-116777547D01*
X184579070Y-116799307D01*
X184366630Y-116863750D01*
X184170844Y-116968400D01*
X183999236Y-117109235D01*
X183858401Y-117280843D01*
X183753750Y-117476629D01*
X183689307Y-117689069D01*
X183685609Y-117726610D01*
X183634596Y-117480694D01*
X183524430Y-117220773D01*
X183365673Y-116987338D01*
X183164425Y-116789361D01*
X182928421Y-116634449D01*
X182666730Y-116528556D01*
X182609039Y-116518096D01*
X182387000Y-116640085D01*
X182133000Y-116640085D01*
X181910961Y-116518096D01*
X181853270Y-116528556D01*
X181591579Y-116634449D01*
X181355575Y-116789361D01*
X181154327Y-116987338D01*
X180995570Y-117220773D01*
X180885404Y-117480694D01*
X180834390Y-117726610D01*
X180830693Y-117689070D01*
X180766250Y-117476630D01*
X180682000Y-117319009D01*
X180682000Y-116778472D01*
X184398473Y-113062000D01*
X202302750Y-113062000D01*
X202350000Y-113066654D01*
X202397250Y-113062000D01*
X202397253Y-113062000D01*
X202538585Y-113048080D01*
X202719922Y-112993072D01*
X202887044Y-112903743D01*
X203033528Y-112783528D01*
X203063658Y-112746814D01*
X205996819Y-109813654D01*
X206033528Y-109783528D01*
X206153743Y-109637044D01*
X206243072Y-109469922D01*
X206298080Y-109288585D01*
X206312000Y-109147253D01*
X206312000Y-109147250D01*
X206316654Y-109100000D01*
X206312000Y-109052750D01*
X206312000Y-94810207D01*
X210573000Y-94810207D01*
X210573000Y-95189793D01*
X210647053Y-95562085D01*
X210792315Y-95912777D01*
X211003201Y-96228391D01*
X211271609Y-96496799D01*
X211587223Y-96707685D01*
X211937915Y-96852947D01*
X212310207Y-96927000D01*
X212689793Y-96927000D01*
X213062085Y-96852947D01*
X213412777Y-96707685D01*
X213728391Y-96496799D01*
X213996799Y-96228391D01*
X214207685Y-95912777D01*
X214352947Y-95562085D01*
X214427000Y-95189793D01*
X214427000Y-94810207D01*
X214352947Y-94437915D01*
X214207685Y-94087223D01*
X213996799Y-93771609D01*
X213728391Y-93503201D01*
X213412777Y-93292315D01*
X213062085Y-93147053D01*
X212689793Y-93073000D01*
X212310207Y-93073000D01*
X211937915Y-93147053D01*
X211587223Y-93292315D01*
X211271609Y-93503201D01*
X211003201Y-93771609D01*
X210792315Y-94087223D01*
X210647053Y-94437915D01*
X210573000Y-94810207D01*
X206312000Y-94810207D01*
X206312000Y-71297249D01*
X206316654Y-71249999D01*
X206312000Y-71202747D01*
X206298080Y-71061415D01*
X206243072Y-70880078D01*
X206243071Y-70880076D01*
X206153743Y-70712955D01*
X206109896Y-70659528D01*
X206033528Y-70566472D01*
X205996819Y-70536346D01*
X202063658Y-66603186D01*
X202033528Y-66566472D01*
X201887044Y-66446257D01*
X201719922Y-66356928D01*
X201538585Y-66301920D01*
X201397253Y-66288000D01*
X201397250Y-66288000D01*
X201350000Y-66283346D01*
X201302750Y-66288000D01*
X188486817Y-66288000D01*
X188430748Y-66204087D01*
X188245913Y-66019252D01*
X188028570Y-65874028D01*
X187787072Y-65773996D01*
X187530698Y-65723000D01*
X187269302Y-65723000D01*
X187012928Y-65773996D01*
X186771430Y-65874028D01*
X186554087Y-66019252D01*
X186369252Y-66204087D01*
X186224028Y-66421430D01*
X186123996Y-66662928D01*
X186073000Y-66919302D01*
X186073000Y-67180698D01*
X186123996Y-67437072D01*
X186224028Y-67678570D01*
X186369252Y-67895913D01*
X186554087Y-68080748D01*
X186771430Y-68225972D01*
X187012928Y-68326004D01*
X187269302Y-68377000D01*
X187530698Y-68377000D01*
X187787072Y-68326004D01*
X188028570Y-68225972D01*
X188049481Y-68212000D01*
X200951528Y-68212000D01*
X204388001Y-71648474D01*
X204388000Y-108701527D01*
X201951528Y-111138000D01*
X184047249Y-111138000D01*
X183999999Y-111133346D01*
X183952749Y-111138000D01*
X183952747Y-111138000D01*
X183811415Y-111151920D01*
X183630078Y-111206928D01*
X183556757Y-111246119D01*
X183462955Y-111296257D01*
X183409528Y-111340104D01*
X183316472Y-111416472D01*
X183286346Y-111453181D01*
X179073182Y-115666346D01*
X179036473Y-115696472D01*
X178969685Y-115777854D01*
X178916257Y-115842956D01*
X178830211Y-116003937D01*
X178826929Y-116010078D01*
X178798475Y-116103880D01*
X178771921Y-116191416D01*
X178753346Y-116380000D01*
X178758001Y-116427260D01*
X178758000Y-117319009D01*
X178673750Y-117476629D01*
X178609307Y-117689069D01*
X178593000Y-117854635D01*
X175903987Y-117854635D01*
X175944259Y-117794364D01*
X175999062Y-117662058D01*
X176027000Y-117521603D01*
X176027000Y-117378397D01*
X175999062Y-117237942D01*
X175944259Y-117105636D01*
X175864698Y-116986564D01*
X175763436Y-116885302D01*
X175644364Y-116805741D01*
X175512058Y-116750938D01*
X175371603Y-116723000D01*
X175228397Y-116723000D01*
X175087942Y-116750938D01*
X174955636Y-116805741D01*
X174836564Y-116885302D01*
X174735302Y-116986564D01*
X174655741Y-117105636D01*
X174600938Y-117237942D01*
X174573000Y-117378397D01*
X171471418Y-117378397D01*
X176869616Y-111980200D01*
X179873960Y-111980200D01*
X179900000Y-111982765D01*
X179926040Y-111980200D01*
X179926043Y-111980200D01*
X180003937Y-111972528D01*
X180103880Y-111942211D01*
X180195988Y-111892978D01*
X180276722Y-111826722D01*
X180293329Y-111806486D01*
X190236491Y-101863325D01*
X190256722Y-101846722D01*
X190322978Y-101765988D01*
X190372211Y-101673880D01*
X190402528Y-101573937D01*
X190410200Y-101496043D01*
X190410200Y-101496041D01*
X190412765Y-101470001D01*
X190410200Y-101443961D01*
X190410200Y-96444493D01*
X190509157Y-96391600D01*
X190680765Y-96250765D01*
X190821600Y-96079157D01*
X190926250Y-95883371D01*
X190990693Y-95670931D01*
X191007000Y-95505365D01*
X191007000Y-94994636D01*
X191007000Y-94994635D01*
X191293000Y-94994635D01*
X191293000Y-95505364D01*
X191309307Y-95670930D01*
X191373750Y-95883370D01*
X191478400Y-96079157D01*
X191619235Y-96250765D01*
X191790843Y-96391600D01*
X191889800Y-96444494D01*
X191889800Y-97155426D01*
X191877473Y-97196063D01*
X191867235Y-97300000D01*
X191877473Y-97403937D01*
X191907790Y-97503880D01*
X191957023Y-97595988D01*
X192004534Y-97653880D01*
X192023279Y-97676721D01*
X192043505Y-97693320D01*
X192156671Y-97806486D01*
X192173278Y-97826722D01*
X192254012Y-97892978D01*
X192346120Y-97942211D01*
X192446063Y-97972528D01*
X192523957Y-97980200D01*
X192523959Y-97980200D01*
X192549999Y-97982765D01*
X192576039Y-97980200D01*
X197473958Y-97980200D01*
X197500000Y-97982765D01*
X197603937Y-97972528D01*
X197703880Y-97942211D01*
X197795988Y-97892978D01*
X197876722Y-97826722D01*
X197942978Y-97745988D01*
X197992211Y-97653880D01*
X198022528Y-97553937D01*
X198030200Y-97476043D01*
X198032765Y-97450000D01*
X198030200Y-97423957D01*
X198030200Y-96578582D01*
X198500000Y-96578582D01*
X198564103Y-96572268D01*
X198625743Y-96553570D01*
X198682550Y-96523206D01*
X198732343Y-96482343D01*
X198773206Y-96432550D01*
X198803570Y-96375743D01*
X198822268Y-96314103D01*
X198828582Y-96250000D01*
X198828582Y-94250000D01*
X198822268Y-94185897D01*
X198803570Y-94124257D01*
X198773206Y-94067450D01*
X198732343Y-94017657D01*
X198682550Y-93976794D01*
X198625743Y-93946430D01*
X198564103Y-93927732D01*
X198500000Y-93921418D01*
X196500000Y-93921418D01*
X196435897Y-93927732D01*
X196374257Y-93946430D01*
X196317450Y-93976794D01*
X196267657Y-94017657D01*
X196226794Y-94067450D01*
X196196430Y-94124257D01*
X196177732Y-94185897D01*
X196171418Y-94250000D01*
X196171418Y-96250000D01*
X196177732Y-96314103D01*
X196196430Y-96375743D01*
X196226794Y-96432550D01*
X196267657Y-96482343D01*
X196317450Y-96523206D01*
X196374257Y-96553570D01*
X196435897Y-96572268D01*
X196500000Y-96578582D01*
X196969801Y-96578582D01*
X196969801Y-96919800D01*
X192950200Y-96919800D01*
X192950200Y-96444493D01*
X193049157Y-96391600D01*
X193220765Y-96250765D01*
X193361600Y-96079157D01*
X193466250Y-95883371D01*
X193530693Y-95670931D01*
X193547000Y-95505365D01*
X193547000Y-94994636D01*
X193530693Y-94829070D01*
X193466250Y-94616630D01*
X193361600Y-94420843D01*
X193220765Y-94249235D01*
X193049157Y-94108400D01*
X192853371Y-94003750D01*
X192640931Y-93939307D01*
X192420000Y-93917547D01*
X192199070Y-93939307D01*
X191986630Y-94003750D01*
X191790844Y-94108400D01*
X191619236Y-94249235D01*
X191478401Y-94420843D01*
X191373750Y-94616629D01*
X191309307Y-94829069D01*
X191293000Y-94994635D01*
X191007000Y-94994635D01*
X190990693Y-94829070D01*
X190926250Y-94616630D01*
X190821600Y-94420843D01*
X190680765Y-94249235D01*
X190509157Y-94108400D01*
X190313371Y-94003750D01*
X190100931Y-93939307D01*
X189880000Y-93917547D01*
X189659070Y-93939307D01*
X189446630Y-94003750D01*
X189250844Y-94108400D01*
X189079236Y-94249235D01*
X188938401Y-94420843D01*
X188833750Y-94616629D01*
X188769307Y-94829069D01*
X188753000Y-94994635D01*
X188753000Y-95505364D01*
X188769307Y-95670930D01*
X188833750Y-95883370D01*
X188938400Y-96079157D01*
X189079235Y-96250765D01*
X189250843Y-96391600D01*
X189349801Y-96444494D01*
X189349800Y-101250384D01*
X179680385Y-110919800D01*
X176676043Y-110919800D01*
X176650000Y-110917235D01*
X176546062Y-110927472D01*
X176515745Y-110936669D01*
X176446120Y-110957789D01*
X176354012Y-111007022D01*
X176273278Y-111073278D01*
X176256676Y-111093508D01*
X169680385Y-117669800D01*
X157826043Y-117669800D01*
X157800000Y-117667235D01*
X157696062Y-117677472D01*
X157665745Y-117686669D01*
X157596120Y-117707789D01*
X157504012Y-117757022D01*
X157423278Y-117823278D01*
X157406676Y-117843508D01*
X155377185Y-119873000D01*
X155328397Y-119873000D01*
X155187942Y-119900938D01*
X155055636Y-119955741D01*
X154936564Y-120035302D01*
X154835302Y-120136564D01*
X154755741Y-120255636D01*
X154700938Y-120387942D01*
X154673000Y-120528397D01*
X149478213Y-120528397D01*
X147080200Y-118130385D01*
X147080200Y-114928397D01*
X149373000Y-114928397D01*
X149373000Y-115071603D01*
X149400938Y-115212058D01*
X149455741Y-115344364D01*
X149535302Y-115463436D01*
X149636564Y-115564698D01*
X149755636Y-115644259D01*
X149887942Y-115699062D01*
X150028397Y-115727000D01*
X150171603Y-115727000D01*
X150312058Y-115699062D01*
X150444364Y-115644259D01*
X150563436Y-115564698D01*
X150597934Y-115530200D01*
X159523960Y-115530200D01*
X159550000Y-115532765D01*
X159576040Y-115530200D01*
X159576043Y-115530200D01*
X159653937Y-115522528D01*
X159753880Y-115492211D01*
X159845988Y-115442978D01*
X159926722Y-115376722D01*
X159943329Y-115356486D01*
X160706491Y-114593325D01*
X160726722Y-114576722D01*
X160734143Y-114567680D01*
X160813436Y-114514698D01*
X160914698Y-114413436D01*
X160994259Y-114294364D01*
X161049062Y-114162058D01*
X161077000Y-114021603D01*
X161077000Y-113878397D01*
X161049062Y-113737942D01*
X160994259Y-113605636D01*
X160914698Y-113486564D01*
X160813436Y-113385302D01*
X160694364Y-113305741D01*
X160562058Y-113250938D01*
X160421603Y-113223000D01*
X160278397Y-113223000D01*
X160137942Y-113250938D01*
X160005636Y-113305741D01*
X159886564Y-113385302D01*
X159785302Y-113486564D01*
X159705741Y-113605636D01*
X159650938Y-113737942D01*
X159623000Y-113878397D01*
X159623000Y-114021603D01*
X159648812Y-114151372D01*
X159330385Y-114469800D01*
X150597934Y-114469800D01*
X150563436Y-114435302D01*
X150444364Y-114355741D01*
X150312058Y-114300938D01*
X150171603Y-114273000D01*
X150028397Y-114273000D01*
X149887942Y-114300938D01*
X149755636Y-114355741D01*
X149636564Y-114435302D01*
X149535302Y-114536564D01*
X149455741Y-114655636D01*
X149400938Y-114787942D01*
X149373000Y-114928397D01*
X147080200Y-114928397D01*
X147080200Y-108678397D01*
X168173000Y-108678397D01*
X168173000Y-108821603D01*
X168200938Y-108962058D01*
X168255741Y-109094364D01*
X168335302Y-109213436D01*
X168436564Y-109314698D01*
X168555636Y-109394259D01*
X168687942Y-109449062D01*
X168828397Y-109477000D01*
X168971603Y-109477000D01*
X169112058Y-109449062D01*
X169244364Y-109394259D01*
X169363436Y-109314698D01*
X169397934Y-109280200D01*
X177402066Y-109280200D01*
X177486564Y-109364698D01*
X177605636Y-109444259D01*
X177737942Y-109499062D01*
X177878397Y-109527000D01*
X178021603Y-109527000D01*
X178162058Y-109499062D01*
X178294364Y-109444259D01*
X178413436Y-109364698D01*
X178514698Y-109263436D01*
X178594259Y-109144364D01*
X178649062Y-109012058D01*
X178677000Y-108871603D01*
X178677000Y-108728397D01*
X178649062Y-108587942D01*
X178594259Y-108455636D01*
X178514698Y-108336564D01*
X178413436Y-108235302D01*
X178294364Y-108155741D01*
X178162058Y-108100938D01*
X178021603Y-108073000D01*
X177878397Y-108073000D01*
X177737942Y-108100938D01*
X177605636Y-108155741D01*
X177509764Y-108219800D01*
X169397934Y-108219800D01*
X169363436Y-108185302D01*
X169244364Y-108105741D01*
X169112058Y-108050938D01*
X168971603Y-108023000D01*
X168828397Y-108023000D01*
X168687942Y-108050938D01*
X168555636Y-108105741D01*
X168436564Y-108185302D01*
X168335302Y-108286564D01*
X168255741Y-108405636D01*
X168200938Y-108537942D01*
X168173000Y-108678397D01*
X147080200Y-108678397D01*
X147080200Y-107228397D01*
X161873000Y-107228397D01*
X161873000Y-107371603D01*
X161900938Y-107512058D01*
X161955741Y-107644364D01*
X162035302Y-107763436D01*
X162136564Y-107864698D01*
X162255636Y-107944259D01*
X162387942Y-107999062D01*
X162528397Y-108027000D01*
X162671603Y-108027000D01*
X162812058Y-107999062D01*
X162944364Y-107944259D01*
X163063436Y-107864698D01*
X163164698Y-107763436D01*
X163244259Y-107644364D01*
X163299062Y-107512058D01*
X163327000Y-107371603D01*
X163327000Y-107228397D01*
X163299062Y-107087942D01*
X163244259Y-106955636D01*
X163164698Y-106836564D01*
X163130200Y-106802066D01*
X163130200Y-104228397D01*
X168823000Y-104228397D01*
X168823000Y-104371603D01*
X168850938Y-104512058D01*
X168905741Y-104644364D01*
X168985302Y-104763436D01*
X169086564Y-104864698D01*
X169205636Y-104944259D01*
X169337942Y-104999062D01*
X169478397Y-105027000D01*
X169621603Y-105027000D01*
X169762058Y-104999062D01*
X169894364Y-104944259D01*
X170013436Y-104864698D01*
X170047934Y-104830200D01*
X182923960Y-104830200D01*
X182950000Y-104832765D01*
X182976040Y-104830200D01*
X182976043Y-104830200D01*
X183053937Y-104822528D01*
X183153880Y-104792211D01*
X183245988Y-104742978D01*
X183326722Y-104676722D01*
X183343329Y-104656486D01*
X185156491Y-102843325D01*
X185176722Y-102826722D01*
X185242978Y-102745988D01*
X185292211Y-102653880D01*
X185322528Y-102553937D01*
X185330200Y-102476043D01*
X185330200Y-102476041D01*
X185332765Y-102450001D01*
X185330200Y-102423961D01*
X185330200Y-96444493D01*
X185429157Y-96391600D01*
X185600765Y-96250765D01*
X185741600Y-96079157D01*
X185846250Y-95883371D01*
X185910693Y-95670931D01*
X185927000Y-95505365D01*
X185927000Y-94994636D01*
X185927000Y-94994635D01*
X186213000Y-94994635D01*
X186213000Y-95505364D01*
X186229307Y-95670930D01*
X186293750Y-95883370D01*
X186398400Y-96079157D01*
X186539235Y-96250765D01*
X186710843Y-96391600D01*
X186906629Y-96496250D01*
X187119069Y-96560693D01*
X187340000Y-96582453D01*
X187560930Y-96560693D01*
X187773370Y-96496250D01*
X187969157Y-96391600D01*
X188140765Y-96250765D01*
X188281600Y-96079157D01*
X188386250Y-95883371D01*
X188450693Y-95670931D01*
X188467000Y-95505365D01*
X188467000Y-94994636D01*
X188450693Y-94829070D01*
X188386250Y-94616630D01*
X188281600Y-94420843D01*
X188140765Y-94249235D01*
X187969157Y-94108400D01*
X187773371Y-94003750D01*
X187560931Y-93939307D01*
X187340000Y-93917547D01*
X187119070Y-93939307D01*
X186906630Y-94003750D01*
X186710844Y-94108400D01*
X186539236Y-94249235D01*
X186398401Y-94420843D01*
X186293750Y-94616629D01*
X186229307Y-94829069D01*
X186213000Y-94994635D01*
X185927000Y-94994635D01*
X185910693Y-94829070D01*
X185846250Y-94616630D01*
X185741600Y-94420843D01*
X185600765Y-94249235D01*
X185429157Y-94108400D01*
X185233371Y-94003750D01*
X185020931Y-93939307D01*
X184800000Y-93917547D01*
X184579070Y-93939307D01*
X184366630Y-94003750D01*
X184170844Y-94108400D01*
X183999236Y-94249235D01*
X183858401Y-94420843D01*
X183753750Y-94616629D01*
X183689307Y-94829069D01*
X183673000Y-94994635D01*
X183673000Y-95505364D01*
X183689307Y-95670930D01*
X183753750Y-95883370D01*
X183858400Y-96079157D01*
X183999235Y-96250765D01*
X184170843Y-96391600D01*
X184269801Y-96444494D01*
X184269800Y-102230384D01*
X182730385Y-103769800D01*
X170047934Y-103769800D01*
X170013436Y-103735302D01*
X169894364Y-103655741D01*
X169762058Y-103600938D01*
X169621603Y-103573000D01*
X169478397Y-103573000D01*
X169337942Y-103600938D01*
X169205636Y-103655741D01*
X169086564Y-103735302D01*
X168985302Y-103836564D01*
X168905741Y-103955636D01*
X168850938Y-104087942D01*
X168823000Y-104228397D01*
X163130200Y-104228397D01*
X163130200Y-97719302D01*
X167573000Y-97719302D01*
X167573000Y-97980698D01*
X167623996Y-98237072D01*
X167724028Y-98478570D01*
X167869252Y-98695913D01*
X168054087Y-98880748D01*
X168271430Y-99025972D01*
X168512928Y-99126004D01*
X168769302Y-99177000D01*
X169030698Y-99177000D01*
X169287072Y-99126004D01*
X169528570Y-99025972D01*
X169745913Y-98880748D01*
X169814661Y-98812000D01*
X177072750Y-98812000D01*
X177120000Y-98816654D01*
X177167250Y-98812000D01*
X177167253Y-98812000D01*
X177308585Y-98798080D01*
X177489922Y-98743072D01*
X177657044Y-98653743D01*
X177803528Y-98533528D01*
X177833658Y-98496814D01*
X179751081Y-96579392D01*
X179940930Y-96560693D01*
X180153370Y-96496250D01*
X180349157Y-96391600D01*
X180520765Y-96250765D01*
X180661600Y-96079157D01*
X180766250Y-95883371D01*
X180830693Y-95670931D01*
X180847000Y-95505365D01*
X180847000Y-94994636D01*
X180847000Y-94994635D01*
X181133000Y-94994635D01*
X181133000Y-95505364D01*
X181149307Y-95670930D01*
X181213750Y-95883370D01*
X181318400Y-96079157D01*
X181459235Y-96250765D01*
X181630843Y-96391600D01*
X181826629Y-96496250D01*
X182039069Y-96560693D01*
X182260000Y-96582453D01*
X182480930Y-96560693D01*
X182693370Y-96496250D01*
X182889157Y-96391600D01*
X183060765Y-96250765D01*
X183201600Y-96079157D01*
X183306250Y-95883371D01*
X183370693Y-95670931D01*
X183387000Y-95505365D01*
X183387000Y-94994636D01*
X183370693Y-94829070D01*
X183306250Y-94616630D01*
X183201600Y-94420843D01*
X183060765Y-94249235D01*
X182889157Y-94108400D01*
X182693371Y-94003750D01*
X182480931Y-93939307D01*
X182260000Y-93917547D01*
X182039070Y-93939307D01*
X181826630Y-94003750D01*
X181630844Y-94108400D01*
X181459236Y-94249235D01*
X181318401Y-94420843D01*
X181213750Y-94616629D01*
X181149307Y-94829069D01*
X181133000Y-94994635D01*
X180847000Y-94994635D01*
X180830693Y-94829070D01*
X180766250Y-94616630D01*
X180661600Y-94420843D01*
X180520765Y-94249235D01*
X180349157Y-94108400D01*
X180153371Y-94003750D01*
X179940931Y-93939307D01*
X179720000Y-93917547D01*
X179499070Y-93939307D01*
X179286630Y-94003750D01*
X179090844Y-94108400D01*
X178919236Y-94249235D01*
X178778401Y-94420843D01*
X178673750Y-94616629D01*
X178609307Y-94829069D01*
X178593000Y-94994635D01*
X178593000Y-95016527D01*
X176721528Y-96888000D01*
X169814661Y-96888000D01*
X169745913Y-96819252D01*
X169528570Y-96674028D01*
X169287072Y-96573996D01*
X169030698Y-96523000D01*
X168769302Y-96523000D01*
X168512928Y-96573996D01*
X168271430Y-96674028D01*
X168054087Y-96819252D01*
X167869252Y-97004087D01*
X167724028Y-97221430D01*
X167623996Y-97462928D01*
X167573000Y-97719302D01*
X163130200Y-97719302D01*
X163130200Y-89219615D01*
X167769616Y-84580200D01*
X174902066Y-84580200D01*
X174936564Y-84614698D01*
X175055636Y-84694259D01*
X175187942Y-84749062D01*
X175328397Y-84777000D01*
X175471603Y-84777000D01*
X175612058Y-84749062D01*
X175744364Y-84694259D01*
X175863436Y-84614698D01*
X175964698Y-84513436D01*
X176044259Y-84394364D01*
X176099062Y-84262058D01*
X176127000Y-84121603D01*
X176127000Y-83978397D01*
X176099062Y-83837942D01*
X176044259Y-83705636D01*
X175964698Y-83586564D01*
X175863436Y-83485302D01*
X175744364Y-83405741D01*
X175612058Y-83350938D01*
X175471603Y-83323000D01*
X175328397Y-83323000D01*
X175187942Y-83350938D01*
X175055636Y-83405741D01*
X174936564Y-83485302D01*
X174902066Y-83519800D01*
X167576039Y-83519800D01*
X167549999Y-83517235D01*
X167523959Y-83519800D01*
X167523957Y-83519800D01*
X167446063Y-83527472D01*
X167346120Y-83557789D01*
X167254012Y-83607022D01*
X167173278Y-83673278D01*
X167156675Y-83693509D01*
X162243514Y-88606671D01*
X162223278Y-88623278D01*
X162157022Y-88704012D01*
X162107789Y-88796121D01*
X162077472Y-88896064D01*
X162069800Y-88973957D01*
X162067235Y-89000000D01*
X162069800Y-89026040D01*
X162069801Y-106802065D01*
X162035302Y-106836564D01*
X161955741Y-106955636D01*
X161900938Y-107087942D01*
X161873000Y-107228397D01*
X147080200Y-107228397D01*
X147080200Y-98347934D01*
X147114698Y-98313436D01*
X147194259Y-98194364D01*
X147249062Y-98062058D01*
X147277000Y-97921603D01*
X147277000Y-97778397D01*
X147249062Y-97637942D01*
X147194259Y-97505636D01*
X147114698Y-97386564D01*
X147013436Y-97285302D01*
X146894364Y-97205741D01*
X146762058Y-97150938D01*
X146621603Y-97123000D01*
X146478397Y-97123000D01*
X146337942Y-97150938D01*
X146205636Y-97205741D01*
X146086564Y-97285302D01*
X145985302Y-97386564D01*
X145905741Y-97505636D01*
X145850938Y-97637942D01*
X145823000Y-97778397D01*
X143980200Y-97778397D01*
X143980200Y-87152865D01*
X149687777Y-82530200D01*
X181821649Y-82530200D01*
X185632928Y-85421517D01*
X185650938Y-85512058D01*
X185705741Y-85644364D01*
X185785302Y-85763436D01*
X185886564Y-85864698D01*
X186005636Y-85944259D01*
X186137942Y-85999062D01*
X186278397Y-86027000D01*
X186421603Y-86027000D01*
X186562058Y-85999062D01*
X186694364Y-85944259D01*
X186813436Y-85864698D01*
X186914698Y-85763436D01*
X186994259Y-85644364D01*
X187049062Y-85512058D01*
X187077000Y-85371603D01*
X187077000Y-85228397D01*
X187049062Y-85087942D01*
X186994259Y-84955636D01*
X186914698Y-84836564D01*
X186813436Y-84735302D01*
X186694364Y-84655741D01*
X186562058Y-84600938D01*
X186421603Y-84573000D01*
X186278397Y-84573000D01*
X186270900Y-84574491D01*
X182581100Y-81775333D01*
X182542978Y-81704012D01*
X182476722Y-81623278D01*
X182395988Y-81557022D01*
X182303880Y-81507789D01*
X182203937Y-81477472D01*
X182126043Y-81469800D01*
X182041997Y-81469800D01*
X182031918Y-81468193D01*
X181989896Y-81469800D01*
X149501568Y-81469800D01*
X149451208Y-81469475D01*
X149423827Y-81474737D01*
X149396063Y-81477472D01*
X149372658Y-81484572D01*
X149348644Y-81489187D01*
X149322810Y-81499693D01*
X149296120Y-81507789D01*
X149274551Y-81519318D01*
X149251898Y-81528530D01*
X149228610Y-81543874D01*
X149204012Y-81557022D01*
X149164924Y-81589101D01*
X143155540Y-86456205D01*
X143154012Y-86457022D01*
X143114869Y-86489146D01*
X143096064Y-86504376D01*
X143094849Y-86505575D01*
X143073278Y-86523278D01*
X143057757Y-86542191D01*
X143040361Y-86559363D01*
X143024720Y-86582447D01*
X143007022Y-86604012D01*
X142995493Y-86625581D01*
X142981777Y-86645824D01*
X142970938Y-86671520D01*
X142957789Y-86696121D01*
X142950689Y-86719527D01*
X142941187Y-86742054D01*
X142935570Y-86769370D01*
X142927472Y-86796064D01*
X142925075Y-86820401D01*
X142920149Y-86844354D01*
X142919969Y-86872242D01*
X142919800Y-86873958D01*
X142919800Y-86898432D01*
X142919475Y-86948791D01*
X142919800Y-86950482D01*
X142919801Y-120723950D01*
X142917235Y-120750000D01*
X140780200Y-120750000D01*
X140780200Y-83707502D01*
X144183551Y-81030200D01*
X186473960Y-81030200D01*
X186500000Y-81032765D01*
X186526040Y-81030200D01*
X186526043Y-81030200D01*
X186603937Y-81022528D01*
X186703880Y-80992211D01*
X186795988Y-80942978D01*
X186876722Y-80876722D01*
X186893329Y-80856486D01*
X190669616Y-77080200D01*
X192902066Y-77080200D01*
X192936564Y-77114698D01*
X193055636Y-77194259D01*
X193187942Y-77249062D01*
X193328397Y-77277000D01*
X193471603Y-77277000D01*
X193612058Y-77249062D01*
X193744364Y-77194259D01*
X193863436Y-77114698D01*
X193964698Y-77013436D01*
X194044259Y-76894364D01*
X194099062Y-76762058D01*
X194127000Y-76621603D01*
X194127000Y-76478397D01*
X194099062Y-76337942D01*
X194044259Y-76205636D01*
X193964698Y-76086564D01*
X193863436Y-75985302D01*
X193744364Y-75905741D01*
X193612058Y-75850938D01*
X193471603Y-75823000D01*
X193328397Y-75823000D01*
X193187942Y-75850938D01*
X193055636Y-75905741D01*
X192936564Y-75985302D01*
X192902066Y-76019800D01*
X190476043Y-76019800D01*
X190450000Y-76017235D01*
X190346062Y-76027472D01*
X190321246Y-76035000D01*
X190246120Y-76057789D01*
X190154012Y-76107022D01*
X190073278Y-76173278D01*
X190056675Y-76193509D01*
X186280385Y-79969800D01*
X144005439Y-79969800D01*
X143958746Y-79968835D01*
X143927574Y-79974368D01*
X143896063Y-79977472D01*
X143876275Y-79983474D01*
X143855913Y-79987089D01*
X143826419Y-79998598D01*
X143796120Y-80007789D01*
X143777879Y-80017539D01*
X143758618Y-80025055D01*
X143731941Y-80042094D01*
X143704012Y-80057022D01*
X143667868Y-80086685D01*
X139958884Y-83004418D01*
X139954013Y-83007022D01*
X139917891Y-83036666D01*
X139901718Y-83049389D01*
X139897757Y-83053190D01*
X139873279Y-83073278D01*
X139860158Y-83089266D01*
X139845240Y-83103580D01*
X139827110Y-83129535D01*
X139807023Y-83154012D01*
X139797276Y-83172248D01*
X139785434Y-83189201D01*
X139772716Y-83218196D01*
X139757790Y-83246120D01*
X139751787Y-83265908D01*
X139743481Y-83284845D01*
X139736663Y-83315769D01*
X139727473Y-83346063D01*
X139725447Y-83366636D01*
X139720993Y-83386835D01*
X139720339Y-83418499D01*
X139719801Y-83423957D01*
X139719801Y-83444512D01*
X139718835Y-83491253D01*
X139719801Y-83496695D01*
X139719800Y-122523960D01*
X139717235Y-122550000D01*
X78152000Y-122550000D01*
X78152000Y-100007461D01*
X78152735Y-100000000D01*
X78149800Y-99970203D01*
X78141109Y-99941551D01*
X78126995Y-99915145D01*
X78108000Y-99892000D01*
X78084855Y-99873005D01*
X78058449Y-99858891D01*
X78029797Y-99850200D01*
X78007462Y-99848000D01*
X78000000Y-99847265D01*
X77992538Y-99848000D01*
X71652000Y-99848000D01*
X71652000Y-94810207D01*
X73573000Y-94810207D01*
X73573000Y-95189793D01*
X73647053Y-95562085D01*
X73792315Y-95912777D01*
X74003201Y-96228391D01*
X74271609Y-96496799D01*
X74587223Y-96707685D01*
X74937915Y-96852947D01*
X75310207Y-96927000D01*
X75689793Y-96927000D01*
X76062085Y-96852947D01*
X76412777Y-96707685D01*
X76728391Y-96496799D01*
X76996799Y-96228391D01*
X77207685Y-95912777D01*
X77352947Y-95562085D01*
X77427000Y-95189793D01*
X77427000Y-94810207D01*
X77352947Y-94437915D01*
X77207685Y-94087223D01*
X76996799Y-93771609D01*
X76728391Y-93503201D01*
X76412777Y-93292315D01*
X76062085Y-93147053D01*
X75689793Y-93073000D01*
X75310207Y-93073000D01*
X74937915Y-93147053D01*
X74587223Y-93292315D01*
X74271609Y-93503201D01*
X74003201Y-93771609D01*
X73792315Y-94087223D01*
X73647053Y-94437915D01*
X73573000Y-94810207D01*
X71652000Y-94810207D01*
X71652000Y-90152000D01*
X77992538Y-90152000D01*
X78000000Y-90152735D01*
X78029797Y-90149800D01*
X78058449Y-90141109D01*
X78084855Y-90126995D01*
X78108000Y-90108000D01*
X78126995Y-90084855D01*
X78141109Y-90058449D01*
X78149800Y-90029797D01*
X78152000Y-90007462D01*
X78152000Y-90007461D01*
X78152735Y-90000000D01*
X78152000Y-89992538D01*
X78152000Y-85928397D01*
X94273000Y-85928397D01*
X94273000Y-86071603D01*
X94300938Y-86212058D01*
X94355741Y-86344364D01*
X94435302Y-86463436D01*
X94536564Y-86564698D01*
X94655636Y-86644259D01*
X94787942Y-86699062D01*
X94928397Y-86727000D01*
X94977185Y-86727000D01*
X97469801Y-89219617D01*
X97469800Y-99973960D01*
X97467235Y-100000000D01*
X97469800Y-100026040D01*
X97469800Y-100026042D01*
X97477472Y-100103936D01*
X97507789Y-100203879D01*
X97557022Y-100295988D01*
X97623278Y-100376722D01*
X97643514Y-100393329D01*
X99969800Y-102719616D01*
X99969800Y-103026042D01*
X99969801Y-103026052D01*
X99969800Y-109280384D01*
X98977185Y-110273000D01*
X98928397Y-110273000D01*
X98787942Y-110300938D01*
X98655636Y-110355741D01*
X98536564Y-110435302D01*
X98435302Y-110536564D01*
X98355741Y-110655636D01*
X98300938Y-110787942D01*
X98273000Y-110928397D01*
X98273000Y-111071603D01*
X98300938Y-111212058D01*
X98355741Y-111344364D01*
X98435302Y-111463436D01*
X98536564Y-111564698D01*
X98655636Y-111644259D01*
X98787942Y-111699062D01*
X98928397Y-111727000D01*
X99071603Y-111727000D01*
X99212058Y-111699062D01*
X99344364Y-111644259D01*
X99463436Y-111564698D01*
X99497934Y-111530200D01*
X112473960Y-111530200D01*
X112500000Y-111532765D01*
X112526040Y-111530200D01*
X112526043Y-111530200D01*
X112603937Y-111522528D01*
X112703880Y-111492211D01*
X112795988Y-111442978D01*
X112876722Y-111376722D01*
X112893329Y-111356486D01*
X114356491Y-109893325D01*
X114376722Y-109876722D01*
X114442978Y-109795988D01*
X114492211Y-109703880D01*
X114522528Y-109603937D01*
X114530200Y-109526043D01*
X114530200Y-109526041D01*
X114532765Y-109500001D01*
X114530200Y-109473961D01*
X114530200Y-106719615D01*
X117022816Y-104227000D01*
X117071603Y-104227000D01*
X117212058Y-104199062D01*
X117344364Y-104144259D01*
X117463436Y-104064698D01*
X117564698Y-103963436D01*
X117644259Y-103844364D01*
X117699062Y-103712058D01*
X117727000Y-103571603D01*
X117727000Y-103428397D01*
X117699062Y-103287942D01*
X117644259Y-103155636D01*
X117564698Y-103036564D01*
X117463436Y-102935302D01*
X117344364Y-102855741D01*
X117212058Y-102800938D01*
X117071603Y-102773000D01*
X116928397Y-102773000D01*
X116787942Y-102800938D01*
X116655636Y-102855741D01*
X116536564Y-102935302D01*
X116435302Y-103036564D01*
X116355741Y-103155636D01*
X116300938Y-103287942D01*
X116273000Y-103428397D01*
X116273000Y-103477184D01*
X113643510Y-106106675D01*
X113623279Y-106123278D01*
X113606677Y-106143508D01*
X113557023Y-106204012D01*
X113507790Y-106296120D01*
X113477473Y-106396063D01*
X113467235Y-106500000D01*
X113469801Y-106526050D01*
X113469800Y-109280384D01*
X112280385Y-110469800D01*
X100280016Y-110469800D01*
X100856491Y-109893325D01*
X100876722Y-109876722D01*
X100942978Y-109795988D01*
X100992211Y-109703880D01*
X101022528Y-109603937D01*
X101030200Y-109526043D01*
X101030200Y-109526041D01*
X101032765Y-109500001D01*
X101030200Y-109473961D01*
X101030200Y-102526040D01*
X101032765Y-102500000D01*
X101029538Y-102467235D01*
X101022528Y-102396063D01*
X100992211Y-102296120D01*
X100942978Y-102204012D01*
X100876722Y-102123278D01*
X100856491Y-102106675D01*
X98646695Y-99896879D01*
X102453000Y-99896879D01*
X102453000Y-100103121D01*
X102493236Y-100305399D01*
X102572161Y-100495940D01*
X102686742Y-100667424D01*
X102832576Y-100813258D01*
X103004060Y-100927839D01*
X103194601Y-101006764D01*
X103396879Y-101047000D01*
X103603121Y-101047000D01*
X103805399Y-101006764D01*
X103995940Y-100927839D01*
X104167424Y-100813258D01*
X104313258Y-100667424D01*
X104427839Y-100495940D01*
X104506764Y-100305399D01*
X104547000Y-100103121D01*
X104547000Y-99896879D01*
X104993000Y-99896879D01*
X104993000Y-100103121D01*
X105033236Y-100305399D01*
X105112161Y-100495940D01*
X105226742Y-100667424D01*
X105372576Y-100813258D01*
X105544060Y-100927839D01*
X105734601Y-101006764D01*
X105936879Y-101047000D01*
X106143121Y-101047000D01*
X106345399Y-101006764D01*
X106535940Y-100927839D01*
X106707424Y-100813258D01*
X106853258Y-100667424D01*
X106967839Y-100495940D01*
X107046764Y-100305399D01*
X107087000Y-100103121D01*
X107087000Y-99896879D01*
X107533000Y-99896879D01*
X107533000Y-100103121D01*
X107573236Y-100305399D01*
X107652161Y-100495940D01*
X107766742Y-100667424D01*
X107912576Y-100813258D01*
X108084060Y-100927839D01*
X108274601Y-101006764D01*
X108476879Y-101047000D01*
X108683121Y-101047000D01*
X108885399Y-101006764D01*
X109075940Y-100927839D01*
X109247424Y-100813258D01*
X109393258Y-100667424D01*
X109507839Y-100495940D01*
X109586764Y-100305399D01*
X109627000Y-100103121D01*
X109627000Y-99896879D01*
X109586764Y-99694601D01*
X109507839Y-99504060D01*
X109393258Y-99332576D01*
X109247424Y-99186742D01*
X109075940Y-99072161D01*
X108885399Y-98993236D01*
X108683121Y-98953000D01*
X108476879Y-98953000D01*
X108274601Y-98993236D01*
X108084060Y-99072161D01*
X107912576Y-99186742D01*
X107766742Y-99332576D01*
X107652161Y-99504060D01*
X107573236Y-99694601D01*
X107533000Y-99896879D01*
X107087000Y-99896879D01*
X107046764Y-99694601D01*
X106967839Y-99504060D01*
X106853258Y-99332576D01*
X106707424Y-99186742D01*
X106535940Y-99072161D01*
X106345399Y-98993236D01*
X106143121Y-98953000D01*
X105936879Y-98953000D01*
X105734601Y-98993236D01*
X105544060Y-99072161D01*
X105372576Y-99186742D01*
X105226742Y-99332576D01*
X105112161Y-99504060D01*
X105033236Y-99694601D01*
X104993000Y-99896879D01*
X104547000Y-99896879D01*
X104506764Y-99694601D01*
X104427839Y-99504060D01*
X104313258Y-99332576D01*
X104167424Y-99186742D01*
X103995940Y-99072161D01*
X103805399Y-98993236D01*
X103603121Y-98953000D01*
X103396879Y-98953000D01*
X103194601Y-98993236D01*
X103004060Y-99072161D01*
X102832576Y-99186742D01*
X102686742Y-99332576D01*
X102572161Y-99504060D01*
X102493236Y-99694601D01*
X102453000Y-99896879D01*
X98646695Y-99896879D01*
X98530200Y-99780385D01*
X98530200Y-89026043D01*
X98532765Y-89000000D01*
X98522528Y-88896062D01*
X98492211Y-88796121D01*
X98492211Y-88796120D01*
X98442978Y-88704012D01*
X98376722Y-88623278D01*
X98356491Y-88606675D01*
X95727000Y-85977185D01*
X95727000Y-85928397D01*
X95699062Y-85787942D01*
X95644259Y-85655636D01*
X95564698Y-85536564D01*
X95463436Y-85435302D01*
X95344364Y-85355741D01*
X95212058Y-85300938D01*
X95071603Y-85273000D01*
X94928397Y-85273000D01*
X94787942Y-85300938D01*
X94655636Y-85355741D01*
X94536564Y-85435302D01*
X94435302Y-85536564D01*
X94355741Y-85655636D01*
X94300938Y-85787942D01*
X94273000Y-85928397D01*
X78152000Y-85928397D01*
X78152000Y-77350000D01*
X84371418Y-77350000D01*
X84371418Y-78650000D01*
X84382535Y-78762876D01*
X84415460Y-78871414D01*
X84468927Y-78971443D01*
X84540881Y-79059119D01*
X84628557Y-79131073D01*
X84728586Y-79184540D01*
X84837124Y-79217465D01*
X84950000Y-79228582D01*
X88050000Y-79228582D01*
X88162876Y-79217465D01*
X88271414Y-79184540D01*
X88371443Y-79131073D01*
X88459119Y-79059119D01*
X88531073Y-78971443D01*
X88584540Y-78871414D01*
X88617465Y-78762876D01*
X88628582Y-78650000D01*
X88628582Y-77350000D01*
X88617465Y-77237124D01*
X88584540Y-77128586D01*
X88531073Y-77028557D01*
X88459119Y-76940881D01*
X88371443Y-76868927D01*
X88271414Y-76815460D01*
X88162876Y-76782535D01*
X88050000Y-76771418D01*
X84950000Y-76771418D01*
X84837124Y-76782535D01*
X84728586Y-76815460D01*
X84628557Y-76868927D01*
X84540881Y-76940881D01*
X84468927Y-77028557D01*
X84415460Y-77128586D01*
X84382535Y-77237124D01*
X84371418Y-77350000D01*
X78152000Y-77350000D01*
X78152000Y-74864740D01*
X84108964Y-74864740D01*
X84133245Y-74970087D01*
X84253138Y-75247204D01*
X84424790Y-75495606D01*
X84641604Y-75705748D01*
X84895249Y-75869554D01*
X85175977Y-75980729D01*
X85473000Y-76035000D01*
X86373000Y-76035000D01*
X86373000Y-74627000D01*
X86627000Y-74627000D01*
X86627000Y-76035000D01*
X87527000Y-76035000D01*
X87824023Y-75980729D01*
X88104751Y-75869554D01*
X88280526Y-75756037D01*
X133723000Y-75756037D01*
X133723000Y-76243963D01*
X133818190Y-76722514D01*
X134004911Y-77173299D01*
X134275989Y-77578995D01*
X134621005Y-77924011D01*
X135026701Y-78195089D01*
X135477486Y-78381810D01*
X135956037Y-78477000D01*
X136443963Y-78477000D01*
X136922514Y-78381810D01*
X137373299Y-78195089D01*
X137778995Y-77924011D01*
X137882950Y-77820056D01*
X161673000Y-77820056D01*
X161673000Y-78179944D01*
X161743211Y-78532916D01*
X161880934Y-78865409D01*
X162080876Y-79164645D01*
X162335355Y-79419124D01*
X162634591Y-79619066D01*
X162967084Y-79756789D01*
X163320056Y-79827000D01*
X163679944Y-79827000D01*
X164032916Y-79756789D01*
X164365409Y-79619066D01*
X164664645Y-79419124D01*
X164919124Y-79164645D01*
X165010161Y-79028397D01*
X171151208Y-79028397D01*
X171228843Y-79277472D01*
X171492883Y-79403371D01*
X171776411Y-79475339D01*
X172068531Y-79490611D01*
X172358019Y-79448599D01*
X172633747Y-79350919D01*
X172771157Y-79277472D01*
X172848792Y-79028397D01*
X172000000Y-78179605D01*
X171151208Y-79028397D01*
X165010161Y-79028397D01*
X165119066Y-78865409D01*
X165256789Y-78532916D01*
X165327000Y-78179944D01*
X165327000Y-78068531D01*
X170509389Y-78068531D01*
X170551401Y-78358019D01*
X170649081Y-78633747D01*
X170722528Y-78771157D01*
X170971603Y-78848792D01*
X171820395Y-78000000D01*
X172179605Y-78000000D01*
X173028397Y-78848792D01*
X173277472Y-78771157D01*
X173403371Y-78507117D01*
X173415799Y-78458156D01*
X173456956Y-78557519D01*
X173585764Y-78750294D01*
X173749706Y-78914236D01*
X173942481Y-79043044D01*
X174156682Y-79131769D01*
X174384076Y-79177000D01*
X174615924Y-79177000D01*
X174843318Y-79131769D01*
X175057519Y-79043044D01*
X175250294Y-78914236D01*
X175414236Y-78750294D01*
X175543044Y-78557519D01*
X175631769Y-78343318D01*
X175677000Y-78115924D01*
X175677000Y-77884076D01*
X175664266Y-77820056D01*
X181673000Y-77820056D01*
X181673000Y-78179944D01*
X181743211Y-78532916D01*
X181880934Y-78865409D01*
X182080876Y-79164645D01*
X182335355Y-79419124D01*
X182634591Y-79619066D01*
X182967084Y-79756789D01*
X183320056Y-79827000D01*
X183679944Y-79827000D01*
X184032916Y-79756789D01*
X184365409Y-79619066D01*
X184664645Y-79419124D01*
X184919124Y-79164645D01*
X185119066Y-78865409D01*
X185256789Y-78532916D01*
X185327000Y-78179944D01*
X185327000Y-77820056D01*
X185256789Y-77467084D01*
X185119066Y-77134591D01*
X184919124Y-76835355D01*
X184664645Y-76580876D01*
X184365409Y-76380934D01*
X184032916Y-76243211D01*
X183679944Y-76173000D01*
X183320056Y-76173000D01*
X182967084Y-76243211D01*
X182634591Y-76380934D01*
X182335355Y-76580876D01*
X182080876Y-76835355D01*
X181880934Y-77134591D01*
X181743211Y-77467084D01*
X181673000Y-77820056D01*
X175664266Y-77820056D01*
X175631769Y-77656682D01*
X175543044Y-77442481D01*
X175414236Y-77249706D01*
X175250294Y-77085764D01*
X175057519Y-76956956D01*
X174843318Y-76868231D01*
X174615924Y-76823000D01*
X174384076Y-76823000D01*
X174156682Y-76868231D01*
X173942481Y-76956956D01*
X173749706Y-77085764D01*
X173585764Y-77249706D01*
X173456956Y-77442481D01*
X173414357Y-77545324D01*
X173350919Y-77366253D01*
X173277472Y-77228843D01*
X173028397Y-77151208D01*
X172179605Y-78000000D01*
X171820395Y-78000000D01*
X170971603Y-77151208D01*
X170722528Y-77228843D01*
X170596629Y-77492883D01*
X170524661Y-77776411D01*
X170509389Y-78068531D01*
X165327000Y-78068531D01*
X165327000Y-77820056D01*
X165256789Y-77467084D01*
X165119066Y-77134591D01*
X165010162Y-76971603D01*
X171151208Y-76971603D01*
X172000000Y-77820395D01*
X172848792Y-76971603D01*
X172771157Y-76722528D01*
X172507117Y-76596629D01*
X172223589Y-76524661D01*
X171931469Y-76509389D01*
X171641981Y-76551401D01*
X171366253Y-76649081D01*
X171228843Y-76722528D01*
X171151208Y-76971603D01*
X165010162Y-76971603D01*
X164919124Y-76835355D01*
X164664645Y-76580876D01*
X164365409Y-76380934D01*
X164032916Y-76243211D01*
X163679944Y-76173000D01*
X163320056Y-76173000D01*
X162967084Y-76243211D01*
X162634591Y-76380934D01*
X162335355Y-76580876D01*
X162080876Y-76835355D01*
X161880934Y-77134591D01*
X161743211Y-77467084D01*
X161673000Y-77820056D01*
X137882950Y-77820056D01*
X138124011Y-77578995D01*
X138395089Y-77173299D01*
X138581810Y-76722514D01*
X138677000Y-76243963D01*
X138677000Y-75756037D01*
X138581810Y-75277486D01*
X138395089Y-74826701D01*
X138124011Y-74421005D01*
X137778995Y-74075989D01*
X137373299Y-73804911D01*
X136922514Y-73618190D01*
X136443963Y-73523000D01*
X135956037Y-73523000D01*
X135477486Y-73618190D01*
X135026701Y-73804911D01*
X134621005Y-74075989D01*
X134275989Y-74421005D01*
X134004911Y-74826701D01*
X133818190Y-75277486D01*
X133723000Y-75756037D01*
X88280526Y-75756037D01*
X88358396Y-75705748D01*
X88575210Y-75495606D01*
X88746862Y-75247204D01*
X88866755Y-74970087D01*
X88891036Y-74864740D01*
X88770378Y-74627000D01*
X86627000Y-74627000D01*
X86373000Y-74627000D01*
X84229622Y-74627000D01*
X84108964Y-74864740D01*
X78152000Y-74864740D01*
X78152000Y-74135260D01*
X84108964Y-74135260D01*
X84229622Y-74373000D01*
X86373000Y-74373000D01*
X86373000Y-72965000D01*
X86627000Y-72965000D01*
X86627000Y-74373000D01*
X88770378Y-74373000D01*
X88891036Y-74135260D01*
X88866755Y-74029913D01*
X88746862Y-73752796D01*
X88575210Y-73504394D01*
X88358396Y-73294252D01*
X88104751Y-73130446D01*
X87824023Y-73019271D01*
X87527000Y-72965000D01*
X86627000Y-72965000D01*
X86373000Y-72965000D01*
X85473000Y-72965000D01*
X85175977Y-73019271D01*
X84895249Y-73130446D01*
X84641604Y-73294252D01*
X84424790Y-73504394D01*
X84253138Y-73752796D01*
X84133245Y-74029913D01*
X84108964Y-74135260D01*
X78152000Y-74135260D01*
X78152000Y-65152000D01*
X93992538Y-65152000D01*
X94000000Y-65152735D01*
X94029797Y-65149800D01*
X94058449Y-65141109D01*
X94084855Y-65126995D01*
X94108000Y-65108000D01*
X94126995Y-65084855D01*
X94141109Y-65058449D01*
X94149800Y-65029797D01*
X94152000Y-65007462D01*
X94152000Y-65007461D01*
X94152735Y-65000000D01*
X94152000Y-64992538D01*
X94152000Y-52820056D01*
X161673000Y-52820056D01*
X161673000Y-53179944D01*
X161743211Y-53532916D01*
X161880934Y-53865409D01*
X162080876Y-54164645D01*
X162335355Y-54419124D01*
X162634591Y-54619066D01*
X162967084Y-54756789D01*
X163320056Y-54827000D01*
X163679944Y-54827000D01*
X164032916Y-54756789D01*
X164365409Y-54619066D01*
X164664645Y-54419124D01*
X164919124Y-54164645D01*
X165010161Y-54028397D01*
X171151208Y-54028397D01*
X171228843Y-54277472D01*
X171492883Y-54403371D01*
X171776411Y-54475339D01*
X172068531Y-54490611D01*
X172358019Y-54448599D01*
X172633747Y-54350919D01*
X172771157Y-54277472D01*
X172848792Y-54028397D01*
X172000000Y-53179605D01*
X171151208Y-54028397D01*
X165010161Y-54028397D01*
X165119066Y-53865409D01*
X165256789Y-53532916D01*
X165327000Y-53179944D01*
X165327000Y-53068531D01*
X170509389Y-53068531D01*
X170551401Y-53358019D01*
X170649081Y-53633747D01*
X170722528Y-53771157D01*
X170971603Y-53848792D01*
X171820395Y-53000000D01*
X172179605Y-53000000D01*
X173028397Y-53848792D01*
X173277472Y-53771157D01*
X173403371Y-53507117D01*
X173415799Y-53458156D01*
X173456956Y-53557519D01*
X173585764Y-53750294D01*
X173749706Y-53914236D01*
X173942481Y-54043044D01*
X174156682Y-54131769D01*
X174384076Y-54177000D01*
X174615924Y-54177000D01*
X174843318Y-54131769D01*
X174870638Y-54120453D01*
X179469801Y-58719617D01*
X179469800Y-68965167D01*
X179467527Y-68982387D01*
X179469800Y-69017249D01*
X179469800Y-69026042D01*
X179471496Y-69043261D01*
X179474322Y-69086606D01*
X179476606Y-69095140D01*
X179477472Y-69103936D01*
X179490089Y-69145529D01*
X179501319Y-69187497D01*
X179505223Y-69195421D01*
X179507789Y-69203879D01*
X179528281Y-69242216D01*
X179547480Y-69281182D01*
X179552854Y-69288191D01*
X179557022Y-69295988D01*
X179584609Y-69329604D01*
X179611031Y-69364061D01*
X179617666Y-69369884D01*
X179623278Y-69376722D01*
X179656886Y-69404303D01*
X179669860Y-69415689D01*
X179676991Y-69420803D01*
X179704012Y-69442978D01*
X179719338Y-69451170D01*
X187276992Y-74870803D01*
X187304012Y-74892978D01*
X187342341Y-74913465D01*
X187379958Y-74935201D01*
X187388325Y-74938044D01*
X187396120Y-74942211D01*
X187437706Y-74954826D01*
X187478844Y-74968806D01*
X187487605Y-74969962D01*
X187496063Y-74972528D01*
X187539320Y-74976788D01*
X187582386Y-74982473D01*
X187617254Y-74980200D01*
X195419800Y-74980200D01*
X195419801Y-91330382D01*
X194543514Y-92206671D01*
X194523278Y-92223278D01*
X194457022Y-92304012D01*
X194407789Y-92396121D01*
X194377472Y-92496064D01*
X194369800Y-92573957D01*
X194367235Y-92600000D01*
X194369800Y-92626040D01*
X194369801Y-94087577D01*
X194330844Y-94108400D01*
X194159236Y-94249235D01*
X194018401Y-94420843D01*
X193913750Y-94616629D01*
X193849307Y-94829069D01*
X193833000Y-94994635D01*
X193833000Y-95505364D01*
X193849307Y-95670930D01*
X193913750Y-95883370D01*
X194018400Y-96079157D01*
X194159235Y-96250765D01*
X194330843Y-96391600D01*
X194526629Y-96496250D01*
X194739069Y-96560693D01*
X194960000Y-96582453D01*
X195180930Y-96560693D01*
X195393370Y-96496250D01*
X195589157Y-96391600D01*
X195760765Y-96250765D01*
X195901600Y-96079157D01*
X196006250Y-95883371D01*
X196070693Y-95670931D01*
X196087000Y-95505365D01*
X196087000Y-94994636D01*
X196070693Y-94829070D01*
X196006250Y-94616630D01*
X195901600Y-94420843D01*
X195760765Y-94249235D01*
X195589157Y-94108400D01*
X195430200Y-94023436D01*
X195430200Y-92819615D01*
X196306496Y-91943321D01*
X196326722Y-91926722D01*
X196392978Y-91845988D01*
X196442211Y-91753880D01*
X196472528Y-91653937D01*
X196480200Y-91576043D01*
X196480200Y-91576041D01*
X196482765Y-91550001D01*
X196480200Y-91523961D01*
X196480200Y-74476043D01*
X196482765Y-74450000D01*
X196472528Y-74346063D01*
X196442211Y-74246120D01*
X196392978Y-74154012D01*
X196326722Y-74073278D01*
X196245988Y-74007022D01*
X196153880Y-73957789D01*
X196053937Y-73927472D01*
X195976043Y-73919800D01*
X195976042Y-73919800D01*
X195950000Y-73917235D01*
X195923957Y-73919800D01*
X187770456Y-73919800D01*
X180530200Y-68727776D01*
X180530200Y-58526043D01*
X180532765Y-58500000D01*
X180522528Y-58396062D01*
X180513331Y-58365745D01*
X180492211Y-58296120D01*
X180442978Y-58204012D01*
X180376722Y-58123278D01*
X180356491Y-58106675D01*
X175620453Y-53370638D01*
X175631769Y-53343318D01*
X175677000Y-53115924D01*
X175677000Y-52884076D01*
X175664266Y-52820056D01*
X181673000Y-52820056D01*
X181673000Y-53179944D01*
X181743211Y-53532916D01*
X181880934Y-53865409D01*
X182080876Y-54164645D01*
X182335355Y-54419124D01*
X182634591Y-54619066D01*
X182967084Y-54756789D01*
X183320056Y-54827000D01*
X183679944Y-54827000D01*
X184032916Y-54756789D01*
X184365409Y-54619066D01*
X184664645Y-54419124D01*
X184919124Y-54164645D01*
X185119066Y-53865409D01*
X185256789Y-53532916D01*
X185327000Y-53179944D01*
X185327000Y-52820056D01*
X185256789Y-52467084D01*
X185119066Y-52134591D01*
X184919124Y-51835355D01*
X184664645Y-51580876D01*
X184365409Y-51380934D01*
X184032916Y-51243211D01*
X183679944Y-51173000D01*
X183320056Y-51173000D01*
X182967084Y-51243211D01*
X182634591Y-51380934D01*
X182335355Y-51580876D01*
X182080876Y-51835355D01*
X181880934Y-52134591D01*
X181743211Y-52467084D01*
X181673000Y-52820056D01*
X175664266Y-52820056D01*
X175631769Y-52656682D01*
X175543044Y-52442481D01*
X175414236Y-52249706D01*
X175250294Y-52085764D01*
X175057519Y-51956956D01*
X174843318Y-51868231D01*
X174615924Y-51823000D01*
X174384076Y-51823000D01*
X174156682Y-51868231D01*
X173942481Y-51956956D01*
X173749706Y-52085764D01*
X173585764Y-52249706D01*
X173456956Y-52442481D01*
X173414357Y-52545324D01*
X173350919Y-52366253D01*
X173277472Y-52228843D01*
X173028397Y-52151208D01*
X172179605Y-53000000D01*
X171820395Y-53000000D01*
X170971603Y-52151208D01*
X170722528Y-52228843D01*
X170596629Y-52492883D01*
X170524661Y-52776411D01*
X170509389Y-53068531D01*
X165327000Y-53068531D01*
X165327000Y-52820056D01*
X165256789Y-52467084D01*
X165119066Y-52134591D01*
X165010162Y-51971603D01*
X171151208Y-51971603D01*
X172000000Y-52820395D01*
X172848792Y-51971603D01*
X172771157Y-51722528D01*
X172507117Y-51596629D01*
X172223589Y-51524661D01*
X171931469Y-51509389D01*
X171641981Y-51551401D01*
X171366253Y-51649081D01*
X171228843Y-51722528D01*
X171151208Y-51971603D01*
X165010162Y-51971603D01*
X164919124Y-51835355D01*
X164664645Y-51580876D01*
X164365409Y-51380934D01*
X164032916Y-51243211D01*
X163679944Y-51173000D01*
X163320056Y-51173000D01*
X162967084Y-51243211D01*
X162634591Y-51380934D01*
X162335355Y-51580876D01*
X162080876Y-51835355D01*
X161880934Y-52134591D01*
X161743211Y-52467084D01*
X161673000Y-52820056D01*
X94152000Y-52820056D01*
X94152000Y-49152000D01*
X117492538Y-49152000D01*
X117500000Y-49152735D01*
X117529797Y-49149800D01*
X117558449Y-49141109D01*
X117584855Y-49126995D01*
X117608000Y-49108000D01*
X117626995Y-49084855D01*
X117641109Y-49058449D01*
X117649800Y-49029797D01*
X117652000Y-49007462D01*
X117652000Y-49007461D01*
X117652735Y-49000000D01*
X117652000Y-48992538D01*
X117652000Y-46310207D01*
X120573000Y-46310207D01*
X120573000Y-46689793D01*
X120647053Y-47062085D01*
X120792315Y-47412777D01*
X121003201Y-47728391D01*
X121271609Y-47996799D01*
X121587223Y-48207685D01*
X121937915Y-48352947D01*
X122310207Y-48427000D01*
X122689793Y-48427000D01*
X123062085Y-48352947D01*
X123412777Y-48207685D01*
X123728391Y-47996799D01*
X123996799Y-47728391D01*
X124207685Y-47412777D01*
X124352947Y-47062085D01*
X124427000Y-46689793D01*
X124427000Y-46310207D01*
X124352947Y-45937915D01*
X124207685Y-45587223D01*
X123996799Y-45271609D01*
X123728391Y-45003201D01*
X123412777Y-44792315D01*
X123062085Y-44647053D01*
X122689793Y-44573000D01*
X122310207Y-44573000D01*
X121937915Y-44647053D01*
X121587223Y-44792315D01*
X121271609Y-45003201D01*
X121003201Y-45271609D01*
X120792315Y-45587223D01*
X120647053Y-45937915D01*
X120573000Y-46310207D01*
X117652000Y-46310207D01*
X117652000Y-42652000D01*
X127348001Y-42652000D01*
X127348000Y-48992538D01*
G37*
G04 #@! TD.AperFunction*
M02*
