G04 #@! TF.GenerationSoftware,KiCad,Pcbnew,(5.1.9)-1*
G04 #@! TF.CreationDate,2022-06-27T08:21:43+02:00*
G04 #@! TF.ProjectId,green_detect_3,67726565-6e5f-4646-9574-6563745f332e,0.00*
G04 #@! TF.SameCoordinates,Original*
G04 #@! TF.FileFunction,Paste,Top*
G04 #@! TF.FilePolarity,Positive*
%FSLAX46Y46*%
G04 Gerber Fmt 4.6, Leading zero omitted, Abs format (unit mm)*
G04 Created by KiCad (PCBNEW (5.1.9)-1) date 2022-06-27 08:21:43*
%MOMM*%
%LPD*%
G01*
G04 APERTURE LIST*
%ADD10R,1.300000X0.600000*%
%ADD11R,3.800000X5.000000*%
%ADD12R,5.000000X3.800000*%
%ADD13R,1.120000X2.440000*%
%ADD14R,1.800000X2.500000*%
%ADD15R,2.500000X1.800000*%
%ADD16R,1.500000X0.450000*%
%ADD17R,13.200000X3.250000*%
%ADD18R,0.900000X0.800000*%
%ADD19R,1.600000X1.400000*%
%ADD20R,3.050000X2.750000*%
%ADD21R,2.200000X1.200000*%
G04 APERTURE END LIST*
D10*
X89950000Y-85050000D03*
X89950000Y-86950000D03*
X92050000Y-86000000D03*
D11*
X135000000Y-120000000D03*
X135000000Y-102750000D03*
X125000000Y-120000000D03*
D12*
X115200000Y-52900000D03*
X98000000Y-52900000D03*
D11*
X125000000Y-102750000D03*
D13*
X191190000Y-71495000D03*
X198810000Y-80105000D03*
X193730000Y-71495000D03*
X196270000Y-80105000D03*
X196270000Y-71495000D03*
X193730000Y-80105000D03*
X198810000Y-71495000D03*
X191190000Y-80105000D03*
G36*
G01*
X110374998Y-108900000D02*
X111625002Y-108900000D01*
G75*
G02*
X111875000Y-109149998I0J-249998D01*
G01*
X111875000Y-109775002D01*
G75*
G02*
X111625002Y-110025000I-249998J0D01*
G01*
X110374998Y-110025000D01*
G75*
G02*
X110125000Y-109775002I0J249998D01*
G01*
X110125000Y-109149998D01*
G75*
G02*
X110374998Y-108900000I249998J0D01*
G01*
G37*
G36*
G01*
X110374998Y-105975000D02*
X111625002Y-105975000D01*
G75*
G02*
X111875000Y-106224998I0J-249998D01*
G01*
X111875000Y-106850002D01*
G75*
G02*
X111625002Y-107100000I-249998J0D01*
G01*
X110374998Y-107100000D01*
G75*
G02*
X110125000Y-106850002I0J249998D01*
G01*
X110125000Y-106224998D01*
G75*
G02*
X110374998Y-105975000I249998J0D01*
G01*
G37*
G36*
G01*
X104874998Y-108900000D02*
X106125002Y-108900000D01*
G75*
G02*
X106375000Y-109149998I0J-249998D01*
G01*
X106375000Y-109775002D01*
G75*
G02*
X106125002Y-110025000I-249998J0D01*
G01*
X104874998Y-110025000D01*
G75*
G02*
X104625000Y-109775002I0J249998D01*
G01*
X104625000Y-109149998D01*
G75*
G02*
X104874998Y-108900000I249998J0D01*
G01*
G37*
G36*
G01*
X104874998Y-105975000D02*
X106125002Y-105975000D01*
G75*
G02*
X106375000Y-106224998I0J-249998D01*
G01*
X106375000Y-106850002D01*
G75*
G02*
X106125002Y-107100000I-249998J0D01*
G01*
X104874998Y-107100000D01*
G75*
G02*
X104625000Y-106850002I0J249998D01*
G01*
X104625000Y-106224998D01*
G75*
G02*
X104874998Y-105975000I249998J0D01*
G01*
G37*
G36*
G01*
X118400000Y-111625002D02*
X118400000Y-110374998D01*
G75*
G02*
X118649998Y-110125000I249998J0D01*
G01*
X119275002Y-110125000D01*
G75*
G02*
X119525000Y-110374998I0J-249998D01*
G01*
X119525000Y-111625002D01*
G75*
G02*
X119275002Y-111875000I-249998J0D01*
G01*
X118649998Y-111875000D01*
G75*
G02*
X118400000Y-111625002I0J249998D01*
G01*
G37*
G36*
G01*
X115475000Y-111625002D02*
X115475000Y-110374998D01*
G75*
G02*
X115724998Y-110125000I249998J0D01*
G01*
X116350002Y-110125000D01*
G75*
G02*
X116600000Y-110374998I0J-249998D01*
G01*
X116600000Y-111625002D01*
G75*
G02*
X116350002Y-111875000I-249998J0D01*
G01*
X115724998Y-111875000D01*
G75*
G02*
X115475000Y-111625002I0J249998D01*
G01*
G37*
G36*
G01*
X118400000Y-116125002D02*
X118400000Y-114874998D01*
G75*
G02*
X118649998Y-114625000I249998J0D01*
G01*
X119275002Y-114625000D01*
G75*
G02*
X119525000Y-114874998I0J-249998D01*
G01*
X119525000Y-116125002D01*
G75*
G02*
X119275002Y-116375000I-249998J0D01*
G01*
X118649998Y-116375000D01*
G75*
G02*
X118400000Y-116125002I0J249998D01*
G01*
G37*
G36*
G01*
X115475000Y-116125002D02*
X115475000Y-114874998D01*
G75*
G02*
X115724998Y-114625000I249998J0D01*
G01*
X116350002Y-114625000D01*
G75*
G02*
X116600000Y-114874998I0J-249998D01*
G01*
X116600000Y-116125002D01*
G75*
G02*
X116350002Y-116375000I-249998J0D01*
G01*
X115724998Y-116375000D01*
G75*
G02*
X115475000Y-116125002I0J249998D01*
G01*
G37*
G36*
G01*
X118400000Y-120125002D02*
X118400000Y-118874998D01*
G75*
G02*
X118649998Y-118625000I249998J0D01*
G01*
X119275002Y-118625000D01*
G75*
G02*
X119525000Y-118874998I0J-249998D01*
G01*
X119525000Y-120125002D01*
G75*
G02*
X119275002Y-120375000I-249998J0D01*
G01*
X118649998Y-120375000D01*
G75*
G02*
X118400000Y-120125002I0J249998D01*
G01*
G37*
G36*
G01*
X115475000Y-120125002D02*
X115475000Y-118874998D01*
G75*
G02*
X115724998Y-118625000I249998J0D01*
G01*
X116350002Y-118625000D01*
G75*
G02*
X116600000Y-118874998I0J-249998D01*
G01*
X116600000Y-120125002D01*
G75*
G02*
X116350002Y-120375000I-249998J0D01*
G01*
X115724998Y-120375000D01*
G75*
G02*
X115475000Y-120125002I0J249998D01*
G01*
G37*
G36*
G01*
X118400000Y-124125002D02*
X118400000Y-122874998D01*
G75*
G02*
X118649998Y-122625000I249998J0D01*
G01*
X119275002Y-122625000D01*
G75*
G02*
X119525000Y-122874998I0J-249998D01*
G01*
X119525000Y-124125002D01*
G75*
G02*
X119275002Y-124375000I-249998J0D01*
G01*
X118649998Y-124375000D01*
G75*
G02*
X118400000Y-124125002I0J249998D01*
G01*
G37*
G36*
G01*
X115475000Y-124125002D02*
X115475000Y-122874998D01*
G75*
G02*
X115724998Y-122625000I249998J0D01*
G01*
X116350002Y-122625000D01*
G75*
G02*
X116600000Y-122874998I0J-249998D01*
G01*
X116600000Y-124125002D01*
G75*
G02*
X116350002Y-124375000I-249998J0D01*
G01*
X115724998Y-124375000D01*
G75*
G02*
X115475000Y-124125002I0J249998D01*
G01*
G37*
G36*
G01*
X111625000Y-114725000D02*
X110375000Y-114725000D01*
G75*
G02*
X110125000Y-114475000I0J250000D01*
G01*
X110125000Y-113725000D01*
G75*
G02*
X110375000Y-113475000I250000J0D01*
G01*
X111625000Y-113475000D01*
G75*
G02*
X111875000Y-113725000I0J-250000D01*
G01*
X111875000Y-114475000D01*
G75*
G02*
X111625000Y-114725000I-250000J0D01*
G01*
G37*
G36*
G01*
X111625000Y-117525000D02*
X110375000Y-117525000D01*
G75*
G02*
X110125000Y-117275000I0J250000D01*
G01*
X110125000Y-116525000D01*
G75*
G02*
X110375000Y-116275000I250000J0D01*
G01*
X111625000Y-116275000D01*
G75*
G02*
X111875000Y-116525000I0J-250000D01*
G01*
X111875000Y-117275000D01*
G75*
G02*
X111625000Y-117525000I-250000J0D01*
G01*
G37*
G36*
G01*
X106125000Y-114725000D02*
X104875000Y-114725000D01*
G75*
G02*
X104625000Y-114475000I0J250000D01*
G01*
X104625000Y-113725000D01*
G75*
G02*
X104875000Y-113475000I250000J0D01*
G01*
X106125000Y-113475000D01*
G75*
G02*
X106375000Y-113725000I0J-250000D01*
G01*
X106375000Y-114475000D01*
G75*
G02*
X106125000Y-114725000I-250000J0D01*
G01*
G37*
G36*
G01*
X106125000Y-117525000D02*
X104875000Y-117525000D01*
G75*
G02*
X104625000Y-117275000I0J250000D01*
G01*
X104625000Y-116525000D01*
G75*
G02*
X104875000Y-116275000I250000J0D01*
G01*
X106125000Y-116275000D01*
G75*
G02*
X106375000Y-116525000I0J-250000D01*
G01*
X106375000Y-117275000D01*
G75*
G02*
X106125000Y-117525000I-250000J0D01*
G01*
G37*
D14*
X109300000Y-125100000D03*
X109300000Y-121100000D03*
D15*
X98100000Y-123100000D03*
X102100000Y-123100000D03*
D16*
X113750000Y-129700000D03*
X113750000Y-130350000D03*
X113750000Y-131000000D03*
X113750000Y-131650000D03*
X113750000Y-132300000D03*
D17*
X89000000Y-113200000D03*
X89000000Y-97800000D03*
D18*
X117000000Y-100950000D03*
X117000000Y-99050000D03*
X115000000Y-100000000D03*
G36*
G01*
X182465000Y-88240000D02*
X182465000Y-88660000D01*
G75*
G02*
X182375000Y-88750000I-90000J0D01*
G01*
X181335000Y-88750000D01*
G75*
G02*
X181245000Y-88660000I0J90000D01*
G01*
X181245000Y-88240000D01*
G75*
G02*
X181335000Y-88150000I90000J0D01*
G01*
X182375000Y-88150000D01*
G75*
G02*
X182465000Y-88240000I0J-90000D01*
G01*
G37*
G36*
G01*
X182465000Y-86340000D02*
X182465000Y-86760000D01*
G75*
G02*
X182375000Y-86850000I-90000J0D01*
G01*
X181335000Y-86850000D01*
G75*
G02*
X181245000Y-86760000I0J90000D01*
G01*
X181245000Y-86340000D01*
G75*
G02*
X181335000Y-86250000I90000J0D01*
G01*
X182375000Y-86250000D01*
G75*
G02*
X182465000Y-86340000I0J-90000D01*
G01*
G37*
G36*
G01*
X184955000Y-86340000D02*
X184955000Y-86760000D01*
G75*
G02*
X184865000Y-86850000I-90000J0D01*
G01*
X183825000Y-86850000D01*
G75*
G02*
X183735000Y-86760000I0J90000D01*
G01*
X183735000Y-86340000D01*
G75*
G02*
X183825000Y-86250000I90000J0D01*
G01*
X184865000Y-86250000D01*
G75*
G02*
X184955000Y-86340000I0J-90000D01*
G01*
G37*
G36*
G01*
X184955000Y-87290000D02*
X184955000Y-87710000D01*
G75*
G02*
X184865000Y-87800000I-90000J0D01*
G01*
X183825000Y-87800000D01*
G75*
G02*
X183735000Y-87710000I0J90000D01*
G01*
X183735000Y-87290000D01*
G75*
G02*
X183825000Y-87200000I90000J0D01*
G01*
X184865000Y-87200000D01*
G75*
G02*
X184955000Y-87290000I0J-90000D01*
G01*
G37*
G36*
G01*
X184955000Y-88240000D02*
X184955000Y-88660000D01*
G75*
G02*
X184865000Y-88750000I-90000J0D01*
G01*
X183825000Y-88750000D01*
G75*
G02*
X183735000Y-88660000I0J90000D01*
G01*
X183735000Y-88240000D01*
G75*
G02*
X183825000Y-88150000I90000J0D01*
G01*
X184865000Y-88150000D01*
G75*
G02*
X184955000Y-88240000I0J-90000D01*
G01*
G37*
D19*
X152400000Y-117900000D03*
X145200000Y-117900000D03*
X152400000Y-120900000D03*
X145200000Y-120900000D03*
X152400000Y-102570000D03*
X145200000Y-102570000D03*
X152400000Y-105570000D03*
X145200000Y-105570000D03*
G36*
G01*
X83125002Y-88025000D02*
X81874998Y-88025000D01*
G75*
G02*
X81625000Y-87775002I0J249998D01*
G01*
X81625000Y-87149998D01*
G75*
G02*
X81874998Y-86900000I249998J0D01*
G01*
X83125002Y-86900000D01*
G75*
G02*
X83375000Y-87149998I0J-249998D01*
G01*
X83375000Y-87775002D01*
G75*
G02*
X83125002Y-88025000I-249998J0D01*
G01*
G37*
G36*
G01*
X83125002Y-85100000D02*
X81874998Y-85100000D01*
G75*
G02*
X81625000Y-84850002I0J249998D01*
G01*
X81625000Y-84224998D01*
G75*
G02*
X81874998Y-83975000I249998J0D01*
G01*
X83125002Y-83975000D01*
G75*
G02*
X83375000Y-84224998I0J-249998D01*
G01*
X83375000Y-84850002D01*
G75*
G02*
X83125002Y-85100000I-249998J0D01*
G01*
G37*
G36*
G01*
X99625002Y-117525000D02*
X98374998Y-117525000D01*
G75*
G02*
X98125000Y-117275002I0J249998D01*
G01*
X98125000Y-116649998D01*
G75*
G02*
X98374998Y-116400000I249998J0D01*
G01*
X99625002Y-116400000D01*
G75*
G02*
X99875000Y-116649998I0J-249998D01*
G01*
X99875000Y-117275002D01*
G75*
G02*
X99625002Y-117525000I-249998J0D01*
G01*
G37*
G36*
G01*
X99625002Y-114600000D02*
X98374998Y-114600000D01*
G75*
G02*
X98125000Y-114350002I0J249998D01*
G01*
X98125000Y-113724998D01*
G75*
G02*
X98374998Y-113475000I249998J0D01*
G01*
X99625002Y-113475000D01*
G75*
G02*
X99875000Y-113724998I0J-249998D01*
G01*
X99875000Y-114350002D01*
G75*
G02*
X99625002Y-114600000I-249998J0D01*
G01*
G37*
G36*
G01*
X93975000Y-73625002D02*
X93975000Y-72374998D01*
G75*
G02*
X94224998Y-72125000I249998J0D01*
G01*
X94850002Y-72125000D01*
G75*
G02*
X95100000Y-72374998I0J-249998D01*
G01*
X95100000Y-73625002D01*
G75*
G02*
X94850002Y-73875000I-249998J0D01*
G01*
X94224998Y-73875000D01*
G75*
G02*
X93975000Y-73625002I0J249998D01*
G01*
G37*
G36*
G01*
X96900000Y-73625002D02*
X96900000Y-72374998D01*
G75*
G02*
X97149998Y-72125000I249998J0D01*
G01*
X97775002Y-72125000D01*
G75*
G02*
X98025000Y-72374998I0J-249998D01*
G01*
X98025000Y-73625002D01*
G75*
G02*
X97775002Y-73875000I-249998J0D01*
G01*
X97149998Y-73875000D01*
G75*
G02*
X96900000Y-73625002I0J249998D01*
G01*
G37*
G36*
G01*
X146000000Y-111174998D02*
X146000000Y-112425002D01*
G75*
G02*
X145750002Y-112675000I-249998J0D01*
G01*
X145124998Y-112675000D01*
G75*
G02*
X144875000Y-112425002I0J249998D01*
G01*
X144875000Y-111174998D01*
G75*
G02*
X145124998Y-110925000I249998J0D01*
G01*
X145750002Y-110925000D01*
G75*
G02*
X146000000Y-111174998I0J-249998D01*
G01*
G37*
G36*
G01*
X148925000Y-111174998D02*
X148925000Y-112425002D01*
G75*
G02*
X148675002Y-112675000I-249998J0D01*
G01*
X148049998Y-112675000D01*
G75*
G02*
X147800000Y-112425002I0J249998D01*
G01*
X147800000Y-111174998D01*
G75*
G02*
X148049998Y-110925000I249998J0D01*
G01*
X148675002Y-110925000D01*
G75*
G02*
X148925000Y-111174998I0J-249998D01*
G01*
G37*
G36*
G01*
X162437500Y-110074998D02*
X162437500Y-111325002D01*
G75*
G02*
X162187502Y-111575000I-249998J0D01*
G01*
X161562498Y-111575000D01*
G75*
G02*
X161312500Y-111325002I0J249998D01*
G01*
X161312500Y-110074998D01*
G75*
G02*
X161562498Y-109825000I249998J0D01*
G01*
X162187502Y-109825000D01*
G75*
G02*
X162437500Y-110074998I0J-249998D01*
G01*
G37*
G36*
G01*
X165362500Y-110074998D02*
X165362500Y-111325002D01*
G75*
G02*
X165112502Y-111575000I-249998J0D01*
G01*
X164487498Y-111575000D01*
G75*
G02*
X164237500Y-111325002I0J249998D01*
G01*
X164237500Y-110074998D01*
G75*
G02*
X164487498Y-109825000I249998J0D01*
G01*
X165112502Y-109825000D01*
G75*
G02*
X165362500Y-110074998I0J-249998D01*
G01*
G37*
G36*
G01*
X162700000Y-115674998D02*
X162700000Y-116925002D01*
G75*
G02*
X162450002Y-117175000I-249998J0D01*
G01*
X161824998Y-117175000D01*
G75*
G02*
X161575000Y-116925002I0J249998D01*
G01*
X161575000Y-115674998D01*
G75*
G02*
X161824998Y-115425000I249998J0D01*
G01*
X162450002Y-115425000D01*
G75*
G02*
X162700000Y-115674998I0J-249998D01*
G01*
G37*
G36*
G01*
X165625000Y-115674998D02*
X165625000Y-116925002D01*
G75*
G02*
X165375002Y-117175000I-249998J0D01*
G01*
X164749998Y-117175000D01*
G75*
G02*
X164500000Y-116925002I0J249998D01*
G01*
X164500000Y-115674998D01*
G75*
G02*
X164749998Y-115425000I249998J0D01*
G01*
X165375002Y-115425000D01*
G75*
G02*
X165625000Y-115674998I0J-249998D01*
G01*
G37*
G36*
G01*
X196225002Y-86500000D02*
X194974998Y-86500000D01*
G75*
G02*
X194725000Y-86250002I0J249998D01*
G01*
X194725000Y-85624998D01*
G75*
G02*
X194974998Y-85375000I249998J0D01*
G01*
X196225002Y-85375000D01*
G75*
G02*
X196475000Y-85624998I0J-249998D01*
G01*
X196475000Y-86250002D01*
G75*
G02*
X196225002Y-86500000I-249998J0D01*
G01*
G37*
G36*
G01*
X196225002Y-89425000D02*
X194974998Y-89425000D01*
G75*
G02*
X194725000Y-89175002I0J249998D01*
G01*
X194725000Y-88549998D01*
G75*
G02*
X194974998Y-88300000I249998J0D01*
G01*
X196225002Y-88300000D01*
G75*
G02*
X196475000Y-88549998I0J-249998D01*
G01*
X196475000Y-89175002D01*
G75*
G02*
X196225002Y-89425000I-249998J0D01*
G01*
G37*
G36*
G01*
X201225002Y-86500000D02*
X199974998Y-86500000D01*
G75*
G02*
X199725000Y-86250002I0J249998D01*
G01*
X199725000Y-85624998D01*
G75*
G02*
X199974998Y-85375000I249998J0D01*
G01*
X201225002Y-85375000D01*
G75*
G02*
X201475000Y-85624998I0J-249998D01*
G01*
X201475000Y-86250002D01*
G75*
G02*
X201225002Y-86500000I-249998J0D01*
G01*
G37*
G36*
G01*
X201225002Y-89425000D02*
X199974998Y-89425000D01*
G75*
G02*
X199725000Y-89175002I0J249998D01*
G01*
X199725000Y-88549998D01*
G75*
G02*
X199974998Y-88300000I249998J0D01*
G01*
X201225002Y-88300000D01*
G75*
G02*
X201475000Y-88549998I0J-249998D01*
G01*
X201475000Y-89175002D01*
G75*
G02*
X201225002Y-89425000I-249998J0D01*
G01*
G37*
G36*
G01*
X166225002Y-103200000D02*
X164974998Y-103200000D01*
G75*
G02*
X164725000Y-102950002I0J249998D01*
G01*
X164725000Y-102324998D01*
G75*
G02*
X164974998Y-102075000I249998J0D01*
G01*
X166225002Y-102075000D01*
G75*
G02*
X166475000Y-102324998I0J-249998D01*
G01*
X166475000Y-102950002D01*
G75*
G02*
X166225002Y-103200000I-249998J0D01*
G01*
G37*
G36*
G01*
X166225002Y-106125000D02*
X164974998Y-106125000D01*
G75*
G02*
X164725000Y-105875002I0J249998D01*
G01*
X164725000Y-105249998D01*
G75*
G02*
X164974998Y-105000000I249998J0D01*
G01*
X166225002Y-105000000D01*
G75*
G02*
X166475000Y-105249998I0J-249998D01*
G01*
X166475000Y-105875002D01*
G75*
G02*
X166225002Y-106125000I-249998J0D01*
G01*
G37*
G36*
G01*
X164600000Y-123725002D02*
X164600000Y-122474998D01*
G75*
G02*
X164849998Y-122225000I249998J0D01*
G01*
X165475002Y-122225000D01*
G75*
G02*
X165725000Y-122474998I0J-249998D01*
G01*
X165725000Y-123725002D01*
G75*
G02*
X165475002Y-123975000I-249998J0D01*
G01*
X164849998Y-123975000D01*
G75*
G02*
X164600000Y-123725002I0J249998D01*
G01*
G37*
G36*
G01*
X161675000Y-123725002D02*
X161675000Y-122474998D01*
G75*
G02*
X161924998Y-122225000I249998J0D01*
G01*
X162550002Y-122225000D01*
G75*
G02*
X162800000Y-122474998I0J-249998D01*
G01*
X162800000Y-123725002D01*
G75*
G02*
X162550002Y-123975000I-249998J0D01*
G01*
X161924998Y-123975000D01*
G75*
G02*
X161675000Y-123725002I0J249998D01*
G01*
G37*
G36*
G01*
X180600000Y-124225002D02*
X180600000Y-122974998D01*
G75*
G02*
X180849998Y-122725000I249998J0D01*
G01*
X181475002Y-122725000D01*
G75*
G02*
X181725000Y-122974998I0J-249998D01*
G01*
X181725000Y-124225002D01*
G75*
G02*
X181475002Y-124475000I-249998J0D01*
G01*
X180849998Y-124475000D01*
G75*
G02*
X180600000Y-124225002I0J249998D01*
G01*
G37*
G36*
G01*
X177675000Y-124225002D02*
X177675000Y-122974998D01*
G75*
G02*
X177924998Y-122725000I249998J0D01*
G01*
X178550002Y-122725000D01*
G75*
G02*
X178800000Y-122974998I0J-249998D01*
G01*
X178800000Y-124225002D01*
G75*
G02*
X178550002Y-124475000I-249998J0D01*
G01*
X177924998Y-124475000D01*
G75*
G02*
X177675000Y-124225002I0J249998D01*
G01*
G37*
D20*
X93675000Y-103975000D03*
X90325000Y-107025000D03*
X93675000Y-107025000D03*
X90325000Y-103975000D03*
D21*
X98300000Y-103220000D03*
X98300000Y-107780000D03*
D18*
X155100000Y-111700000D03*
X153100000Y-112650000D03*
X153100000Y-110750000D03*
D14*
X99000000Y-65000000D03*
X99000000Y-61000000D03*
G36*
G01*
X160125000Y-103325000D02*
X158875000Y-103325000D01*
G75*
G02*
X158625000Y-103075000I0J250000D01*
G01*
X158625000Y-102325000D01*
G75*
G02*
X158875000Y-102075000I250000J0D01*
G01*
X160125000Y-102075000D01*
G75*
G02*
X160375000Y-102325000I0J-250000D01*
G01*
X160375000Y-103075000D01*
G75*
G02*
X160125000Y-103325000I-250000J0D01*
G01*
G37*
G36*
G01*
X160125000Y-106125000D02*
X158875000Y-106125000D01*
G75*
G02*
X158625000Y-105875000I0J250000D01*
G01*
X158625000Y-105125000D01*
G75*
G02*
X158875000Y-104875000I250000J0D01*
G01*
X160125000Y-104875000D01*
G75*
G02*
X160375000Y-105125000I0J-250000D01*
G01*
X160375000Y-105875000D01*
G75*
G02*
X160125000Y-106125000I-250000J0D01*
G01*
G37*
G36*
G01*
X176050001Y-86500000D02*
X174749999Y-86500000D01*
G75*
G02*
X174500000Y-86250001I0J249999D01*
G01*
X174500000Y-85599999D01*
G75*
G02*
X174749999Y-85350000I249999J0D01*
G01*
X176050001Y-85350000D01*
G75*
G02*
X176300000Y-85599999I0J-249999D01*
G01*
X176300000Y-86250001D01*
G75*
G02*
X176050001Y-86500000I-249999J0D01*
G01*
G37*
G36*
G01*
X176050001Y-89450000D02*
X174749999Y-89450000D01*
G75*
G02*
X174500000Y-89200001I0J249999D01*
G01*
X174500000Y-88549999D01*
G75*
G02*
X174749999Y-88300000I249999J0D01*
G01*
X176050001Y-88300000D01*
G75*
G02*
X176300000Y-88549999I0J-249999D01*
G01*
X176300000Y-89200001D01*
G75*
G02*
X176050001Y-89450000I-249999J0D01*
G01*
G37*
G36*
G01*
X190450001Y-86500000D02*
X189149999Y-86500000D01*
G75*
G02*
X188900000Y-86250001I0J249999D01*
G01*
X188900000Y-85599999D01*
G75*
G02*
X189149999Y-85350000I249999J0D01*
G01*
X190450001Y-85350000D01*
G75*
G02*
X190700000Y-85599999I0J-249999D01*
G01*
X190700000Y-86250001D01*
G75*
G02*
X190450001Y-86500000I-249999J0D01*
G01*
G37*
G36*
G01*
X190450001Y-89450000D02*
X189149999Y-89450000D01*
G75*
G02*
X188900000Y-89200001I0J249999D01*
G01*
X188900000Y-88549999D01*
G75*
G02*
X189149999Y-88300000I249999J0D01*
G01*
X190450001Y-88300000D01*
G75*
G02*
X190700000Y-88549999I0J-249999D01*
G01*
X190700000Y-89200001D01*
G75*
G02*
X190450001Y-89450000I-249999J0D01*
G01*
G37*
M02*
